M48
; DRILL file KiCad 10.0.1 date 2026-06-25T14:54:31
; FORMAT={-:-/ absolute / metric / decimal}
; #@! TF.CreationDate,2026-06-25T14:54:31-03:00
; #@! TF.GenerationSoftware,Kicad,Pcbnew,10.0.1
; #@! TF.FileFunction,Plated,1,2,PTH
FMAT,2
METRIC
; #@! TA.AperFunction,Plated,PTH,ViaDrill
T1C0.700
; #@! TA.AperFunction,Plated,PTH,ComponentDrill
T2C0.900
; #@! TA.AperFunction,Plated,PTH,ComponentDrill
T3C1.000
; #@! TA.AperFunction,Plated,PTH,ComponentDrill
T4C1.300
%
G90
G05
T1
X20.2Y18.25
X38.2Y18.15
X39.0Y27.0
X39.34Y36.75
X39.5Y42.25
X43.5Y35.25
X51.75Y43.25
X51.75Y36.96
X56.28Y41.8
X56.31Y38.14
X56.762Y29.35
X60.87Y30.82
X61.4Y25.99
X64.8Y39.85
X64.8Y36.45
X68.1Y35.95
X69.21Y19.48
T2
X45.5Y42.5
X45.5Y38.5
T3
X38.38Y47.875
X40.92Y47.875
X43.46Y47.875
X46.0Y47.875
X48.54Y47.875
X51.08Y47.875
X53.62Y47.875
X56.16Y47.875
X65.98Y16.42
X68.52Y16.42
X71.06Y48.05
X71.06Y16.42
X73.6Y48.05
X73.6Y44.34
X73.6Y41.8
X73.6Y39.26
X73.6Y36.72
X73.6Y25.21
X73.6Y22.67
X73.6Y20.13
X73.6Y16.42
T4
X17.63Y20.07
X24.13Y20.07
X29.81Y20.07
X36.31Y20.07
X41.5Y19.94
X46.58Y19.94
X53.83Y19.88
X58.91Y19.88
M30
