%TF.GenerationSoftware,KiCad,Pcbnew,10.0.1*%
%TF.CreationDate,2026-06-25T14:54:35-03:00*%
%TF.ProjectId,V.Normal,562e4e6f-726d-4616-9c2e-6b696361645f,rev?*%
%TF.SameCoordinates,PX8a48640PY5a995c0*%
%TF.FileFunction,Copper,L2,Bot*%
%TF.FilePolarity,Positive*%
%FSLAX46Y46*%
G04 Gerber Fmt 4.6, Leading zero omitted, Abs format (unit mm)*
G04 Created by KiCad (PCBNEW 10.0.1) date 2026-06-25 14:54:35*
%MOMM*%
%LPD*%
G01*
G04 APERTURE LIST*
%TA.AperFunction,EtchedComponent*%
%ADD10C,0.000000*%
%TD*%
%TA.AperFunction,ComponentPad*%
%ADD11R,2.250000X2.250000*%
%TD*%
%TA.AperFunction,ComponentPad*%
%ADD12C,2.250000*%
%TD*%
%TA.AperFunction,ComponentPad*%
%ADD13R,1.600000X1.600000*%
%TD*%
%TA.AperFunction,ComponentPad*%
%ADD14C,1.600000*%
%TD*%
%TA.AperFunction,ComponentPad*%
%ADD15C,1.700000*%
%TD*%
%TA.AperFunction,ComponentPad*%
%ADD16R,1.700000X1.700000*%
%TD*%
%TA.AperFunction,ComponentPad*%
%ADD17O,1.700000X2.500000*%
%TD*%
%TA.AperFunction,ComponentPad*%
%ADD18C,2.500000*%
%TD*%
%TA.AperFunction,ViaPad*%
%ADD19C,1.700000*%
%TD*%
%TA.AperFunction,Conductor*%
%ADD20C,0.700000*%
%TD*%
%TA.AperFunction,Conductor*%
%ADD21C,0.500000*%
%TD*%
G04 APERTURE END LIST*
D10*
%TA.AperFunction,EtchedComponent*%
%TO.C,G\u002A\u002A\u002A*%
G36*
X63692298Y47793092D02*
G01*
X63693235Y47774832D01*
X63694052Y47751172D01*
X63694756Y47721428D01*
X63695356Y47684918D01*
X63695859Y47640960D01*
X63696274Y47588872D01*
X63696607Y47527970D01*
X63696868Y47457573D01*
X63697063Y47376998D01*
X63697202Y47285563D01*
X63697291Y47182585D01*
X63697338Y47067381D01*
X63697352Y46939270D01*
X63697353Y46907690D01*
X63697356Y46842196D01*
X63697359Y46722974D01*
X63697337Y46616136D01*
X63697266Y46520987D01*
X63697120Y46436835D01*
X63696875Y46362989D01*
X63696505Y46298754D01*
X63695986Y46243439D01*
X63695293Y46196351D01*
X63694401Y46156798D01*
X63693284Y46124086D01*
X63691919Y46097523D01*
X63690280Y46076417D01*
X63688343Y46060075D01*
X63686081Y46047804D01*
X63683472Y46038912D01*
X63680488Y46032706D01*
X63677107Y46028494D01*
X63673302Y46025583D01*
X63669049Y46023279D01*
X63664322Y46020892D01*
X63663927Y46020689D01*
X63658080Y46018592D01*
X63647697Y46016085D01*
X63631661Y46012993D01*
X63608855Y46009141D01*
X63578163Y46004355D01*
X63538468Y45998459D01*
X63488654Y45991279D01*
X63427604Y45982641D01*
X63354201Y45972370D01*
X63340464Y45970500D01*
X63310677Y45966568D01*
X63271786Y45961524D01*
X63226398Y45955704D01*
X63177123Y45949442D01*
X63126566Y45943076D01*
X62953291Y45921361D01*
X62953291Y45395072D01*
X62953291Y44868783D01*
X62987267Y44857130D01*
X62999296Y44853100D01*
X63023597Y44845090D01*
X63057574Y44833961D01*
X63099498Y44820278D01*
X63147642Y44804605D01*
X63200277Y44787507D01*
X63255672Y44769547D01*
X63322364Y44747936D01*
X63395994Y44724030D01*
X63458434Y44703676D01*
X63510658Y44686533D01*
X63553642Y44672260D01*
X63588362Y44660514D01*
X63615793Y44650956D01*
X63636910Y44643243D01*
X63652690Y44637035D01*
X63664107Y44631989D01*
X63672137Y44627765D01*
X63677756Y44624022D01*
X63681939Y44620418D01*
X63686255Y44615972D01*
X63690280Y44610038D01*
X63693230Y44601686D01*
X63695296Y44589056D01*
X63696668Y44570285D01*
X63696813Y44565808D01*
X63697537Y44543511D01*
X63698094Y44506871D01*
X63698531Y44458504D01*
X63698816Y44412191D01*
X63699025Y44355475D01*
X63699152Y44292179D01*
X63699191Y44225822D01*
X63699183Y44216273D01*
X63699139Y44159921D01*
X63698991Y44097994D01*
X63698273Y43884564D01*
X63682524Y43869081D01*
X63681858Y43868472D01*
X63668343Y43860404D01*
X63642715Y43848754D01*
X63605788Y43833853D01*
X63558372Y43816029D01*
X63501278Y43795611D01*
X63335781Y43737624D01*
X63300823Y43750481D01*
X63299720Y43750888D01*
X63275144Y43760332D01*
X63244766Y43772494D01*
X63214902Y43784848D01*
X63195461Y43792976D01*
X63163679Y43806116D01*
X63124278Y43822304D01*
X63079277Y43840720D01*
X63030695Y43860543D01*
X62980552Y43880953D01*
X62930867Y43901127D01*
X62883658Y43920247D01*
X62840945Y43937490D01*
X62804748Y43952036D01*
X62777085Y43963065D01*
X62759976Y43969756D01*
X62722948Y43983853D01*
X62620677Y43968820D01*
X62606961Y43966790D01*
X62568030Y43960892D01*
X62532005Y43955249D01*
X62502400Y43950419D01*
X62482732Y43946958D01*
X62447058Y43940129D01*
X62447058Y43811057D01*
X62447057Y43807177D01*
X62446793Y43758885D01*
X62445849Y43722218D01*
X62443923Y43695346D01*
X62440715Y43676436D01*
X62435923Y43663658D01*
X62429243Y43655180D01*
X62420376Y43649171D01*
X62418609Y43648518D01*
X62404845Y43645596D01*
X62379944Y43641508D01*
X62345697Y43636509D01*
X62303894Y43630854D01*
X62256327Y43624796D01*
X62204788Y43618589D01*
X62149269Y43612077D01*
X62088729Y43604953D01*
X62029008Y43597904D01*
X61973278Y43591304D01*
X61924707Y43585528D01*
X61886464Y43580952D01*
X61862417Y43578062D01*
X61819423Y43572907D01*
X61778905Y43568063D01*
X61744535Y43563969D01*
X61719985Y43561063D01*
X61718535Y43560894D01*
X61690560Y43558355D01*
X61665505Y43557251D01*
X61648637Y43557821D01*
X61640902Y43560773D01*
X61622517Y43570653D01*
X61596143Y43586321D01*
X61563513Y43606624D01*
X61526358Y43630407D01*
X61486412Y43656516D01*
X61445406Y43683796D01*
X61405073Y43711092D01*
X61367145Y43737251D01*
X61333355Y43761116D01*
X61305435Y43781534D01*
X61285117Y43797351D01*
X61274134Y43807411D01*
X61272596Y43809253D01*
X61266662Y43817416D01*
X61262587Y43826636D01*
X61260023Y43839421D01*
X61258623Y43858277D01*
X61258037Y43885709D01*
X61257920Y43924225D01*
X61257867Y43938278D01*
X61257287Y43971542D01*
X61256169Y43998707D01*
X61254639Y44017276D01*
X61252823Y44024752D01*
X61250304Y44024968D01*
X61236218Y44024130D01*
X61211657Y44021807D01*
X61178599Y44018207D01*
X61139022Y44013541D01*
X61094903Y44008018D01*
X61067574Y44004539D01*
X61022154Y43999026D01*
X60987556Y43995337D01*
X60962035Y43993356D01*
X60943843Y43992965D01*
X60931235Y43994047D01*
X60922464Y43996487D01*
X60912867Y44001311D01*
X60889986Y44014882D01*
X60856375Y44036254D01*
X60812194Y44065323D01*
X60757604Y44101984D01*
X60692763Y44146134D01*
X60677782Y44156609D01*
X60651318Y44177035D01*
X60634755Y44193508D01*
X60626511Y44207492D01*
X60625316Y44214262D01*
X60623778Y44234412D01*
X60622451Y44265390D01*
X60621336Y44305568D01*
X60620434Y44353317D01*
X60619744Y44407011D01*
X60619267Y44465021D01*
X60619003Y44525720D01*
X60618954Y44587479D01*
X60619119Y44648672D01*
X60619168Y44656225D01*
X60735788Y44656225D01*
X60735929Y44599904D01*
X60736319Y44531129D01*
X60738096Y44264986D01*
X60768674Y44243558D01*
X60785173Y44232226D01*
X60812140Y44214223D01*
X60838324Y44197212D01*
X60877395Y44172294D01*
X60877291Y44442314D01*
X60877273Y44460549D01*
X60877138Y44497136D01*
X60986049Y44497136D01*
X60986117Y44426494D01*
X60986146Y44394872D01*
X60986474Y44323728D01*
X60987154Y44263688D01*
X60988175Y44215248D01*
X60989522Y44178906D01*
X60989985Y44172294D01*
X60991185Y44155157D01*
X60993151Y44144498D01*
X60993467Y44143904D01*
X60996296Y44139032D01*
X61000047Y44135608D01*
X61006515Y44133669D01*
X61017493Y44133251D01*
X61034776Y44134389D01*
X61060160Y44137121D01*
X61095437Y44141482D01*
X61142403Y44147508D01*
X61254522Y44161932D01*
X61254829Y44194561D01*
X61374792Y44194561D01*
X61375054Y44136662D01*
X61376833Y43876962D01*
X61434592Y43840968D01*
X61462067Y43823865D01*
X61503200Y43798381D01*
X61534800Y43779038D01*
X61558120Y43765111D01*
X61574412Y43755876D01*
X61584931Y43750609D01*
X61590930Y43748587D01*
X61593662Y43749084D01*
X61593773Y43749292D01*
X61594668Y43758289D01*
X61595489Y43779182D01*
X61596213Y43810457D01*
X61596817Y43850602D01*
X61597277Y43898103D01*
X61597571Y43951448D01*
X61597674Y44009123D01*
X61597668Y44023034D01*
X61714721Y44023034D01*
X61714775Y44009123D01*
X61714947Y43964875D01*
X61716587Y43706662D01*
X61750563Y43705618D01*
X61757621Y43705688D01*
X61780173Y43707033D01*
X61812525Y43709777D01*
X61852262Y43713691D01*
X61896967Y43718543D01*
X61944222Y43724102D01*
X61955083Y43725430D01*
X62009590Y43732091D01*
X62066486Y43739037D01*
X62121801Y43745784D01*
X62171565Y43751849D01*
X62211809Y43756746D01*
X62256859Y43762706D01*
X62292880Y43768668D01*
X62315857Y43774128D01*
X62325522Y43779032D01*
X62325603Y43779184D01*
X62326918Y43788620D01*
X62328132Y43809989D01*
X62329208Y43841727D01*
X62330113Y43882269D01*
X62330809Y43930052D01*
X62331263Y43983510D01*
X62331438Y44041081D01*
X62331439Y44090810D01*
X62331344Y44147120D01*
X62331084Y44192113D01*
X62330600Y44227095D01*
X62329832Y44253372D01*
X62328721Y44272252D01*
X62327206Y44285039D01*
X62325229Y44293040D01*
X62322731Y44297562D01*
X62319650Y44299910D01*
X62311777Y44300689D01*
X62291813Y44300079D01*
X62261737Y44298071D01*
X62223236Y44294855D01*
X62178001Y44290624D01*
X62127719Y44285568D01*
X62074080Y44279879D01*
X62018772Y44273748D01*
X61963484Y44267368D01*
X61909904Y44260929D01*
X61859721Y44254623D01*
X61814625Y44248641D01*
X61776303Y44243176D01*
X61746445Y44238417D01*
X61726739Y44234558D01*
X61718873Y44231789D01*
X61718700Y44231391D01*
X61717515Y44221116D01*
X61716509Y44199003D01*
X61715703Y44166596D01*
X61715122Y44125437D01*
X61714787Y44077069D01*
X61714721Y44023034D01*
X61597668Y44023034D01*
X61597654Y44057379D01*
X61597534Y44114633D01*
X61597252Y44160557D01*
X61596749Y44196474D01*
X61595965Y44223705D01*
X61594842Y44243574D01*
X61593322Y44257401D01*
X61591344Y44266509D01*
X61588851Y44272221D01*
X61585782Y44275857D01*
X61581439Y44279147D01*
X61566434Y44288966D01*
X61543987Y44302820D01*
X61516481Y44319323D01*
X61486298Y44337088D01*
X61455820Y44354732D01*
X61427430Y44370867D01*
X61403510Y44384107D01*
X61386442Y44393068D01*
X61378610Y44396363D01*
X61378388Y44396136D01*
X61377274Y44387256D01*
X61376339Y44366528D01*
X61375603Y44335423D01*
X61375087Y44295412D01*
X61374809Y44247968D01*
X61374792Y44194561D01*
X61254829Y44194561D01*
X61256183Y44338604D01*
X61257076Y44401290D01*
X61258484Y44452799D01*
X61259515Y44473905D01*
X61458790Y44473905D01*
X61462953Y44468994D01*
X61472674Y44461676D01*
X61489226Y44451125D01*
X61513879Y44436514D01*
X61547903Y44417018D01*
X61592570Y44391809D01*
X61617166Y44378150D01*
X61649444Y44360753D01*
X61676905Y44346561D01*
X61697225Y44336763D01*
X61708086Y44332552D01*
X61710320Y44332422D01*
X61724763Y44333135D01*
X61750087Y44335212D01*
X61784402Y44338442D01*
X61825816Y44342616D01*
X61872436Y44347523D01*
X61922372Y44352952D01*
X61973731Y44358694D01*
X62024622Y44364537D01*
X62073152Y44370271D01*
X62117430Y44375687D01*
X62155564Y44380573D01*
X62185662Y44384719D01*
X62205833Y44387914D01*
X62239808Y44394092D01*
X62193857Y44415719D01*
X62192796Y44416215D01*
X62171194Y44425770D01*
X62139944Y44438915D01*
X62101900Y44454481D01*
X62059915Y44471300D01*
X62016844Y44488202D01*
X61992587Y44497565D01*
X61948955Y44513904D01*
X61914444Y44525689D01*
X61886731Y44533391D01*
X61863489Y44537484D01*
X61842396Y44538440D01*
X61821127Y44536732D01*
X61797357Y44532832D01*
X61793101Y44532068D01*
X61772529Y44528680D01*
X61741880Y44523885D01*
X61703673Y44518068D01*
X61660428Y44511615D01*
X61614661Y44504909D01*
X61594436Y44501935D01*
X61552607Y44495524D01*
X61516215Y44489595D01*
X61487267Y44484497D01*
X61467768Y44480573D01*
X61459724Y44478171D01*
X61458914Y44477236D01*
X61458790Y44473905D01*
X61259515Y44473905D01*
X61260382Y44491644D01*
X61262754Y44517519D01*
X61265585Y44530117D01*
X61270928Y44538173D01*
X61279237Y44545218D01*
X61292061Y44551300D01*
X61311194Y44556944D01*
X61338432Y44562673D01*
X61375568Y44569012D01*
X61424399Y44576484D01*
X61433947Y44577904D01*
X61508169Y44589048D01*
X61575738Y44599379D01*
X61635293Y44608682D01*
X61685473Y44616742D01*
X61724916Y44623344D01*
X61745781Y44627104D01*
X61917042Y44627104D01*
X61932331Y44620569D01*
X61933238Y44620185D01*
X61948061Y44614203D01*
X61974818Y44603675D01*
X62012822Y44588866D01*
X62061387Y44570044D01*
X62119827Y44547473D01*
X62187458Y44521420D01*
X62263591Y44492151D01*
X62292496Y44481017D01*
X62337388Y44463496D01*
X62371794Y44449618D01*
X62397189Y44438694D01*
X62415048Y44430038D01*
X62426848Y44422961D01*
X62434062Y44416776D01*
X62438166Y44410796D01*
X62439227Y44406040D01*
X62440432Y44394092D01*
X62440973Y44388730D01*
X62442734Y44361162D01*
X62444404Y44325369D01*
X62445880Y44283383D01*
X62447058Y44237236D01*
X62447353Y44223879D01*
X62448826Y44172858D01*
X62450616Y44131239D01*
X62452661Y44100068D01*
X62453712Y44090810D01*
X62454894Y44080393D01*
X62457251Y44073262D01*
X62457610Y44073208D01*
X62468044Y44073790D01*
X62488310Y44076141D01*
X62515153Y44079769D01*
X62545320Y44084185D01*
X62575554Y44088897D01*
X62602602Y44093416D01*
X62623208Y44097251D01*
X62634117Y44099911D01*
X62634883Y44100319D01*
X62637279Y44103780D01*
X62639231Y44111299D01*
X62640784Y44124068D01*
X62641981Y44143278D01*
X62642864Y44170121D01*
X62643476Y44205789D01*
X62643860Y44251472D01*
X62644059Y44308361D01*
X62644073Y44325881D01*
X62759736Y44325881D01*
X62759783Y44301636D01*
X62760119Y44250793D01*
X62760741Y44204945D01*
X62761605Y44165813D01*
X62762668Y44135114D01*
X62763888Y44114568D01*
X62765221Y44105893D01*
X62766111Y44105025D01*
X62776895Y44099050D01*
X62797925Y44089438D01*
X62827224Y44077033D01*
X62862814Y44062679D01*
X62902717Y44047220D01*
X62941476Y44032458D01*
X62994682Y44012109D01*
X63048803Y43991331D01*
X63099297Y43971869D01*
X63141620Y43955466D01*
X63168456Y43945111D01*
X63201311Y43932690D01*
X63228255Y43922804D01*
X63247045Y43916271D01*
X63255438Y43913912D01*
X63256335Y43915004D01*
X63258303Y43926455D01*
X63259920Y43948883D01*
X63261191Y43980428D01*
X63262123Y44019233D01*
X63262719Y44063439D01*
X63262988Y44111189D01*
X63262963Y44133454D01*
X63378022Y44133454D01*
X63378060Y44111189D01*
X63378086Y44096134D01*
X63378415Y44045017D01*
X63378993Y43999450D01*
X63379784Y43961042D01*
X63380753Y43931400D01*
X63381863Y43912133D01*
X63383080Y43904848D01*
X63385323Y43904834D01*
X63398316Y43907994D01*
X63420549Y43914876D01*
X63449665Y43924727D01*
X63483308Y43936797D01*
X63578439Y43971817D01*
X63578439Y44216273D01*
X63578436Y44233047D01*
X63578359Y44294491D01*
X63578131Y44343947D01*
X63577696Y44382704D01*
X63576996Y44412053D01*
X63575974Y44433285D01*
X63574573Y44447688D01*
X63572737Y44456553D01*
X63570407Y44461171D01*
X63567526Y44462831D01*
X63566973Y44462896D01*
X63555442Y44461122D01*
X63534253Y44455633D01*
X63506232Y44447221D01*
X63474202Y44436676D01*
X63470614Y44435446D01*
X63437811Y44424042D01*
X63415422Y44415533D01*
X63401193Y44408582D01*
X63392869Y44401852D01*
X63388198Y44394006D01*
X63384925Y44383705D01*
X63384317Y44380773D01*
X63382579Y44363331D01*
X63381059Y44334334D01*
X63379802Y44295314D01*
X63378848Y44247805D01*
X63378241Y44193341D01*
X63378022Y44133454D01*
X63262963Y44133454D01*
X63262933Y44160625D01*
X63262560Y44209888D01*
X63261876Y44257121D01*
X63260886Y44300465D01*
X63259594Y44338064D01*
X63258008Y44368057D01*
X63256133Y44388589D01*
X63253974Y44397800D01*
X63253906Y44397882D01*
X63245053Y44402834D01*
X63225034Y44411117D01*
X63195624Y44422089D01*
X63158599Y44435109D01*
X63115735Y44449533D01*
X63068808Y44464722D01*
X63002645Y44485704D01*
X62945454Y44503753D01*
X62898911Y44518281D01*
X62861849Y44529603D01*
X62833098Y44538037D01*
X62811489Y44543899D01*
X62795852Y44547505D01*
X62785019Y44549173D01*
X62777820Y44549218D01*
X62773085Y44547957D01*
X62769647Y44545707D01*
X62766888Y44541769D01*
X62764589Y44533781D01*
X62762820Y44520473D01*
X62761518Y44500465D01*
X62760620Y44472380D01*
X62760065Y44434839D01*
X62759791Y44386466D01*
X62759736Y44325881D01*
X62644073Y44325881D01*
X62644115Y44377650D01*
X62644121Y44421174D01*
X62644224Y44485947D01*
X62644584Y44538984D01*
X62645366Y44581459D01*
X62646730Y44614545D01*
X62648839Y44639414D01*
X62651857Y44657238D01*
X62655945Y44669192D01*
X62661266Y44676448D01*
X62667982Y44680179D01*
X62676257Y44681557D01*
X62686251Y44681756D01*
X62690020Y44681473D01*
X62707915Y44678087D01*
X62734686Y44671473D01*
X62767389Y44662392D01*
X62803081Y44651603D01*
X62803392Y44651506D01*
X62835845Y44641285D01*
X62878414Y44627861D01*
X62928289Y44612121D01*
X62982662Y44594951D01*
X63038725Y44577239D01*
X63093669Y44559870D01*
X63108637Y44555157D01*
X63157916Y44539936D01*
X63203423Y44526312D01*
X63243326Y44514806D01*
X63275796Y44505937D01*
X63299002Y44500223D01*
X63311111Y44498185D01*
X63320203Y44499461D01*
X63339872Y44504494D01*
X63365874Y44512432D01*
X63395447Y44522288D01*
X63425833Y44533075D01*
X63454270Y44543807D01*
X63478000Y44553498D01*
X63494261Y44561160D01*
X63500295Y44565808D01*
X63498820Y44566900D01*
X63487042Y44571857D01*
X63465021Y44579917D01*
X63434596Y44590435D01*
X63397609Y44602769D01*
X63355900Y44616276D01*
X63340944Y44621056D01*
X63287209Y44638283D01*
X63226295Y44657873D01*
X63162554Y44678423D01*
X63100336Y44698532D01*
X63043992Y44716796D01*
X62876480Y44771203D01*
X62822284Y44747375D01*
X62818291Y44745629D01*
X62783066Y44731078D01*
X62750886Y44719193D01*
X62724079Y44710718D01*
X62704976Y44706398D01*
X62695905Y44706977D01*
X62696720Y44709215D01*
X62705720Y44718067D01*
X62722415Y44731628D01*
X62744579Y44748021D01*
X62755806Y44756074D01*
X62779991Y44773864D01*
X62799979Y44789139D01*
X62812294Y44799272D01*
X62827583Y44813231D01*
X62827583Y45355653D01*
X62827579Y45414881D01*
X62827546Y45506037D01*
X62827465Y45584987D01*
X62827315Y45652602D01*
X62827078Y45709756D01*
X62826735Y45757322D01*
X62826265Y45796173D01*
X62825651Y45827182D01*
X62824873Y45851223D01*
X62823912Y45869167D01*
X62822749Y45881889D01*
X62821365Y45890262D01*
X62819739Y45895158D01*
X62817855Y45897450D01*
X62815691Y45898012D01*
X62812940Y45897828D01*
X62797894Y45896258D01*
X62771896Y45893256D01*
X62736686Y45889033D01*
X62694000Y45883799D01*
X62645576Y45877762D01*
X62593152Y45871134D01*
X62587333Y45870393D01*
X62523171Y45862244D01*
X62450037Y45852980D01*
X62372032Y45843120D01*
X62293255Y45833181D01*
X62217807Y45823680D01*
X62149788Y45815137D01*
X61917072Y45785956D01*
X61917072Y45770705D01*
X61917057Y45206530D01*
X61917042Y44627104D01*
X61745781Y44627104D01*
X61752262Y44628272D01*
X61787936Y44635154D01*
X61787936Y45202930D01*
X61787936Y45770705D01*
X61762454Y45766717D01*
X61747254Y45764596D01*
X61720712Y45761406D01*
X61692805Y45758473D01*
X61648637Y45754217D01*
X61522928Y45816308D01*
X61397219Y45878400D01*
X61395478Y45353455D01*
X61393796Y44846409D01*
X61393737Y44828510D01*
X61418819Y44802823D01*
X61428383Y44792578D01*
X61438312Y44780368D01*
X61440945Y44774536D01*
X61437984Y44773745D01*
X61423488Y44771282D01*
X61398829Y44767612D01*
X61366077Y44763006D01*
X61327307Y44757736D01*
X61284590Y44752072D01*
X61240000Y44746285D01*
X61195608Y44740645D01*
X61153489Y44735423D01*
X61115713Y44730889D01*
X61084354Y44727316D01*
X61061485Y44724973D01*
X61057401Y44724618D01*
X61039833Y44723313D01*
X61025401Y44721776D01*
X61013798Y44718792D01*
X61004718Y44713147D01*
X60997855Y44703627D01*
X60992901Y44689017D01*
X60989551Y44668104D01*
X60987497Y44639674D01*
X60986433Y44602512D01*
X60986053Y44555404D01*
X60986049Y44497136D01*
X60877138Y44497136D01*
X60877058Y44518911D01*
X60876627Y44572677D01*
X60876007Y44620348D01*
X60875227Y44660425D01*
X60874313Y44691409D01*
X60873293Y44711801D01*
X60872195Y44720102D01*
X60871062Y44721472D01*
X60860285Y44730129D01*
X60841737Y44742691D01*
X60818598Y44757250D01*
X60794044Y44771896D01*
X60771256Y44784721D01*
X60753412Y44793816D01*
X60743691Y44797272D01*
X60741920Y44796210D01*
X60739910Y44790768D01*
X60738337Y44779684D01*
X60737170Y44761823D01*
X60736377Y44736050D01*
X60735926Y44701229D01*
X60735788Y44656225D01*
X60619168Y44656225D01*
X60619499Y44707671D01*
X60620094Y44762847D01*
X60620905Y44812574D01*
X60621932Y44855223D01*
X60622302Y44865326D01*
X60836625Y44865326D01*
X60837357Y44864141D01*
X60846415Y44857064D01*
X60863631Y44845895D01*
X60886248Y44832459D01*
X60889670Y44830514D01*
X60919682Y44815057D01*
X60942896Y44806874D01*
X60962692Y44804739D01*
X60964460Y44804809D01*
X60981265Y44806198D01*
X61008351Y44809050D01*
X61043034Y44813030D01*
X61082629Y44817802D01*
X61124452Y44823033D01*
X61165817Y44828388D01*
X61204041Y44833532D01*
X61236439Y44838129D01*
X61260326Y44841847D01*
X61287329Y44846409D01*
X61233553Y44876091D01*
X61223485Y44881464D01*
X61197203Y44893922D01*
X61174493Y44902616D01*
X61159391Y44905925D01*
X61156056Y44905870D01*
X61138025Y44904672D01*
X61111059Y44902129D01*
X61077402Y44898524D01*
X61039300Y44894140D01*
X60998995Y44889258D01*
X60958734Y44884160D01*
X60920760Y44879130D01*
X60887317Y44874449D01*
X60860651Y44870400D01*
X60843005Y44867265D01*
X60836625Y44865326D01*
X60622302Y44865326D01*
X60623176Y44889167D01*
X60624637Y44912778D01*
X60626316Y44924428D01*
X60636057Y44940742D01*
X60650796Y44952794D01*
X60651028Y44952897D01*
X60663832Y44956123D01*
X60689819Y44960504D01*
X60729040Y44966046D01*
X60781544Y44972755D01*
X60847384Y44980639D01*
X60926608Y44989702D01*
X61019269Y44999951D01*
X61125416Y45011393D01*
X61134473Y45012365D01*
X61170528Y45016347D01*
X61202717Y45020072D01*
X61227824Y45023159D01*
X61242631Y45025229D01*
X61264715Y45028921D01*
X61264536Y45485582D01*
X61264358Y45942243D01*
X60955483Y46094563D01*
X60942177Y46101133D01*
X60882030Y46131036D01*
X60825505Y46159465D01*
X60773830Y46185780D01*
X60728234Y46209343D01*
X60689944Y46229514D01*
X60660189Y46245655D01*
X60640197Y46257125D01*
X60631197Y46263287D01*
X60615785Y46279692D01*
X60613883Y47140422D01*
X60613870Y47145988D01*
X60613666Y47253108D01*
X60613525Y47356567D01*
X60613446Y47455537D01*
X60613427Y47549192D01*
X60613467Y47636704D01*
X60613494Y47658960D01*
X60733533Y47658960D01*
X60733556Y47595486D01*
X60733630Y47525374D01*
X60733752Y47449688D01*
X60733917Y47369492D01*
X60734123Y47285853D01*
X60734365Y47199833D01*
X60734640Y47112498D01*
X60734944Y47024913D01*
X60735274Y46938142D01*
X60735625Y46853250D01*
X60735994Y46771302D01*
X60736378Y46693361D01*
X60736772Y46620494D01*
X60737173Y46553764D01*
X60737578Y46494236D01*
X60737982Y46442975D01*
X60738382Y46401045D01*
X60738774Y46369512D01*
X60739155Y46349439D01*
X60739520Y46341892D01*
X60739716Y46341539D01*
X60747942Y46335271D01*
X60766650Y46324113D01*
X60794231Y46308930D01*
X60829078Y46290586D01*
X60869584Y46269948D01*
X60914140Y46247882D01*
X60941962Y46234272D01*
X60996072Y46207728D01*
X61057614Y46177464D01*
X61123636Y46144936D01*
X61191185Y46111600D01*
X61257308Y46078910D01*
X61319052Y46048321D01*
X61328956Y46043413D01*
X61380872Y46017818D01*
X61428913Y45994354D01*
X61471698Y45973680D01*
X61507847Y45956455D01*
X61535982Y45943336D01*
X61554722Y45934981D01*
X61562688Y45932050D01*
X61563206Y45932253D01*
X61564577Y45935283D01*
X61565786Y45942472D01*
X61566841Y45954494D01*
X61567746Y45972021D01*
X61568508Y45995728D01*
X61569132Y46026288D01*
X61569623Y46064375D01*
X61569989Y46110662D01*
X61570234Y46165824D01*
X61570365Y46230534D01*
X61570388Y46305465D01*
X61570307Y46391292D01*
X61570129Y46488687D01*
X61569861Y46598326D01*
X61569554Y46704411D01*
X61692805Y46704411D01*
X61692821Y46610790D01*
X61692899Y46492263D01*
X61693048Y46386354D01*
X61693242Y46305465D01*
X61693273Y46292498D01*
X61693580Y46210131D01*
X61693975Y46138688D01*
X61694462Y46077604D01*
X61695048Y46026315D01*
X61695739Y45984255D01*
X61696540Y45950860D01*
X61697457Y45925566D01*
X61698495Y45907808D01*
X61699660Y45897020D01*
X61700959Y45892639D01*
X61705237Y45889826D01*
X61718875Y45886534D01*
X61741018Y45885517D01*
X61772636Y45886827D01*
X61814698Y45890517D01*
X61868173Y45896638D01*
X61934030Y45905244D01*
X61946087Y45906886D01*
X62007343Y45915177D01*
X62079673Y45924903D01*
X62161114Y45935804D01*
X62249706Y45947619D01*
X62343487Y45960090D01*
X62440495Y45972955D01*
X62538770Y45985956D01*
X62636348Y45998831D01*
X62731269Y46011322D01*
X62821571Y46023168D01*
X62905292Y46034110D01*
X62980472Y46043888D01*
X63067497Y46055215D01*
X63163660Y46067868D01*
X63247581Y46079094D01*
X63319953Y46088997D01*
X63381469Y46097685D01*
X63432822Y46105263D01*
X63474704Y46111836D01*
X63507807Y46117510D01*
X63532826Y46122391D01*
X63550452Y46126585D01*
X63561377Y46130198D01*
X63566296Y46133335D01*
X63566595Y46133839D01*
X63567967Y46139074D01*
X63569190Y46149390D01*
X63570274Y46165440D01*
X63571225Y46187879D01*
X63572050Y46217362D01*
X63572756Y46254543D01*
X63573352Y46300077D01*
X63573845Y46354619D01*
X63574241Y46418823D01*
X63574549Y46493344D01*
X63574775Y46578837D01*
X63574928Y46675955D01*
X63575014Y46785355D01*
X63575041Y46907690D01*
X63575040Y46955823D01*
X63575024Y47068918D01*
X63574979Y47169473D01*
X63574894Y47258240D01*
X63574756Y47335974D01*
X63574554Y47403428D01*
X63574276Y47461354D01*
X63573910Y47510507D01*
X63573444Y47551639D01*
X63572867Y47585504D01*
X63572165Y47612855D01*
X63571329Y47634446D01*
X63570345Y47651029D01*
X63569202Y47663358D01*
X63567888Y47672186D01*
X63566392Y47678266D01*
X63564700Y47682353D01*
X63562802Y47685199D01*
X63550564Y47700313D01*
X63194169Y47665430D01*
X63118596Y47658033D01*
X63050368Y47651356D01*
X62992568Y47645700D01*
X62943604Y47640912D01*
X62901885Y47636837D01*
X62865818Y47633321D01*
X62833812Y47630209D01*
X62804275Y47627347D01*
X62775615Y47624580D01*
X62746240Y47621754D01*
X62714558Y47618713D01*
X62678978Y47615305D01*
X62637907Y47611373D01*
X62589755Y47606765D01*
X62494587Y47597643D01*
X62371903Y47585841D01*
X62261753Y47575184D01*
X62163552Y47565613D01*
X62076715Y47557065D01*
X62000660Y47549481D01*
X61934801Y47542799D01*
X61878555Y47536958D01*
X61831337Y47531897D01*
X61792564Y47527557D01*
X61761651Y47523874D01*
X61738014Y47520790D01*
X61721069Y47518242D01*
X61710232Y47516170D01*
X61704919Y47514513D01*
X61703296Y47513276D01*
X61701636Y47510647D01*
X61700160Y47506023D01*
X61698858Y47498679D01*
X61697719Y47487889D01*
X61696732Y47472930D01*
X61695886Y47453076D01*
X61695171Y47427604D01*
X61694575Y47395788D01*
X61694088Y47356903D01*
X61693699Y47310226D01*
X61693396Y47255031D01*
X61693170Y47190594D01*
X61693010Y47116190D01*
X61692904Y47031094D01*
X61692841Y46934582D01*
X61692812Y46825930D01*
X61692805Y46704411D01*
X61569554Y46704411D01*
X61569506Y46720880D01*
X61567096Y47509710D01*
X61552686Y47521378D01*
X61552319Y47521638D01*
X61542530Y47526461D01*
X61521645Y47535666D01*
X61490977Y47548720D01*
X61451843Y47565095D01*
X61405555Y47584259D01*
X61353430Y47605681D01*
X61296781Y47628831D01*
X61236924Y47653178D01*
X61175173Y47678192D01*
X61112843Y47703342D01*
X61051249Y47728097D01*
X60991705Y47751928D01*
X60935527Y47774302D01*
X60884028Y47794690D01*
X60838524Y47812561D01*
X60800329Y47827384D01*
X60770759Y47838629D01*
X60751127Y47845765D01*
X60742749Y47848262D01*
X60739766Y47847665D01*
X60734328Y47839768D01*
X60734317Y47839490D01*
X60734028Y47825178D01*
X60733809Y47798905D01*
X60733656Y47761734D01*
X60733565Y47714731D01*
X60733533Y47658960D01*
X60613494Y47658960D01*
X60613563Y47717245D01*
X60613715Y47789989D01*
X60613921Y47854106D01*
X60614178Y47908772D01*
X60614398Y47940564D01*
X60810880Y47940564D01*
X60819637Y47936112D01*
X60820409Y47935792D01*
X60831746Y47931248D01*
X60854004Y47922419D01*
X60885719Y47909882D01*
X60925425Y47894216D01*
X60971658Y47875999D01*
X61022955Y47855808D01*
X61077850Y47834221D01*
X61122857Y47816522D01*
X61187417Y47791105D01*
X61252791Y47765340D01*
X61316286Y47740289D01*
X61375209Y47717014D01*
X61426867Y47696579D01*
X61468567Y47680045D01*
X61485375Y47673383D01*
X61533532Y47654621D01*
X61572257Y47640450D01*
X61603941Y47630382D01*
X61630973Y47623928D01*
X61655742Y47620601D01*
X61680639Y47619912D01*
X61708051Y47621372D01*
X61740370Y47624493D01*
X61763717Y47626921D01*
X61799612Y47630565D01*
X61845527Y47635169D01*
X61899672Y47640559D01*
X61960256Y47646556D01*
X62025489Y47652986D01*
X62093581Y47659670D01*
X62162740Y47666434D01*
X62231177Y47673100D01*
X62297102Y47679491D01*
X62358722Y47685433D01*
X62390447Y47688486D01*
X62437580Y47693030D01*
X62494294Y47698506D01*
X62558488Y47704709D01*
X62628055Y47711436D01*
X62700894Y47718483D01*
X62774899Y47725648D01*
X62847968Y47732727D01*
X62916784Y47739389D01*
X62988236Y47746293D01*
X63057617Y47752984D01*
X63123018Y47759278D01*
X63182529Y47764992D01*
X63234242Y47769943D01*
X63276248Y47773946D01*
X63306636Y47776818D01*
X63335306Y47779580D01*
X63372313Y47783368D01*
X63403718Y47786838D01*
X63426875Y47789694D01*
X63439140Y47791641D01*
X63443556Y47792701D01*
X63450628Y47795436D01*
X63447236Y47799090D01*
X63432344Y47805829D01*
X63425677Y47808518D01*
X63405922Y47815904D01*
X63375388Y47826888D01*
X63333814Y47841562D01*
X63280935Y47860018D01*
X63216489Y47882347D01*
X63140213Y47908640D01*
X63051845Y47938988D01*
X62951119Y47973483D01*
X62837775Y48012215D01*
X62579562Y48100374D01*
X62501419Y48093069D01*
X62499003Y48092844D01*
X62474868Y48090647D01*
X62439097Y48087447D01*
X62393355Y48083391D01*
X62339306Y48078625D01*
X62278614Y48073295D01*
X62212944Y48067548D01*
X62143961Y48061531D01*
X62073329Y48055390D01*
X62042872Y48052744D01*
X61954459Y48045042D01*
X61857730Y48036589D01*
X61756327Y48027706D01*
X61653894Y48018711D01*
X61554071Y48009925D01*
X61460504Y48001667D01*
X61376833Y47994257D01*
X61372812Y47993900D01*
X61301768Y47987625D01*
X61231844Y47981501D01*
X61164815Y47975679D01*
X61102453Y47970312D01*
X61046532Y47965550D01*
X60998826Y47961547D01*
X60961109Y47958455D01*
X60935153Y47956424D01*
X60925423Y47955688D01*
X60890108Y47952802D01*
X60859249Y47949963D01*
X60835880Y47947466D01*
X60823035Y47945601D01*
X60814007Y47943403D01*
X60810880Y47940564D01*
X60614398Y47940564D01*
X60614485Y47953156D01*
X60614840Y47986433D01*
X60615242Y48007775D01*
X60615689Y48016354D01*
X60622259Y48029101D01*
X60635799Y48042303D01*
X60638465Y48044012D01*
X60642825Y48046381D01*
X60648457Y48048533D01*
X60656477Y48050594D01*
X60667999Y48052690D01*
X60684139Y48054949D01*
X60706012Y48057497D01*
X60734733Y48060461D01*
X60771417Y48063966D01*
X60817180Y48068141D01*
X60873137Y48073111D01*
X60940402Y48079003D01*
X61020092Y48085944D01*
X61060515Y48089461D01*
X61244812Y48105483D01*
X61415872Y48120329D01*
X61573941Y48134021D01*
X61719266Y48146579D01*
X61852095Y48158025D01*
X61972676Y48168379D01*
X62081254Y48177663D01*
X62178079Y48185898D01*
X62263395Y48193103D01*
X62337452Y48199301D01*
X62400496Y48204513D01*
X62452775Y48208758D01*
X62494535Y48212059D01*
X62526024Y48214436D01*
X62547489Y48215911D01*
X62559177Y48216504D01*
X62578464Y48215299D01*
X62605159Y48210033D01*
X62639922Y48200125D01*
X62684886Y48185042D01*
X62703195Y48178643D01*
X62734566Y48167750D01*
X62774510Y48153929D01*
X62821244Y48137794D01*
X62872981Y48119957D01*
X62927936Y48101033D01*
X62984326Y48081635D01*
X63040364Y48062377D01*
X63094267Y48043873D01*
X63144248Y48026736D01*
X63188523Y48011580D01*
X63225307Y47999019D01*
X63252815Y47989666D01*
X63269263Y47984135D01*
X63284901Y47978870D01*
X63312782Y47969322D01*
X63348411Y47957017D01*
X63389501Y47942754D01*
X63433764Y47927333D01*
X63478912Y47911554D01*
X63522656Y47896218D01*
X63562709Y47882123D01*
X63596782Y47870070D01*
X63622587Y47860858D01*
X63637837Y47855288D01*
X63655452Y47847594D01*
X63675315Y47836175D01*
X63687101Y47825899D01*
X63687189Y47825770D01*
X63688686Y47822289D01*
X63690032Y47816138D01*
X63691233Y47806633D01*
X63692114Y47795436D01*
X63692298Y47793092D01*
G37*
%TD.AperFunction*%
%TA.AperFunction,EtchedComponent*%
G36*
X62433468Y46937722D02*
G01*
X62433468Y46889934D01*
X62433468Y46644916D01*
X62416789Y46628237D01*
X62415192Y46626662D01*
X62402736Y46615796D01*
X62394705Y46611103D01*
X62390717Y46610624D01*
X62374616Y46608581D01*
X62347760Y46605129D01*
X62311762Y46600477D01*
X62268237Y46594834D01*
X62218799Y46588409D01*
X62165062Y46581410D01*
X62135921Y46577622D01*
X62070637Y46569266D01*
X62017047Y46562665D01*
X61973883Y46557719D01*
X61939879Y46554324D01*
X61913770Y46552379D01*
X61894288Y46551782D01*
X61880169Y46552430D01*
X61870144Y46554221D01*
X61862950Y46557054D01*
X61858660Y46559689D01*
X61852888Y46565184D01*
X61848155Y46573421D01*
X61844360Y46585606D01*
X61841401Y46602943D01*
X61839177Y46626640D01*
X61837586Y46657899D01*
X61836527Y46697927D01*
X61835899Y46747929D01*
X61835599Y46809111D01*
X61835530Y46879974D01*
X62000898Y46879974D01*
X62006090Y46860261D01*
X62022325Y46837505D01*
X62043195Y46825743D01*
X62067067Y46823697D01*
X62089656Y46831058D01*
X62108531Y46845860D01*
X62121261Y46866141D01*
X62125415Y46889934D01*
X62118562Y46915276D01*
X62118372Y46915641D01*
X62101366Y46936338D01*
X62079575Y46946979D01*
X62055913Y46948440D01*
X62033298Y46941594D01*
X62014647Y46927318D01*
X62002874Y46906487D01*
X62000898Y46879974D01*
X61835530Y46879974D01*
X61835527Y46882676D01*
X61835533Y46909921D01*
X61835599Y46973914D01*
X61835786Y47026144D01*
X61835979Y47048228D01*
X61936354Y47048228D01*
X61941351Y47022191D01*
X61957290Y46998355D01*
X61969359Y46987808D01*
X61985871Y46980378D01*
X62008776Y46978492D01*
X62026524Y46979449D01*
X62044057Y46985153D01*
X62060261Y46998355D01*
X62072139Y47012335D01*
X62078533Y47028441D01*
X62080124Y47051434D01*
X62080123Y47052026D01*
X62078281Y47063623D01*
X62141234Y47063623D01*
X62142280Y47051434D01*
X62144292Y47027976D01*
X62158349Y46995861D01*
X62182375Y46969785D01*
X62215341Y46952253D01*
X62218397Y46951264D01*
X62254412Y46945737D01*
X62286840Y46953164D01*
X62316895Y46973804D01*
X62329580Y46987465D01*
X62346496Y47018871D01*
X62351927Y47056636D01*
X62347788Y47090134D01*
X62332877Y47120222D01*
X62306108Y47144777D01*
X62300268Y47148458D01*
X62267554Y47160597D01*
X62233268Y47161541D01*
X62200557Y47152098D01*
X62172566Y47133078D01*
X62152443Y47105288D01*
X62150206Y47100294D01*
X62141234Y47063623D01*
X62078281Y47063623D01*
X62075108Y47083595D01*
X62059874Y47106560D01*
X62033675Y47122056D01*
X62022339Y47125359D01*
X61995407Y47125204D01*
X61971824Y47114954D01*
X61953109Y47097069D01*
X61940779Y47074007D01*
X61936354Y47048228D01*
X61835979Y47048228D01*
X61836151Y47067940D01*
X61836754Y47100632D01*
X61837654Y47125549D01*
X61838908Y47144020D01*
X61840576Y47157375D01*
X61842716Y47166944D01*
X61845387Y47174055D01*
X61848648Y47180039D01*
X61850123Y47182364D01*
X61862438Y47197231D01*
X61874104Y47205374D01*
X61876558Y47205868D01*
X61890969Y47207937D01*
X61916207Y47211166D01*
X61950421Y47215345D01*
X61991759Y47220265D01*
X62038369Y47225713D01*
X62088397Y47231482D01*
X62139993Y47237359D01*
X62191303Y47243135D01*
X62240475Y47248599D01*
X62285658Y47253541D01*
X62324998Y47257751D01*
X62356644Y47261019D01*
X62378744Y47263134D01*
X62389444Y47263885D01*
X62390233Y47263845D01*
X62402516Y47258591D01*
X62416789Y47247207D01*
X62433468Y47230528D01*
X62433468Y47056636D01*
X62433468Y46937722D01*
G37*
%TD.AperFunction*%
%TA.AperFunction,EtchedComponent*%
G36*
X63450885Y47150596D02*
G01*
X63451448Y47085334D01*
X63451820Y47026785D01*
X63451846Y47015651D01*
X63451949Y46971453D01*
X63451846Y46921090D01*
X63451525Y46877421D01*
X63450998Y46842169D01*
X63450278Y46817058D01*
X63449377Y46803812D01*
X63447683Y46792208D01*
X63445228Y46779837D01*
X63441209Y46769741D01*
X63434305Y46761468D01*
X63423191Y46754568D01*
X63406544Y46748589D01*
X63383041Y46743079D01*
X63351359Y46737587D01*
X63310175Y46731663D01*
X63258165Y46724854D01*
X63194006Y46716709D01*
X63156192Y46711934D01*
X63103710Y46705379D01*
X63056079Y46699514D01*
X63015024Y46694545D01*
X62982271Y46690682D01*
X62959545Y46688132D01*
X62948574Y46687104D01*
X62930144Y46691168D01*
X62911266Y46702647D01*
X62892266Y46718990D01*
X62889731Y46985660D01*
X62889491Y47012431D01*
X63038119Y47012431D01*
X63042883Y46987807D01*
X63054909Y46967991D01*
X63070866Y46956706D01*
X63094843Y46951384D01*
X63118914Y46956023D01*
X63139964Y46969217D01*
X63154878Y46989562D01*
X63160541Y47015651D01*
X63160435Y47019381D01*
X63153431Y47043966D01*
X63137627Y47061675D01*
X63116049Y47071672D01*
X63091724Y47073121D01*
X63067678Y47065187D01*
X63046940Y47047032D01*
X63041206Y47036003D01*
X63038119Y47012431D01*
X62889491Y47012431D01*
X62889389Y47023756D01*
X62888956Y47090488D01*
X62888940Y47145472D01*
X62889266Y47174507D01*
X62989504Y47174507D01*
X62993278Y47147177D01*
X63007343Y47124277D01*
X63025017Y47112567D01*
X63051769Y47106841D01*
X63079698Y47110647D01*
X63104103Y47123998D01*
X63106680Y47126264D01*
X63117194Y47138350D01*
X63122013Y47152948D01*
X63122676Y47165915D01*
X63180864Y47165915D01*
X63187186Y47133153D01*
X63203595Y47103688D01*
X63230129Y47080382D01*
X63242451Y47074012D01*
X63274326Y47066685D01*
X63305539Y47070727D01*
X63333800Y47084715D01*
X63356821Y47107229D01*
X63372312Y47136848D01*
X63377984Y47172152D01*
X63377547Y47182326D01*
X63368977Y47216444D01*
X63351168Y47244123D01*
X63326371Y47263963D01*
X63296841Y47274564D01*
X63264832Y47274526D01*
X63232597Y47262450D01*
X63222031Y47255358D01*
X63198325Y47229879D01*
X63184590Y47199111D01*
X63181945Y47175549D01*
X63180864Y47165915D01*
X63122676Y47165915D01*
X63123168Y47175549D01*
X63123142Y47180324D01*
X63121492Y47201128D01*
X63115822Y47214890D01*
X63104103Y47227101D01*
X63091053Y47236085D01*
X63063428Y47244070D01*
X63035438Y47239878D01*
X63010527Y47223638D01*
X62995882Y47201984D01*
X62989504Y47174507D01*
X62889266Y47174507D01*
X62889439Y47189937D01*
X62890552Y47225109D01*
X62892377Y47252216D01*
X62895011Y47272486D01*
X62898553Y47287147D01*
X62903101Y47297424D01*
X62908752Y47304547D01*
X62915604Y47309741D01*
X62920726Y47311425D01*
X62938414Y47314978D01*
X62966353Y47319540D01*
X63002583Y47324868D01*
X63045141Y47330718D01*
X63092067Y47336847D01*
X63141398Y47343012D01*
X63191174Y47348969D01*
X63239434Y47354476D01*
X63284216Y47359288D01*
X63323559Y47363162D01*
X63355501Y47365855D01*
X63378081Y47367123D01*
X63387779Y47367304D01*
X63409176Y47366248D01*
X63423178Y47361942D01*
X63434329Y47353265D01*
X63436206Y47351354D01*
X63439737Y47347053D01*
X63442590Y47341432D01*
X63444852Y47333128D01*
X63446609Y47320776D01*
X63447950Y47303013D01*
X63448961Y47278478D01*
X63449729Y47245805D01*
X63450341Y47203632D01*
X63450664Y47172152D01*
X63450885Y47150596D01*
G37*
%TD.AperFunction*%
%TA.AperFunction,EtchedComponent*%
G36*
X62863642Y46768790D02*
G01*
X62868906Y46762808D01*
X62873367Y46754507D01*
X62876412Y46742421D01*
X62878425Y46724100D01*
X62879791Y46697091D01*
X62880896Y46658944D01*
X62881145Y46647757D01*
X62881843Y46612076D01*
X62883457Y46587654D01*
X62887776Y46572690D01*
X62896594Y46565382D01*
X62911699Y46563926D01*
X62934885Y46566521D01*
X62967943Y46571365D01*
X62991169Y46574484D01*
X63009172Y46575974D01*
X63020324Y46574558D01*
X63028202Y46569682D01*
X63036385Y46560794D01*
X63036943Y46560144D01*
X63041328Y46554614D01*
X63044753Y46548403D01*
X63047338Y46539898D01*
X63049201Y46527486D01*
X63050459Y46509551D01*
X63051232Y46484481D01*
X63051638Y46450662D01*
X63051794Y46406480D01*
X63051820Y46350321D01*
X63051837Y46323650D01*
X63051842Y46268509D01*
X63051380Y46224929D01*
X63049931Y46191477D01*
X63046975Y46166721D01*
X63041995Y46149229D01*
X63034470Y46137569D01*
X63023882Y46130309D01*
X63009712Y46126017D01*
X62991440Y46123261D01*
X62968547Y46120610D01*
X62943953Y46117872D01*
X62918123Y46116874D01*
X62901917Y46120866D01*
X62893093Y46131489D01*
X62889412Y46150388D01*
X62888634Y46179204D01*
X62888631Y46180104D01*
X62887721Y46205440D01*
X62885530Y46225901D01*
X62882517Y46237132D01*
X62882110Y46237710D01*
X62878987Y46240009D01*
X62873065Y46241427D01*
X62863162Y46241843D01*
X62848093Y46241138D01*
X62826676Y46239189D01*
X62797728Y46235877D01*
X62760066Y46231081D01*
X62712506Y46224680D01*
X62653865Y46216554D01*
X62582960Y46206581D01*
X62561410Y46203612D01*
X62528444Y46199071D01*
X62505873Y46194959D01*
X62491757Y46189809D01*
X62484155Y46182153D01*
X62481127Y46170521D01*
X62480734Y46153448D01*
X62481034Y46129463D01*
X62480988Y46118920D01*
X62479627Y46088221D01*
X62475220Y46067884D01*
X62466225Y46055408D01*
X62451096Y46048293D01*
X62428291Y46044039D01*
X62418149Y46042605D01*
X62399670Y46039611D01*
X62389300Y46037376D01*
X62386916Y46036660D01*
X62369102Y46034430D01*
X62348136Y46035030D01*
X62329569Y46038020D01*
X62318955Y46042960D01*
X62316797Y46052065D01*
X62314935Y46072733D01*
X62313401Y46102861D01*
X62312202Y46140375D01*
X62311344Y46183201D01*
X62310834Y46229265D01*
X62310678Y46276493D01*
X62310885Y46322810D01*
X62311459Y46366144D01*
X62312408Y46404419D01*
X62313739Y46435562D01*
X62315459Y46457499D01*
X62317574Y46468155D01*
X62322553Y46475682D01*
X62330718Y46481930D01*
X62344106Y46486349D01*
X62365500Y46489806D01*
X62397681Y46493170D01*
X62422363Y46496446D01*
X62443677Y46501548D01*
X62454763Y46507330D01*
X62455304Y46508074D01*
X62458401Y46518472D01*
X62459923Y46538419D01*
X62459915Y46569237D01*
X62458424Y46612247D01*
X62457784Y46626679D01*
X62456465Y46660341D01*
X62456144Y46683720D01*
X62457074Y46699263D01*
X62459507Y46709417D01*
X62463697Y46716630D01*
X62469895Y46723349D01*
X62487637Y46735079D01*
X62519008Y46743181D01*
X62522832Y46743650D01*
X62543168Y46746146D01*
X62573658Y46749891D01*
X62611752Y46754570D01*
X62654903Y46759870D01*
X62700560Y46765479D01*
X62848738Y46783685D01*
X62863642Y46768790D01*
G37*
%TD.AperFunction*%
%TD*%
D11*
%TO.P,SW4,1,1_1*%
%TO.N,GND*%
X36310000Y20070000D03*
D12*
%TO.P,SW4,2,2_2*%
%TO.N,BOOT*%
X29810000Y20070000D03*
%TD*%
D13*
%TO.P,BZ1,1,-_1*%
%TO.N,+3V3*%
X45500000Y42500000D03*
D14*
%TO.P,BZ1,2,+_2*%
%TO.N,Net-(BZ1-+)*%
X45500000Y38500000D03*
%TD*%
D15*
%TO.P,J7,4,Pin_4_4*%
%TO.N,GND*%
X73600000Y36720000D03*
%TO.P,J7,3,Pin_3_3*%
%TO.N,/SCL*%
X73600000Y39260000D03*
%TO.P,J7,2,Pin_2_2*%
%TO.N,/SDA*%
X73600000Y41800000D03*
D16*
%TO.P,J7,1,Pin_1_1*%
%TO.N,+3V3*%
X73600000Y44340000D03*
%TD*%
%TO.P,J6,1,Pin_1_1*%
%TO.N,+3V3*%
X65980000Y16420000D03*
D15*
%TO.P,J6,2,Pin_2_2*%
%TO.N,TXDO*%
X68520000Y16420000D03*
%TO.P,J6,3,Pin_3_3*%
%TO.N,RXDO*%
X71060000Y16420000D03*
%TO.P,J6,4,Pin_4_4*%
%TO.N,GND*%
X73600000Y16420000D03*
%TD*%
D16*
%TO.P,J2,1,Pin_1_1*%
%TO.N,+3V3*%
X38380000Y47875000D03*
D17*
%TO.P,J2,2,Pin_2_2*%
%TO.N,GND*%
X40920000Y47875000D03*
%TO.P,J2,3,Pin_3_3*%
%TO.N,/SCL*%
X43460000Y47875000D03*
%TO.P,J2,4,Pin_4_4*%
%TO.N,/SDA*%
X46000000Y47875000D03*
%TO.P,J2,5,Pin_5_5*%
%TO.N,unconnected-(J2-Pin_5-Pad5)*%
X48540000Y47875000D03*
%TO.P,J2,6,Pin_6_6*%
%TO.N,unconnected-(J2-Pin_6-Pad6)*%
X51080000Y47875000D03*
%TO.P,J2,7,Pin_7_7*%
%TO.N,unconnected-(J2-Pin_7-Pad7)*%
X53620000Y47875000D03*
%TO.P,J2,8,Pin_8_8*%
%TO.N,unconnected-(J2-Pin_8-Pad8)*%
X56160000Y47875000D03*
%TD*%
%TO.P,J4,2,Pin_2_2*%
%TO.N,Net-(D2-A)*%
X71060000Y48050000D03*
D16*
%TO.P,J4,1,Pin_1_1*%
%TO.N,+3V3*%
X73600000Y48050000D03*
%TD*%
D18*
%TO.P,SW1,1,A_1*%
%TO.N,+BATT*%
X53830000Y19880000D03*
%TO.P,SW1,2,B_2*%
%TO.N,Net-(SW1-B)*%
X58910000Y19880000D03*
%TD*%
%TO.P,J5,1,Pin_1_1*%
%TO.N,GND*%
X41500000Y19940000D03*
%TO.P,J5,2,Pin_2_2*%
%TO.N,+BATT*%
X46580000Y19940000D03*
%TD*%
D11*
%TO.P,SW3,1,1_1*%
%TO.N,GND*%
X24130000Y20070000D03*
D12*
%TO.P,SW3,2,2_2*%
%TO.N,EN*%
X17630000Y20070000D03*
%TD*%
D15*
%TO.P,J1,3,Pin_3_3*%
%TO.N,GND*%
X73600000Y20130000D03*
%TO.P,J1,2,Pin_2_2*%
%TO.N,+3V3*%
X73600000Y22670000D03*
D16*
%TO.P,J1,1,Pin_1_1*%
%TO.N,/Temp.*%
X73600000Y25210000D03*
%TD*%
D19*
%TO.N,/Temp.*%
X69210000Y19480000D03*
%TO.N,/SCL*%
X56310000Y38140000D03*
%TO.N,/SDA*%
X56280000Y41800000D03*
%TO.N,+3V3*%
X61400000Y25990000D03*
%TO.N,/SCL*%
X43500000Y35250000D03*
%TO.N,/Temp.*%
X39000000Y27000000D03*
%TO.N,+3V3*%
X51750000Y43250000D03*
X20200000Y18250000D03*
X38200000Y18150000D03*
X51750000Y36960000D03*
X56762500Y29350000D03*
%TO.N,/Motor*%
X60870000Y30820000D03*
X39500000Y42250000D03*
%TO.N,Net-(D2-A)*%
X68100000Y35950000D03*
%TO.N,RXDO*%
X39340000Y36750000D03*
%TO.N,TXDO*%
X64800000Y36450000D03*
X64800000Y39850000D03*
%TD*%
%TO.N,+3V3*%
D20*
X51750000Y43250000D02*
X51750000Y36960000D01*
%TO.N,/SCL*%
X56280000Y38110000D02*
X56310000Y38140000D01*
X56280000Y33990000D02*
X56280000Y38110000D01*
X44200000Y33200000D02*
X43500000Y33900000D01*
X55490000Y33200000D02*
X44200000Y33200000D01*
X43500000Y33900000D02*
X43500000Y35250000D01*
X56280000Y33990000D02*
X55490000Y33200000D01*
%TO.N,RXDO*%
X39340000Y31225000D02*
X39340000Y36750000D01*
X47875000Y29000000D02*
X41565000Y29000000D01*
X53025000Y23850000D02*
X47875000Y29000000D01*
X61320000Y23850000D02*
X53025000Y23850000D01*
X69820000Y21390000D02*
X63780000Y21390000D01*
X71060000Y20150000D02*
X69820000Y21390000D01*
X41565000Y29000000D02*
X39340000Y31225000D01*
X71060000Y16420000D02*
X71060000Y20150000D01*
X63780000Y21390000D02*
X61320000Y23850000D01*
%TO.N,+3V3*%
X71480000Y22670000D02*
X73600000Y22670000D01*
X68170000Y25980000D02*
X71480000Y22670000D01*
X61410000Y25980000D02*
X68170000Y25980000D01*
X61400000Y25990000D02*
X61410000Y25980000D01*
X59520000Y29350000D02*
X56762500Y29350000D01*
X61400000Y27470000D02*
X59520000Y29350000D01*
X61400000Y25990000D02*
X61400000Y27470000D01*
X38200000Y18150000D02*
X38160000Y18110000D01*
X20340000Y18110000D02*
X20200000Y18250000D01*
D21*
X56980000Y29695000D02*
X56640000Y29355000D01*
D20*
X38160000Y18110000D02*
X20340000Y18110000D01*
%TO.N,/Motor*%
X39500000Y42250000D02*
X40770000Y42250000D01*
X40770000Y42250000D02*
X41500000Y41520000D01*
X41500000Y31420000D02*
X42100000Y30820000D01*
X42100000Y30820000D02*
X60870000Y30820000D01*
X41500000Y41520000D02*
X41500000Y31420000D01*
%TO.N,Net-(D2-A)*%
X69430000Y48050000D02*
X71060000Y48050000D01*
X68100000Y35950000D02*
X68100000Y46720000D01*
X68100000Y46720000D02*
X69430000Y48050000D01*
%TO.N,RXDO*%
X39340000Y37000000D02*
X39280000Y37060000D01*
X39280000Y36975000D02*
X39340000Y37035000D01*
X39340000Y36750000D02*
X39340000Y37000000D01*
X39340000Y37035000D02*
X39340000Y37054000D01*
%TO.N,TXDO*%
X64800000Y39795000D02*
X64800000Y36450000D01*
%TO.N,+BATT*%
D21*
X53850000Y19880000D02*
X53530000Y19880000D01*
X53530000Y19880000D02*
X53510000Y19900000D01*
X53830000Y19900000D02*
X53850000Y19880000D01*
%TO.N,/SCL*%
D20*
X43500000Y35250000D02*
X43460000Y35290000D01*
X43460000Y35290000D02*
X43460000Y47875000D01*
%TO.N,/SDA*%
X47600000Y45000000D02*
X46000000Y46600000D01*
X56280000Y41800000D02*
X56280000Y43520000D01*
X54800000Y45000000D02*
X47600000Y45000000D01*
X56280000Y43520000D02*
X54800000Y45000000D01*
X46000000Y46600000D02*
X46000000Y47875000D01*
%TO.N,/Temp.*%
X46500000Y27000000D02*
X39000000Y27000000D01*
X51000000Y22500000D02*
X46500000Y27000000D01*
X62905000Y19470000D02*
X59875000Y22500000D01*
X59875000Y22500000D02*
X51000000Y22500000D01*
X69200000Y19470000D02*
X62905000Y19470000D01*
X69210000Y19480000D02*
X69200000Y19470000D01*
%TD*%
%TA.AperFunction,Conductor*%
%TO.N,GND*%
G36*
X72452728Y21549815D02*
G01*
X72473370Y21533181D01*
X72557345Y21449206D01*
X72557350Y21449202D01*
X72725533Y21327011D01*
X72761155Y21301130D01*
X72787020Y21287951D01*
X72818406Y21265148D01*
X73470591Y20612963D01*
X73407007Y20595925D01*
X73292993Y20530099D01*
X73199901Y20437007D01*
X73134075Y20322993D01*
X73117037Y20259409D01*
X72484728Y20891718D01*
X72484727Y20891718D01*
X72445380Y20837561D01*
X72348905Y20648219D01*
X72320009Y20559287D01*
X72280571Y20501612D01*
X72216212Y20474414D01*
X72147366Y20486329D01*
X72095890Y20533573D01*
X72084148Y20559287D01*
X72079873Y20572445D01*
X72001232Y20726788D01*
X71899414Y20866928D01*
X71776928Y20989414D01*
X71408523Y21357819D01*
X71375038Y21419142D01*
X71380022Y21488834D01*
X71421894Y21544767D01*
X71487358Y21569184D01*
X71496204Y21569500D01*
X71566611Y21569500D01*
X72385689Y21569500D01*
X72452728Y21549815D01*
G37*
%TD.AperFunction*%
%TA.AperFunction,Conductor*%
G36*
X75442539Y51979815D02*
G01*
X75488294Y51927011D01*
X75499500Y51875500D01*
X75499500Y14624500D01*
X75479815Y14557461D01*
X75427011Y14511706D01*
X75375500Y14500500D01*
X14624500Y14500500D01*
X14557461Y14520185D01*
X14511706Y14572989D01*
X14500500Y14624500D01*
X14500500Y20192935D01*
X15754500Y20192935D01*
X15754500Y19947066D01*
X15775007Y19791307D01*
X15786591Y19703323D01*
X15848895Y19470799D01*
X15850222Y19465848D01*
X15850225Y19465838D01*
X15944303Y19238715D01*
X15944307Y19238706D01*
X15949227Y19230185D01*
X16067233Y19025792D01*
X16067235Y19025789D01*
X16067236Y19025788D01*
X16216897Y18830746D01*
X16216903Y18830739D01*
X16390738Y18656904D01*
X16390745Y18656898D01*
X16505335Y18568970D01*
X16585792Y18507233D01*
X16798708Y18384306D01*
X17025847Y18290222D01*
X17263323Y18226591D01*
X17507073Y18194500D01*
X17507080Y18194500D01*
X17752920Y18194500D01*
X17752927Y18194500D01*
X17996677Y18226591D01*
X18234153Y18290222D01*
X18428048Y18370537D01*
X18497516Y18378005D01*
X18559996Y18346730D01*
X18595648Y18286641D01*
X18599500Y18255975D01*
X18599500Y18124038D01*
X18626303Y17954814D01*
X18638910Y17875215D01*
X18716760Y17635617D01*
X18795413Y17481253D01*
X18825198Y17422797D01*
X18831132Y17411152D01*
X18979201Y17207351D01*
X18979205Y17207346D01*
X19157345Y17029206D01*
X19157350Y17029202D01*
X19294984Y16929206D01*
X19361155Y16881130D01*
X19504184Y16808253D01*
X19585616Y16766761D01*
X19585618Y16766761D01*
X19585621Y16766759D01*
X19825215Y16688910D01*
X20074038Y16649500D01*
X20074039Y16649500D01*
X20325961Y16649500D01*
X20325962Y16649500D01*
X20574785Y16688910D01*
X20814379Y16766759D01*
X21038845Y16881130D01*
X21165543Y16973181D01*
X21182937Y16985818D01*
X21248743Y17009298D01*
X21255822Y17009500D01*
X37025689Y17009500D01*
X37092728Y16989815D01*
X37113370Y16973181D01*
X37157345Y16929206D01*
X37157350Y16929202D01*
X37223512Y16881133D01*
X37361155Y16781130D01*
X37504184Y16708253D01*
X37585616Y16666761D01*
X37585618Y16666761D01*
X37585621Y16666759D01*
X37825215Y16588910D01*
X38074038Y16549500D01*
X38074039Y16549500D01*
X38325961Y16549500D01*
X38325962Y16549500D01*
X38574785Y16588910D01*
X38814379Y16666759D01*
X39038845Y16781130D01*
X39242656Y16929207D01*
X39420793Y17107344D01*
X39568870Y17311155D01*
X39683241Y17535621D01*
X39761090Y17775215D01*
X39800500Y18024038D01*
X39800500Y18275962D01*
X39761090Y18524785D01*
X39750249Y18558149D01*
X39683239Y18764384D01*
X39624887Y18878905D01*
X39568870Y18988845D01*
X39542029Y19025788D01*
X39420798Y19192650D01*
X39420794Y19192655D01*
X39242654Y19370795D01*
X39242649Y19370799D01*
X39038848Y19518868D01*
X39038847Y19518869D01*
X39038845Y19518870D01*
X38948090Y19565112D01*
X38814383Y19633240D01*
X38574785Y19711090D01*
X38570119Y19711829D01*
X38325962Y19750500D01*
X38074038Y19750500D01*
X38074031Y19750500D01*
X38069174Y19750118D01*
X38069039Y19751824D01*
X38007096Y19759841D01*
X37969331Y19785669D01*
X37935000Y19820000D01*
X36910001Y19820000D01*
X36935021Y19880402D01*
X36960000Y20005981D01*
X36960000Y20054695D01*
X39750000Y20054695D01*
X39750000Y19825306D01*
X39750001Y19825290D01*
X39779942Y19597863D01*
X39839318Y19376270D01*
X39927102Y19164341D01*
X39927106Y19164331D01*
X40041799Y18965676D01*
X40041805Y18965669D01*
X40098381Y18891936D01*
X40898958Y19692513D01*
X40923978Y19632110D01*
X40995112Y19525649D01*
X41085649Y19435112D01*
X41192110Y19363978D01*
X41252511Y19338959D01*
X40451934Y18538383D01*
X40451934Y18538382D01*
X40525666Y18481806D01*
X40724330Y18367107D01*
X40724340Y18367103D01*
X40936269Y18279319D01*
X41157862Y18219943D01*
X41385289Y18190002D01*
X41385306Y18190000D01*
X41614694Y18190000D01*
X41614710Y18190002D01*
X41842137Y18219943D01*
X42063730Y18279319D01*
X42275659Y18367103D01*
X42275668Y18367107D01*
X42474327Y18481803D01*
X42474334Y18481808D01*
X42548064Y18538383D01*
X41747488Y19338959D01*
X41807890Y19363978D01*
X41914351Y19435112D01*
X42004888Y19525649D01*
X42076022Y19632110D01*
X42101041Y19692512D01*
X42901617Y18891936D01*
X42958192Y18965666D01*
X42958197Y18965673D01*
X43072893Y19164332D01*
X43072897Y19164341D01*
X43160681Y19376270D01*
X43220057Y19597863D01*
X43249998Y19825290D01*
X43250000Y19825306D01*
X43250000Y20054695D01*
X43249999Y20054709D01*
X43249435Y20058993D01*
X43249435Y20058994D01*
X43247837Y20071128D01*
X44579500Y20071128D01*
X44579500Y19808873D01*
X44604516Y19618870D01*
X44613730Y19548884D01*
X44677073Y19312484D01*
X44681602Y19295582D01*
X44681605Y19295572D01*
X44781953Y19053310D01*
X44781958Y19053300D01*
X44913075Y18826197D01*
X45072718Y18618149D01*
X45072726Y18618140D01*
X45258140Y18432726D01*
X45258148Y18432719D01*
X45466196Y18273076D01*
X45693299Y18141959D01*
X45693309Y18141954D01*
X45935571Y18041606D01*
X45935581Y18041602D01*
X46188884Y17973730D01*
X46448880Y17939500D01*
X46448887Y17939500D01*
X46711113Y17939500D01*
X46711120Y17939500D01*
X46971116Y17973730D01*
X47224419Y18041602D01*
X47466697Y18141957D01*
X47693803Y18273076D01*
X47901851Y18432718D01*
X47901855Y18432723D01*
X47901860Y18432726D01*
X48087274Y18618140D01*
X48087277Y18618145D01*
X48087282Y18618149D01*
X48246924Y18826197D01*
X48378043Y19053303D01*
X48478398Y19295581D01*
X48546270Y19548884D01*
X48580500Y19808880D01*
X48580500Y20071120D01*
X48546270Y20331116D01*
X48478398Y20584419D01*
X48424032Y20715670D01*
X48378046Y20826691D01*
X48378041Y20826701D01*
X48246924Y21053804D01*
X48087281Y21261852D01*
X48087274Y21261860D01*
X47901860Y21447274D01*
X47901851Y21447282D01*
X47693803Y21606925D01*
X47466700Y21738042D01*
X47466690Y21738047D01*
X47224428Y21838395D01*
X47224421Y21838397D01*
X47224419Y21838398D01*
X46971116Y21906270D01*
X46913339Y21913877D01*
X46711127Y21940500D01*
X46711120Y21940500D01*
X46448880Y21940500D01*
X46448872Y21940500D01*
X46217772Y21910074D01*
X46188884Y21906270D01*
X45978052Y21849778D01*
X45935581Y21838398D01*
X45935571Y21838395D01*
X45693309Y21738047D01*
X45693299Y21738042D01*
X45466196Y21606925D01*
X45258148Y21447282D01*
X45072718Y21261852D01*
X44913075Y21053804D01*
X44781958Y20826701D01*
X44781953Y20826691D01*
X44681605Y20584429D01*
X44681602Y20584419D01*
X44652127Y20474414D01*
X44613730Y20331115D01*
X44579500Y20071128D01*
X43247837Y20071128D01*
X43220057Y20282138D01*
X43160681Y20503731D01*
X43072897Y20715660D01*
X43072893Y20715670D01*
X42958194Y20914334D01*
X42901618Y20988066D01*
X42901617Y20988066D01*
X42101041Y20187490D01*
X42076022Y20247890D01*
X42004888Y20354351D01*
X41914351Y20444888D01*
X41807890Y20516022D01*
X41747487Y20541043D01*
X42548064Y21341619D01*
X42548064Y21341620D01*
X42474331Y21398195D01*
X42474324Y21398201D01*
X42275669Y21512894D01*
X42275659Y21512898D01*
X42063730Y21600682D01*
X41842137Y21660058D01*
X41614710Y21689999D01*
X41614694Y21690000D01*
X41385306Y21690000D01*
X41385289Y21689999D01*
X41157862Y21660058D01*
X40936269Y21600682D01*
X40724340Y21512898D01*
X40724330Y21512894D01*
X40525673Y21398199D01*
X40525659Y21398190D01*
X40451934Y21341620D01*
X41252511Y20541042D01*
X41192110Y20516022D01*
X41085649Y20444888D01*
X40995112Y20354351D01*
X40923978Y20247890D01*
X40898958Y20187489D01*
X40098380Y20988066D01*
X40041810Y20914341D01*
X40041801Y20914327D01*
X39927106Y20715670D01*
X39927102Y20715660D01*
X39839318Y20503731D01*
X39779942Y20282138D01*
X39750001Y20054711D01*
X39750000Y20054695D01*
X36960000Y20054695D01*
X36960000Y20134019D01*
X36935021Y20259598D01*
X36910001Y20320000D01*
X37935000Y20320000D01*
X37935000Y21242828D01*
X37934999Y21242845D01*
X37930960Y21280410D01*
X37928598Y21302374D01*
X37928596Y21302380D01*
X37878354Y21437087D01*
X37878350Y21437094D01*
X37792190Y21552188D01*
X37792187Y21552191D01*
X37677093Y21638351D01*
X37677086Y21638355D01*
X37542379Y21688597D01*
X37542372Y21688599D01*
X37482844Y21695000D01*
X36560000Y21695000D01*
X36560000Y20670002D01*
X36499598Y20695021D01*
X36374019Y20720000D01*
X36245981Y20720000D01*
X36120402Y20695021D01*
X36060000Y20670002D01*
X36060000Y21695000D01*
X35137155Y21695000D01*
X35077627Y21688599D01*
X35077620Y21688597D01*
X34942913Y21638355D01*
X34942906Y21638351D01*
X34827812Y21552191D01*
X34827809Y21552188D01*
X34741649Y21437094D01*
X34741645Y21437087D01*
X34691403Y21302380D01*
X34691401Y21302373D01*
X34685000Y21242845D01*
X34685000Y20320000D01*
X35709999Y20320000D01*
X35684979Y20259598D01*
X35660000Y20134019D01*
X35660000Y20005981D01*
X35684979Y19880402D01*
X35709999Y19820000D01*
X34685000Y19820000D01*
X34685000Y19334500D01*
X34665315Y19267461D01*
X34612511Y19221706D01*
X34561000Y19210500D01*
X31669589Y19210500D01*
X31602550Y19230185D01*
X31556795Y19282989D01*
X31546851Y19352147D01*
X31555028Y19381953D01*
X31556557Y19385646D01*
X31589778Y19465847D01*
X31653409Y19703323D01*
X31685500Y19947073D01*
X31685500Y20192927D01*
X31653409Y20436677D01*
X31589778Y20674153D01*
X31495694Y20901292D01*
X31372767Y21114208D01*
X31223101Y21309256D01*
X31223099Y21309258D01*
X31223096Y21309262D01*
X31049261Y21483097D01*
X31049254Y21483103D01*
X30854212Y21632764D01*
X30854211Y21632765D01*
X30854208Y21632767D01*
X30671866Y21738042D01*
X30641294Y21755693D01*
X30641285Y21755697D01*
X30414162Y21849775D01*
X30414155Y21849777D01*
X30414153Y21849778D01*
X30176677Y21913409D01*
X30135939Y21918773D01*
X29932934Y21945500D01*
X29932927Y21945500D01*
X29687073Y21945500D01*
X29687065Y21945500D01*
X29455059Y21914955D01*
X29443323Y21913409D01*
X29416680Y21906270D01*
X29205847Y21849778D01*
X29205837Y21849775D01*
X28978714Y21755697D01*
X28978705Y21755693D01*
X28765787Y21632764D01*
X28570745Y21483103D01*
X28570738Y21483097D01*
X28396903Y21309262D01*
X28396897Y21309255D01*
X28247236Y21114213D01*
X28124307Y20901295D01*
X28124303Y20901286D01*
X28030225Y20674163D01*
X28030222Y20674153D01*
X27966680Y20437007D01*
X27966592Y20436680D01*
X27966590Y20436669D01*
X27934500Y20192935D01*
X27934500Y19947066D01*
X27955007Y19791307D01*
X27966591Y19703323D01*
X28028895Y19470799D01*
X28030222Y19465848D01*
X28030225Y19465838D01*
X28064972Y19381953D01*
X28072441Y19312484D01*
X28041166Y19250004D01*
X27981077Y19214352D01*
X27950411Y19210500D01*
X25879000Y19210500D01*
X25811961Y19230185D01*
X25766206Y19282989D01*
X25755000Y19334500D01*
X25755000Y19820000D01*
X24730001Y19820000D01*
X24755021Y19880402D01*
X24780000Y20005981D01*
X24780000Y20134019D01*
X24755021Y20259598D01*
X24730001Y20320000D01*
X25755000Y20320000D01*
X25755000Y21242828D01*
X25754999Y21242845D01*
X25748598Y21302373D01*
X25748596Y21302380D01*
X25698354Y21437087D01*
X25698350Y21437094D01*
X25612190Y21552188D01*
X25612187Y21552191D01*
X25497093Y21638351D01*
X25497086Y21638355D01*
X25362379Y21688597D01*
X25362372Y21688599D01*
X25302844Y21695000D01*
X24380000Y21695000D01*
X24380000Y20670002D01*
X24319598Y20695021D01*
X24194019Y20720000D01*
X24065981Y20720000D01*
X23940402Y20695021D01*
X23880000Y20670002D01*
X23880000Y21695000D01*
X22957155Y21695000D01*
X22897627Y21688599D01*
X22897620Y21688597D01*
X22762913Y21638355D01*
X22762906Y21638351D01*
X22647812Y21552191D01*
X22647809Y21552188D01*
X22561649Y21437094D01*
X22561645Y21437087D01*
X22511403Y21302380D01*
X22511401Y21302373D01*
X22505000Y21242845D01*
X22505000Y20320000D01*
X23529999Y20320000D01*
X23504979Y20259598D01*
X23480000Y20134019D01*
X23480000Y20005981D01*
X23504979Y19880402D01*
X23529999Y19820000D01*
X22505000Y19820000D01*
X22505000Y19334500D01*
X22485315Y19267461D01*
X22432511Y19221706D01*
X22381000Y19210500D01*
X21543664Y19210500D01*
X21476625Y19230185D01*
X21443346Y19261614D01*
X21439098Y19267461D01*
X21420793Y19292656D01*
X21242656Y19470793D01*
X21242654Y19470795D01*
X21242649Y19470799D01*
X21038848Y19618868D01*
X21038847Y19618869D01*
X21038845Y19618870D01*
X20950125Y19664075D01*
X20814383Y19733240D01*
X20574785Y19811090D01*
X20485029Y19825306D01*
X20325962Y19850500D01*
X20074038Y19850500D01*
X19991097Y19837364D01*
X19825213Y19811090D01*
X19825210Y19811090D01*
X19659419Y19757221D01*
X19589577Y19755226D01*
X19529745Y19791307D01*
X19498917Y19854008D01*
X19498162Y19891338D01*
X19500377Y19908158D01*
X19505500Y19947073D01*
X19505500Y20192927D01*
X19473409Y20436677D01*
X19409778Y20674153D01*
X19315694Y20901292D01*
X19192767Y21114208D01*
X19043101Y21309256D01*
X19043099Y21309258D01*
X19043096Y21309262D01*
X18869261Y21483097D01*
X18869254Y21483103D01*
X18674212Y21632764D01*
X18674211Y21632765D01*
X18674208Y21632767D01*
X18491866Y21738042D01*
X18461294Y21755693D01*
X18461285Y21755697D01*
X18234162Y21849775D01*
X18234155Y21849777D01*
X18234153Y21849778D01*
X17996677Y21913409D01*
X17955939Y21918773D01*
X17752934Y21945500D01*
X17752927Y21945500D01*
X17507073Y21945500D01*
X17507065Y21945500D01*
X17275059Y21914955D01*
X17263323Y21913409D01*
X17236680Y21906270D01*
X17025847Y21849778D01*
X17025837Y21849775D01*
X16798714Y21755697D01*
X16798705Y21755693D01*
X16585787Y21632764D01*
X16390745Y21483103D01*
X16390738Y21483097D01*
X16216903Y21309262D01*
X16216897Y21309255D01*
X16067236Y21114213D01*
X15944307Y20901295D01*
X15944303Y20901286D01*
X15850225Y20674163D01*
X15850222Y20674153D01*
X15786680Y20437007D01*
X15786592Y20436680D01*
X15786590Y20436669D01*
X15754500Y20192935D01*
X14500500Y20192935D01*
X14500500Y42956770D01*
X18268230Y42956770D01*
X36280000Y42956770D01*
X36280000Y48775017D01*
X36779500Y48775017D01*
X36779500Y46974999D01*
X36779501Y46974982D01*
X36790000Y46872204D01*
X36790001Y46872201D01*
X36836677Y46731344D01*
X36845186Y46705666D01*
X36937288Y46556344D01*
X37061344Y46432288D01*
X37210666Y46340186D01*
X37377203Y46285001D01*
X37479991Y46274500D01*
X39280008Y46274501D01*
X39382797Y46285001D01*
X39549334Y46340186D01*
X39698656Y46432288D01*
X39788409Y46522041D01*
X39849732Y46555526D01*
X39919424Y46550542D01*
X39963771Y46522041D01*
X40040535Y46445277D01*
X40040540Y46445273D01*
X40212442Y46320380D01*
X40401782Y46223905D01*
X40603871Y46158243D01*
X40670000Y46147769D01*
X40670000Y47441988D01*
X40727007Y47409075D01*
X40854174Y47375000D01*
X40985826Y47375000D01*
X41112993Y47409075D01*
X41170000Y47441988D01*
X41170000Y46147770D01*
X41236126Y46158243D01*
X41236129Y46158243D01*
X41438217Y46223905D01*
X41627557Y46320380D01*
X41799458Y46445272D01*
X41946055Y46591869D01*
X42007379Y46625354D01*
X42077070Y46620370D01*
X42133004Y46578499D01*
X42134055Y46577073D01*
X42239201Y46432351D01*
X42239205Y46432346D01*
X42323181Y46348370D01*
X42356666Y46287047D01*
X42359500Y46260689D01*
X42359500Y42516204D01*
X42339815Y42449165D01*
X42287011Y42403410D01*
X42217853Y42393466D01*
X42154297Y42422491D01*
X42147819Y42428523D01*
X41486930Y43089412D01*
X41486928Y43089414D01*
X41346788Y43191232D01*
X41290792Y43219763D01*
X41192447Y43269872D01*
X41192446Y43269873D01*
X41192445Y43269873D01*
X41027701Y43323402D01*
X41027699Y43323403D01*
X41027698Y43323403D01*
X40886178Y43345817D01*
X40856611Y43350500D01*
X40856610Y43350500D01*
X40714311Y43350500D01*
X40647272Y43370185D01*
X40626630Y43386819D01*
X40542654Y43470795D01*
X40542649Y43470799D01*
X40338848Y43618868D01*
X40338847Y43618869D01*
X40338845Y43618870D01*
X40262368Y43657837D01*
X40114383Y43733240D01*
X39874785Y43811090D01*
X39794462Y43823812D01*
X39625962Y43850500D01*
X39374038Y43850500D01*
X39249626Y43830795D01*
X39125214Y43811090D01*
X38885616Y43733240D01*
X38661151Y43618868D01*
X38457350Y43470799D01*
X38457345Y43470795D01*
X38279205Y43292655D01*
X38279201Y43292650D01*
X38131132Y43088849D01*
X38016760Y42864384D01*
X37938910Y42624786D01*
X37905585Y42414384D01*
X37899500Y42375962D01*
X37899500Y42124038D01*
X37913493Y42035689D01*
X37938910Y41875215D01*
X38016760Y41635617D01*
X38131132Y41411152D01*
X38279201Y41207351D01*
X38279205Y41207346D01*
X38457345Y41029206D01*
X38457350Y41029202D01*
X38582474Y40938295D01*
X38661155Y40881130D01*
X38780794Y40820171D01*
X38885616Y40766761D01*
X38885618Y40766761D01*
X38885621Y40766759D01*
X39125215Y40688910D01*
X39374038Y40649500D01*
X39374039Y40649500D01*
X39625961Y40649500D01*
X39625962Y40649500D01*
X39874785Y40688910D01*
X40114379Y40766759D01*
X40219206Y40820172D01*
X40287874Y40833067D01*
X40352614Y40806791D01*
X40392872Y40749685D01*
X40399500Y40709686D01*
X40399500Y38201919D01*
X40379815Y38134880D01*
X40327011Y38089125D01*
X40257853Y38079181D01*
X40202615Y38101601D01*
X40178849Y38118868D01*
X39954383Y38233240D01*
X39714785Y38311090D01*
X39465962Y38350500D01*
X39214038Y38350500D01*
X39089626Y38330795D01*
X38965214Y38311090D01*
X38725616Y38233240D01*
X38501151Y38118868D01*
X38297350Y37970799D01*
X38297345Y37970795D01*
X38119205Y37792655D01*
X38119201Y37792650D01*
X37971132Y37588849D01*
X37856760Y37364384D01*
X37778910Y37124786D01*
X37757982Y36992650D01*
X37739500Y36875962D01*
X37739500Y36624038D01*
X37745649Y36585215D01*
X37778910Y36375215D01*
X37856760Y36135617D01*
X37971132Y35911152D01*
X38119201Y35707351D01*
X38119205Y35707346D01*
X38203181Y35623370D01*
X38236666Y35562047D01*
X38239500Y35535689D01*
X38239500Y31311611D01*
X38239500Y31138389D01*
X38266598Y30967299D01*
X38320127Y30802555D01*
X38398768Y30648212D01*
X38500586Y30508072D01*
X38500588Y30508070D01*
X40696477Y28312181D01*
X40729962Y28250858D01*
X40724978Y28181166D01*
X40683106Y28125233D01*
X40617642Y28100816D01*
X40608796Y28100500D01*
X40214311Y28100500D01*
X40147272Y28120185D01*
X40126630Y28136819D01*
X40042654Y28220795D01*
X40042649Y28220799D01*
X39838848Y28368868D01*
X39838847Y28368869D01*
X39838845Y28368870D01*
X39768747Y28404587D01*
X39614383Y28483240D01*
X39374785Y28561090D01*
X39125962Y28600500D01*
X38874038Y28600500D01*
X38749626Y28580795D01*
X38625214Y28561090D01*
X38385616Y28483240D01*
X38161151Y28368868D01*
X37957350Y28220799D01*
X37957345Y28220795D01*
X37779205Y28042655D01*
X37779201Y28042650D01*
X37631132Y27838849D01*
X37516760Y27614384D01*
X37438910Y27374786D01*
X37399500Y27125962D01*
X37399500Y26874039D01*
X37438910Y26625215D01*
X37516760Y26385617D01*
X37631132Y26161152D01*
X37779201Y25957351D01*
X37779205Y25957346D01*
X37957345Y25779206D01*
X37957350Y25779202D01*
X38135117Y25650048D01*
X38161155Y25631130D01*
X38304184Y25558253D01*
X38385616Y25516761D01*
X38385618Y25516761D01*
X38385621Y25516759D01*
X38625215Y25438910D01*
X38874038Y25399500D01*
X38874039Y25399500D01*
X39125961Y25399500D01*
X39125962Y25399500D01*
X39374785Y25438910D01*
X39614379Y25516759D01*
X39838845Y25631130D01*
X40042656Y25779207D01*
X40126630Y25863181D01*
X40187953Y25896666D01*
X40214311Y25899500D01*
X45992796Y25899500D01*
X46059835Y25879815D01*
X46080477Y25863181D01*
X50160586Y21783072D01*
X50283072Y21660586D01*
X50423212Y21558768D01*
X50577555Y21480127D01*
X50742299Y21426598D01*
X50913389Y21399500D01*
X52222933Y21399500D01*
X52289972Y21379815D01*
X52335727Y21327011D01*
X52345671Y21257853D01*
X52321308Y21200015D01*
X52298786Y21170662D01*
X52163075Y20993804D01*
X52031958Y20766701D01*
X52031953Y20766691D01*
X51931605Y20524429D01*
X51931602Y20524419D01*
X51866684Y20282138D01*
X51863730Y20271115D01*
X51829500Y20011128D01*
X51829500Y19748873D01*
X51850885Y19586447D01*
X51863730Y19488884D01*
X51930764Y19238708D01*
X51931602Y19235582D01*
X51931605Y19235572D01*
X52031953Y18993310D01*
X52031958Y18993300D01*
X52163075Y18766197D01*
X52322718Y18558149D01*
X52322726Y18558140D01*
X52508140Y18372726D01*
X52508148Y18372719D01*
X52508149Y18372718D01*
X52537997Y18349815D01*
X52716196Y18213076D01*
X52943299Y18081959D01*
X52943309Y18081954D01*
X53172754Y17986915D01*
X53185581Y17981602D01*
X53438884Y17913730D01*
X53698880Y17879500D01*
X53698887Y17879500D01*
X53961113Y17879500D01*
X53961120Y17879500D01*
X54221116Y17913730D01*
X54474419Y17981602D01*
X54716697Y18081957D01*
X54943803Y18213076D01*
X55151851Y18372718D01*
X55151855Y18372723D01*
X55151860Y18372726D01*
X55337274Y18558140D01*
X55337277Y18558145D01*
X55337282Y18558149D01*
X55496924Y18766197D01*
X55628043Y18993303D01*
X55728398Y19235581D01*
X55796270Y19488884D01*
X55830500Y19748880D01*
X55830500Y20011120D01*
X55796270Y20271116D01*
X55728398Y20524419D01*
X55703541Y20584429D01*
X55628046Y20766691D01*
X55628041Y20766701D01*
X55496924Y20993804D01*
X55361214Y21170662D01*
X55338691Y21200014D01*
X55313497Y21265182D01*
X55327535Y21333627D01*
X55376349Y21383617D01*
X55437067Y21399500D01*
X57302933Y21399500D01*
X57369972Y21379815D01*
X57415727Y21327011D01*
X57425671Y21257853D01*
X57401308Y21200015D01*
X57378786Y21170662D01*
X57243075Y20993804D01*
X57111958Y20766701D01*
X57111953Y20766691D01*
X57011605Y20524429D01*
X57011602Y20524419D01*
X56946684Y20282138D01*
X56943730Y20271115D01*
X56909500Y20011128D01*
X56909500Y19748873D01*
X56930885Y19586447D01*
X56943730Y19488884D01*
X57010764Y19238708D01*
X57011602Y19235582D01*
X57011605Y19235572D01*
X57111953Y18993310D01*
X57111958Y18993300D01*
X57243075Y18766197D01*
X57402718Y18558149D01*
X57402726Y18558140D01*
X57588140Y18372726D01*
X57588148Y18372719D01*
X57588149Y18372718D01*
X57617997Y18349815D01*
X57796196Y18213076D01*
X58023299Y18081959D01*
X58023309Y18081954D01*
X58252754Y17986915D01*
X58265581Y17981602D01*
X58518884Y17913730D01*
X58778880Y17879500D01*
X58778887Y17879500D01*
X59041113Y17879500D01*
X59041120Y17879500D01*
X59301116Y17913730D01*
X59554419Y17981602D01*
X59796697Y18081957D01*
X60023803Y18213076D01*
X60231851Y18372718D01*
X60231855Y18372723D01*
X60231860Y18372726D01*
X60417274Y18558140D01*
X60417277Y18558145D01*
X60417282Y18558149D01*
X60576924Y18766197D01*
X60708043Y18993303D01*
X60808398Y19235581D01*
X60876270Y19488884D01*
X60896209Y19640335D01*
X60924476Y19704230D01*
X60982800Y19742701D01*
X61052665Y19743532D01*
X61106829Y19711829D01*
X62065586Y18753072D01*
X62188072Y18630586D01*
X62328212Y18528768D01*
X62482555Y18450127D01*
X62647299Y18396598D01*
X62818389Y18369500D01*
X68005689Y18369500D01*
X68031074Y18362046D01*
X68057265Y18358265D01*
X68067011Y18351494D01*
X68072728Y18349815D01*
X68086945Y18339167D01*
X68090258Y18336293D01*
X68167344Y18259207D01*
X68239801Y18206564D01*
X68243846Y18203055D01*
X68259945Y18177973D01*
X68278141Y18154376D01*
X68278612Y18148890D01*
X68281587Y18144255D01*
X68281569Y18114454D01*
X68284120Y18084763D01*
X68281550Y18079893D01*
X68281547Y18074385D01*
X68265419Y18049323D01*
X68251514Y18022968D01*
X68246719Y18020261D01*
X68243739Y18015629D01*
X68216623Y18003265D01*
X68190676Y17988611D01*
X68181990Y17986915D01*
X68145212Y17981090D01*
X67905616Y17903240D01*
X67681151Y17788868D01*
X67588062Y17721235D01*
X67522256Y17697755D01*
X67454202Y17713581D01*
X67427496Y17733872D01*
X67298657Y17862711D01*
X67298656Y17862712D01*
X67174162Y17939500D01*
X67149336Y17954813D01*
X67149331Y17954815D01*
X67092246Y17973731D01*
X66982797Y18009999D01*
X66982795Y18010000D01*
X66880010Y18020500D01*
X65079998Y18020500D01*
X65079981Y18020499D01*
X64977203Y18010000D01*
X64977200Y18009999D01*
X64810668Y17954815D01*
X64810663Y17954813D01*
X64661342Y17862711D01*
X64537289Y17738658D01*
X64445187Y17589337D01*
X64445185Y17589332D01*
X64417349Y17505330D01*
X64390001Y17422797D01*
X64390001Y17422796D01*
X64390000Y17422796D01*
X64379500Y17320017D01*
X64379500Y15519999D01*
X64379501Y15519982D01*
X64390000Y15417204D01*
X64390001Y15417201D01*
X64427271Y15304730D01*
X64445186Y15250666D01*
X64537288Y15101344D01*
X64661344Y14977288D01*
X64810666Y14885186D01*
X64977203Y14830001D01*
X65079991Y14819500D01*
X66880008Y14819501D01*
X66982797Y14830001D01*
X67149334Y14885186D01*
X67298656Y14977288D01*
X67422712Y15101344D01*
X67422715Y15101350D01*
X67427495Y15106129D01*
X67488818Y15139614D01*
X67558510Y15134630D01*
X67588058Y15118769D01*
X67681155Y15051130D01*
X67787206Y14997095D01*
X67905616Y14936761D01*
X67905618Y14936761D01*
X67905621Y14936759D01*
X68145215Y14858910D01*
X68394038Y14819500D01*
X68394039Y14819500D01*
X68645961Y14819500D01*
X68645962Y14819500D01*
X68894785Y14858910D01*
X69134379Y14936759D01*
X69358845Y15051130D01*
X69562656Y15199207D01*
X69702319Y15338870D01*
X69763642Y15372355D01*
X69833334Y15367371D01*
X69877681Y15338870D01*
X70017345Y15199206D01*
X70017350Y15199202D01*
X70195117Y15070048D01*
X70221155Y15051130D01*
X70364184Y14978253D01*
X70445616Y14936761D01*
X70445618Y14936761D01*
X70445621Y14936759D01*
X70685215Y14858910D01*
X70934038Y14819500D01*
X70934039Y14819500D01*
X71185961Y14819500D01*
X71185962Y14819500D01*
X71434785Y14858910D01*
X71674379Y14936759D01*
X71898845Y15051130D01*
X72102656Y15199207D01*
X72280793Y15377344D01*
X72428870Y15581155D01*
X72445769Y15614323D01*
X72450416Y15621068D01*
X72454899Y15624709D01*
X72464854Y15638410D01*
X73117037Y16290592D01*
X73134075Y16227007D01*
X73199901Y16112993D01*
X73292993Y16019901D01*
X73407007Y15954075D01*
X73470590Y15937038D01*
X72838282Y15304731D01*
X72838282Y15304730D01*
X72892449Y15265376D01*
X73081782Y15168905D01*
X73283870Y15103243D01*
X73493754Y15070000D01*
X73706246Y15070000D01*
X73916127Y15103243D01*
X73916130Y15103243D01*
X74118217Y15168905D01*
X74307554Y15265378D01*
X74361716Y15304730D01*
X74361717Y15304730D01*
X73729408Y15937038D01*
X73792993Y15954075D01*
X73907007Y16019901D01*
X74000099Y16112993D01*
X74065925Y16227007D01*
X74082962Y16290592D01*
X74715270Y15658283D01*
X74715270Y15658284D01*
X74754622Y15712446D01*
X74851095Y15901783D01*
X74916757Y16103870D01*
X74916757Y16103873D01*
X74950000Y16313754D01*
X74950000Y16526247D01*
X74916757Y16736128D01*
X74916757Y16736131D01*
X74851095Y16938218D01*
X74754624Y17127551D01*
X74715270Y17181718D01*
X74715269Y17181718D01*
X74082962Y16549410D01*
X74065925Y16612993D01*
X74000099Y16727007D01*
X73907007Y16820099D01*
X73792993Y16885925D01*
X73729409Y16902963D01*
X74361716Y17535272D01*
X74307550Y17574625D01*
X74118217Y17671096D01*
X73916129Y17736758D01*
X73706246Y17770000D01*
X73493754Y17770000D01*
X73283872Y17736758D01*
X73283869Y17736758D01*
X73081782Y17671096D01*
X72892439Y17574620D01*
X72838282Y17535273D01*
X72838282Y17535272D01*
X73470591Y16902963D01*
X73407007Y16885925D01*
X73292993Y16820099D01*
X73199901Y16727007D01*
X73134075Y16612993D01*
X73117037Y16549409D01*
X72464852Y17201594D01*
X72450414Y17218936D01*
X72445767Y17225683D01*
X72428870Y17258845D01*
X72280793Y17462656D01*
X72194425Y17549024D01*
X72192167Y17551543D01*
X72178521Y17580141D01*
X72163334Y17607953D01*
X72162776Y17613135D01*
X72162077Y17614601D01*
X72162370Y17616917D01*
X72160500Y17634311D01*
X72160500Y19465051D01*
X72180185Y19532090D01*
X72232989Y19577845D01*
X72302147Y19587789D01*
X72365703Y19558764D01*
X72394985Y19521346D01*
X72445375Y19422450D01*
X72484728Y19368284D01*
X73117037Y20000592D01*
X73134075Y19937007D01*
X73199901Y19822993D01*
X73292993Y19729901D01*
X73407007Y19664075D01*
X73470590Y19647038D01*
X72838282Y19014731D01*
X72838282Y19014730D01*
X72892449Y18975376D01*
X73081782Y18878905D01*
X73283870Y18813243D01*
X73493754Y18780000D01*
X73706246Y18780000D01*
X73916127Y18813243D01*
X73916130Y18813243D01*
X74118217Y18878905D01*
X74307554Y18975378D01*
X74361716Y19014730D01*
X74361717Y19014730D01*
X73729408Y19647038D01*
X73792993Y19664075D01*
X73907007Y19729901D01*
X74000099Y19822993D01*
X74065925Y19937007D01*
X74082962Y20000592D01*
X74715270Y19368283D01*
X74715270Y19368284D01*
X74754622Y19422446D01*
X74851095Y19611783D01*
X74916757Y19813870D01*
X74916757Y19813873D01*
X74950000Y20023754D01*
X74950000Y20236247D01*
X74916757Y20446128D01*
X74916757Y20446131D01*
X74851095Y20648218D01*
X74754624Y20837551D01*
X74715270Y20891718D01*
X74715269Y20891718D01*
X74082962Y20259410D01*
X74065925Y20322993D01*
X74000099Y20437007D01*
X73907007Y20530099D01*
X73792993Y20595925D01*
X73729409Y20612963D01*
X74381590Y21265146D01*
X74412976Y21287950D01*
X74438845Y21301130D01*
X74601275Y21419142D01*
X74642650Y21449202D01*
X74642652Y21449205D01*
X74642656Y21449207D01*
X74820793Y21627344D01*
X74968870Y21831155D01*
X75083241Y22055621D01*
X75161090Y22295215D01*
X75200500Y22544038D01*
X75200500Y22795962D01*
X75161090Y23044785D01*
X75083241Y23284379D01*
X75083239Y23284382D01*
X75083239Y23284384D01*
X74968869Y23508846D01*
X74901233Y23601940D01*
X74877754Y23667743D01*
X74893579Y23735797D01*
X74913871Y23762505D01*
X74918650Y23767285D01*
X74918656Y23767288D01*
X75042712Y23891344D01*
X75134814Y24040666D01*
X75189999Y24207203D01*
X75200500Y24309991D01*
X75200499Y26110008D01*
X75189999Y26212797D01*
X75134814Y26379334D01*
X75042712Y26528656D01*
X74918656Y26652712D01*
X74769334Y26744814D01*
X74602797Y26799999D01*
X74602795Y26800000D01*
X74500010Y26810500D01*
X72699998Y26810500D01*
X72699981Y26810499D01*
X72597203Y26800000D01*
X72597200Y26799999D01*
X72430668Y26744815D01*
X72430663Y26744813D01*
X72281342Y26652711D01*
X72157289Y26528658D01*
X72065187Y26379337D01*
X72065186Y26379334D01*
X72010001Y26212797D01*
X72010001Y26212796D01*
X72010000Y26212796D01*
X71999500Y26110017D01*
X71999500Y24309999D01*
X71999501Y24309982D01*
X72010000Y24207204D01*
X72010001Y24207201D01*
X72065185Y24040669D01*
X72065186Y24040666D01*
X72115190Y23959596D01*
X72117274Y23951978D01*
X72122445Y23946011D01*
X72126362Y23918764D01*
X72133630Y23892204D01*
X72131265Y23884670D01*
X72132389Y23876853D01*
X72120950Y23851808D01*
X72112707Y23825541D01*
X72106645Y23820482D01*
X72103364Y23813297D01*
X72080200Y23798411D01*
X72059065Y23780771D01*
X72049734Y23778832D01*
X72044586Y23775523D01*
X72009651Y23770500D01*
X71987204Y23770500D01*
X71920165Y23790185D01*
X71899523Y23806819D01*
X68886930Y26819412D01*
X68886928Y26819414D01*
X68746788Y26921232D01*
X68592445Y26999873D01*
X68427701Y27053402D01*
X68427699Y27053403D01*
X68427698Y27053403D01*
X68296271Y27074219D01*
X68256611Y27080500D01*
X68256610Y27080500D01*
X62624500Y27080500D01*
X62557461Y27100185D01*
X62511706Y27152989D01*
X62500500Y27204500D01*
X62500500Y27556611D01*
X62491350Y27614379D01*
X62473402Y27727701D01*
X62419873Y27892445D01*
X62341232Y28046788D01*
X62239414Y28186928D01*
X62116928Y28309414D01*
X61329484Y29096858D01*
X61295999Y29158181D01*
X61300983Y29227873D01*
X61342855Y29283806D01*
X61378844Y29302469D01*
X61484379Y29336759D01*
X61708845Y29451130D01*
X61912656Y29599207D01*
X62090793Y29777344D01*
X62238870Y29981155D01*
X62353241Y30205621D01*
X62431090Y30445215D01*
X62470500Y30694038D01*
X62470500Y30945962D01*
X62431090Y31194785D01*
X62353241Y31434379D01*
X62353239Y31434382D01*
X62353239Y31434384D01*
X62311747Y31515816D01*
X62238870Y31658845D01*
X62219952Y31684883D01*
X62090798Y31862650D01*
X62090794Y31862655D01*
X61912654Y32040795D01*
X61912649Y32040799D01*
X61708848Y32188868D01*
X61708847Y32188869D01*
X61708845Y32188870D01*
X61638747Y32224587D01*
X61484383Y32303240D01*
X61244785Y32381090D01*
X60995962Y32420500D01*
X60744038Y32420500D01*
X60619626Y32400795D01*
X60495214Y32381090D01*
X60255616Y32303240D01*
X60031151Y32188868D01*
X59827350Y32040799D01*
X59827345Y32040795D01*
X59743370Y31956819D01*
X59682047Y31923334D01*
X59655689Y31920500D01*
X55896300Y31920500D01*
X55829261Y31940185D01*
X55783506Y31992989D01*
X55773562Y32062147D01*
X55802587Y32125703D01*
X55857979Y32162430D01*
X55912445Y32180127D01*
X56066788Y32258768D01*
X56206928Y32360586D01*
X57119414Y33273072D01*
X57221232Y33413212D01*
X57299873Y33567555D01*
X57353402Y33732299D01*
X57366245Y33813389D01*
X57380500Y33903389D01*
X57380500Y36895689D01*
X57400185Y36962728D01*
X57416819Y36983370D01*
X57469633Y37036184D01*
X57530793Y37097344D01*
X57678870Y37301155D01*
X57793241Y37525621D01*
X57871090Y37765215D01*
X57910500Y38014038D01*
X57910500Y38265962D01*
X57871090Y38514785D01*
X57793241Y38754379D01*
X57793239Y38754382D01*
X57793239Y38754384D01*
X57737857Y38863076D01*
X57678870Y38978845D01*
X57655395Y39011155D01*
X57530798Y39182650D01*
X57530794Y39182655D01*
X57352654Y39360795D01*
X57352649Y39360799D01*
X57148848Y39508868D01*
X57148847Y39508869D01*
X57148845Y39508870D01*
X57078747Y39544587D01*
X56924383Y39623240D01*
X56684785Y39701090D01*
X56539898Y39724038D01*
X56435962Y39740500D01*
X56184038Y39740500D01*
X56080108Y39724039D01*
X55935214Y39701090D01*
X55695616Y39623240D01*
X55471151Y39508868D01*
X55267350Y39360799D01*
X55267345Y39360795D01*
X55089205Y39182655D01*
X55089201Y39182650D01*
X54941132Y38978849D01*
X54826760Y38754384D01*
X54796758Y38662047D01*
X54748910Y38514785D01*
X54709500Y38265962D01*
X54709500Y38014038D01*
X54744564Y37792656D01*
X54748910Y37765215D01*
X54826760Y37525617D01*
X54876723Y37427561D01*
X54932883Y37317340D01*
X54941132Y37301152D01*
X55089201Y37097351D01*
X55089205Y37097346D01*
X55143181Y37043370D01*
X55176666Y36982047D01*
X55179500Y36955689D01*
X55179500Y34497204D01*
X55170855Y34467764D01*
X55164332Y34437777D01*
X55160577Y34432762D01*
X55159815Y34430165D01*
X55143181Y34409523D01*
X55070477Y34336819D01*
X55009154Y34303334D01*
X54982796Y34300500D01*
X45014838Y34300500D01*
X44947799Y34320185D01*
X44902044Y34372989D01*
X44892100Y34442147D01*
X44904353Y34480795D01*
X44983239Y34635617D01*
X44983239Y34635618D01*
X44983241Y34635621D01*
X45061090Y34875215D01*
X45100500Y35124038D01*
X45100500Y35375962D01*
X45061090Y35624785D01*
X44983241Y35864379D01*
X44983239Y35864382D01*
X44983239Y35864384D01*
X44941747Y35945816D01*
X44868870Y36088845D01*
X44748824Y36254075D01*
X44720798Y36292650D01*
X44720794Y36292655D01*
X44596819Y36416630D01*
X44563334Y36477953D01*
X44560500Y36504311D01*
X44560500Y37036184D01*
X44580185Y37103223D01*
X44632989Y37148978D01*
X44702147Y37158922D01*
X44740790Y37146671D01*
X44904815Y37063096D01*
X45136924Y36987679D01*
X45377973Y36949500D01*
X45377974Y36949500D01*
X45622026Y36949500D01*
X45622027Y36949500D01*
X45863076Y36987679D01*
X46095185Y37063096D01*
X46312639Y37173894D01*
X46510083Y37317345D01*
X46682655Y37489917D01*
X46826106Y37687361D01*
X46936904Y37904815D01*
X47012321Y38136924D01*
X47050500Y38377973D01*
X47050500Y38622027D01*
X47012321Y38863076D01*
X46936904Y39095185D01*
X46826106Y39312639D01*
X46772834Y39385962D01*
X46682660Y39510077D01*
X46682656Y39510082D01*
X46510081Y39682657D01*
X46510076Y39682661D01*
X46312642Y39826104D01*
X46312641Y39826105D01*
X46312639Y39826106D01*
X46095185Y39936904D01*
X45863076Y40012321D01*
X45863074Y40012322D01*
X45863072Y40012322D01*
X45694769Y40038979D01*
X45622027Y40050500D01*
X45377973Y40050500D01*
X45322093Y40041650D01*
X45136927Y40012322D01*
X44904812Y39936903D01*
X44740795Y39853332D01*
X44672125Y39840436D01*
X44607385Y39866712D01*
X44567128Y39923819D01*
X44560500Y39963817D01*
X44560500Y40825501D01*
X44580185Y40892540D01*
X44632989Y40938295D01*
X44684495Y40949501D01*
X46350008Y40949501D01*
X46452797Y40960001D01*
X46619334Y41015186D01*
X46768656Y41107288D01*
X46892712Y41231344D01*
X46984814Y41380666D01*
X47039999Y41547203D01*
X47050500Y41649991D01*
X47050499Y43350008D01*
X47039999Y43452797D01*
X46984814Y43619334D01*
X46892712Y43768656D01*
X46768656Y43892712D01*
X46619334Y43984814D01*
X46452797Y44039999D01*
X46452795Y44040000D01*
X46350016Y44050500D01*
X44684500Y44050500D01*
X44617461Y44070185D01*
X44571706Y44122989D01*
X44560500Y44174500D01*
X44560500Y46260689D01*
X44569144Y46290130D01*
X44575668Y46320116D01*
X44579422Y46325132D01*
X44580185Y46327728D01*
X44596819Y46348370D01*
X44642319Y46393870D01*
X44703642Y46427355D01*
X44773334Y46422371D01*
X44817681Y46393870D01*
X44933148Y46278403D01*
X44963397Y46229042D01*
X44979554Y46179317D01*
X44980127Y46177555D01*
X45058768Y46023212D01*
X45160586Y45883072D01*
X46760586Y44283072D01*
X46883072Y44160586D01*
X47023212Y44058768D01*
X47177555Y43980127D01*
X47342299Y43926598D01*
X47513389Y43899500D01*
X47513390Y43899500D01*
X47686611Y43899500D01*
X50107499Y43899500D01*
X50174538Y43879815D01*
X50220293Y43827011D01*
X50230237Y43757853D01*
X50225430Y43737181D01*
X50188909Y43624786D01*
X50159641Y43439992D01*
X50149500Y43375962D01*
X50149500Y43124038D01*
X50181639Y42921124D01*
X50188910Y42875215D01*
X50266760Y42635617D01*
X50327605Y42516204D01*
X50379487Y42414379D01*
X50381132Y42411152D01*
X50529201Y42207351D01*
X50529205Y42207346D01*
X50613181Y42123370D01*
X50646666Y42062047D01*
X50649500Y42035689D01*
X50649500Y38174311D01*
X50629815Y38107272D01*
X50613181Y38086630D01*
X50529205Y38002655D01*
X50529201Y38002650D01*
X50381132Y37798849D01*
X50266760Y37574384D01*
X50188910Y37334786D01*
X50173615Y37238218D01*
X50149500Y37085962D01*
X50149500Y36834038D01*
X50150966Y36824785D01*
X50188910Y36585215D01*
X50266760Y36345617D01*
X50313404Y36254075D01*
X50373761Y36135617D01*
X50381132Y36121152D01*
X50529201Y35917351D01*
X50529205Y35917346D01*
X50707345Y35739206D01*
X50707350Y35739202D01*
X50800690Y35671387D01*
X50911155Y35591130D01*
X51054184Y35518253D01*
X51135616Y35476761D01*
X51135618Y35476761D01*
X51135621Y35476759D01*
X51375215Y35398910D01*
X51624038Y35359500D01*
X51624039Y35359500D01*
X51875961Y35359500D01*
X51875962Y35359500D01*
X52124785Y35398910D01*
X52364379Y35476759D01*
X52588845Y35591130D01*
X52792656Y35739207D01*
X52970793Y35917344D01*
X53118870Y36121155D01*
X53233241Y36345621D01*
X53311090Y36585215D01*
X53350500Y36834038D01*
X53350500Y37085962D01*
X53311090Y37334785D01*
X53233241Y37574379D01*
X53233239Y37574382D01*
X53233239Y37574384D01*
X53130123Y37776759D01*
X53118870Y37798845D01*
X53061396Y37877952D01*
X52970798Y38002650D01*
X52970794Y38002655D01*
X52886819Y38086630D01*
X52853334Y38147953D01*
X52850500Y38174311D01*
X52850500Y39975962D01*
X63199500Y39975962D01*
X63199500Y39724038D01*
X63213636Y39634786D01*
X63238910Y39475215D01*
X63316760Y39235617D01*
X63431132Y39011152D01*
X63579201Y38807351D01*
X63579205Y38807346D01*
X63663181Y38723370D01*
X63696666Y38662047D01*
X63699500Y38635689D01*
X63699500Y37664311D01*
X63679815Y37597272D01*
X63663181Y37576630D01*
X63579205Y37492655D01*
X63579201Y37492650D01*
X63431132Y37288849D01*
X63316760Y37064384D01*
X63238910Y36824786D01*
X63211888Y36654174D01*
X63199500Y36575962D01*
X63199500Y36324038D01*
X63229343Y36135621D01*
X63238910Y36075215D01*
X63316760Y35835617D01*
X63382116Y35707351D01*
X63424906Y35623370D01*
X63431132Y35611152D01*
X63579201Y35407351D01*
X63579205Y35407346D01*
X63757345Y35229206D01*
X63757350Y35229202D01*
X63902096Y35124039D01*
X63961155Y35081130D01*
X64104184Y35008253D01*
X64185616Y34966761D01*
X64185618Y34966761D01*
X64185621Y34966759D01*
X64425215Y34888910D01*
X64674038Y34849500D01*
X64674039Y34849500D01*
X64925961Y34849500D01*
X64925962Y34849500D01*
X65174785Y34888910D01*
X65414379Y34966759D01*
X65638845Y35081130D01*
X65842656Y35229207D01*
X66020793Y35407344D01*
X66168870Y35611155D01*
X66273561Y35816624D01*
X66321534Y35867418D01*
X66389355Y35884213D01*
X66455490Y35861676D01*
X66498942Y35806961D01*
X66506518Y35779725D01*
X66538909Y35575215D01*
X66616760Y35335617D01*
X66670980Y35229206D01*
X66724565Y35124039D01*
X66731132Y35111152D01*
X66879201Y34907351D01*
X66879205Y34907346D01*
X67057345Y34729206D01*
X67057350Y34729202D01*
X67186154Y34635621D01*
X67261155Y34581130D01*
X67404184Y34508253D01*
X67485616Y34466761D01*
X67485618Y34466761D01*
X67485621Y34466759D01*
X67725215Y34388910D01*
X67974038Y34349500D01*
X67974039Y34349500D01*
X68225961Y34349500D01*
X68225962Y34349500D01*
X68474785Y34388910D01*
X68714379Y34466759D01*
X68938845Y34581130D01*
X69142656Y34729207D01*
X69320793Y34907344D01*
X69468870Y35111155D01*
X69583241Y35335621D01*
X69661090Y35575215D01*
X69700500Y35824038D01*
X69700500Y36075962D01*
X69661090Y36324785D01*
X69583241Y36564379D01*
X69583239Y36564382D01*
X69583239Y36564384D01*
X69476014Y36774824D01*
X69468870Y36788845D01*
X69441696Y36826247D01*
X69320798Y36992650D01*
X69320794Y36992655D01*
X69236819Y37076630D01*
X69203334Y37137953D01*
X69200500Y37164311D01*
X69200500Y45240017D01*
X71999500Y45240017D01*
X71999500Y43439999D01*
X71999501Y43439982D01*
X72010000Y43337204D01*
X72010001Y43337201D01*
X72065185Y43170669D01*
X72065187Y43170664D01*
X72079077Y43148145D01*
X72155798Y43023759D01*
X72157289Y43021343D01*
X72286128Y42892504D01*
X72319613Y42831181D01*
X72314629Y42761489D01*
X72298765Y42731938D01*
X72231132Y42638849D01*
X72116760Y42414384D01*
X72038910Y42174786D01*
X71999500Y41925962D01*
X71999500Y41674039D01*
X72038910Y41425215D01*
X72116760Y41185617D01*
X72231132Y40961152D01*
X72379201Y40757351D01*
X72379205Y40757346D01*
X72518870Y40617681D01*
X72552355Y40556358D01*
X72547371Y40486666D01*
X72518870Y40442319D01*
X72379205Y40302655D01*
X72379201Y40302650D01*
X72231132Y40098849D01*
X72116760Y39874384D01*
X72038910Y39634786D01*
X71999500Y39385962D01*
X71999500Y39134039D01*
X72038910Y38885215D01*
X72116760Y38645617D01*
X72231132Y38421152D01*
X72379201Y38217351D01*
X72379205Y38217346D01*
X72557345Y38039206D01*
X72557350Y38039202D01*
X72742319Y37904815D01*
X72761155Y37891130D01*
X72787020Y37877951D01*
X72818406Y37855148D01*
X73470591Y37202963D01*
X73407007Y37185925D01*
X73292993Y37120099D01*
X73199901Y37027007D01*
X73134075Y36912993D01*
X73117037Y36849409D01*
X72484728Y37481718D01*
X72484727Y37481718D01*
X72445380Y37427561D01*
X72348904Y37238218D01*
X72283242Y37036131D01*
X72283242Y37036128D01*
X72250000Y36826247D01*
X72250000Y36613754D01*
X72283242Y36403873D01*
X72283242Y36403870D01*
X72348904Y36201783D01*
X72445375Y36012450D01*
X72484728Y35958284D01*
X73117037Y36590592D01*
X73134075Y36527007D01*
X73199901Y36412993D01*
X73292993Y36319901D01*
X73407007Y36254075D01*
X73470590Y36237038D01*
X72838282Y35604731D01*
X72838282Y35604730D01*
X72892449Y35565376D01*
X73081782Y35468905D01*
X73283870Y35403243D01*
X73493754Y35370000D01*
X73706246Y35370000D01*
X73916127Y35403243D01*
X73916130Y35403243D01*
X74118217Y35468905D01*
X74307554Y35565378D01*
X74361716Y35604730D01*
X74361717Y35604730D01*
X73729408Y36237038D01*
X73792993Y36254075D01*
X73907007Y36319901D01*
X74000099Y36412993D01*
X74065925Y36527007D01*
X74082962Y36590592D01*
X74715270Y35958283D01*
X74715270Y35958284D01*
X74754622Y36012446D01*
X74851095Y36201783D01*
X74916757Y36403870D01*
X74916757Y36403873D01*
X74950000Y36613754D01*
X74950000Y36826247D01*
X74916757Y37036128D01*
X74916757Y37036131D01*
X74851095Y37238218D01*
X74754624Y37427551D01*
X74715270Y37481718D01*
X74715269Y37481718D01*
X74082962Y36849410D01*
X74065925Y36912993D01*
X74000099Y37027007D01*
X73907007Y37120099D01*
X73792993Y37185925D01*
X73729409Y37202963D01*
X74381590Y37855146D01*
X74412976Y37877950D01*
X74438845Y37891130D01*
X74567366Y37984506D01*
X74642650Y38039202D01*
X74642652Y38039205D01*
X74642656Y38039207D01*
X74820793Y38217344D01*
X74968870Y38421155D01*
X75083241Y38645621D01*
X75161090Y38885215D01*
X75200500Y39134038D01*
X75200500Y39385962D01*
X75161090Y39634785D01*
X75083241Y39874379D01*
X75083239Y39874382D01*
X75083239Y39874384D01*
X75012956Y40012321D01*
X74968870Y40098845D01*
X74895740Y40199500D01*
X74820798Y40302650D01*
X74820794Y40302655D01*
X74681130Y40442319D01*
X74647645Y40503642D01*
X74652629Y40573334D01*
X74681130Y40617681D01*
X74712949Y40649500D01*
X74820793Y40757344D01*
X74968870Y40961155D01*
X75083241Y41185621D01*
X75161090Y41425215D01*
X75200500Y41674038D01*
X75200500Y41925962D01*
X75161090Y42174785D01*
X75083241Y42414379D01*
X75083239Y42414382D01*
X75083239Y42414384D01*
X75022905Y42532794D01*
X74968870Y42638845D01*
X74901233Y42731940D01*
X74877754Y42797743D01*
X74893579Y42865797D01*
X74913871Y42892505D01*
X74918650Y42897285D01*
X74918656Y42897288D01*
X75042712Y43021344D01*
X75134814Y43170666D01*
X75189999Y43337203D01*
X75200500Y43439991D01*
X75200499Y45240008D01*
X75189999Y45342797D01*
X75134814Y45509334D01*
X75042712Y45658656D01*
X74918656Y45782712D01*
X74769334Y45874814D01*
X74602797Y45929999D01*
X74602795Y45930000D01*
X74500010Y45940500D01*
X72699998Y45940500D01*
X72699981Y45940499D01*
X72597203Y45930000D01*
X72597200Y45929999D01*
X72430668Y45874815D01*
X72430663Y45874813D01*
X72281342Y45782711D01*
X72157289Y45658658D01*
X72065187Y45509337D01*
X72065186Y45509334D01*
X72010001Y45342797D01*
X72010001Y45342796D01*
X72010000Y45342796D01*
X71999500Y45240017D01*
X69200500Y45240017D01*
X69200500Y46212797D01*
X69220185Y46279836D01*
X69236815Y46300474D01*
X69612189Y46675849D01*
X69673510Y46709332D01*
X69743201Y46704348D01*
X69799135Y46662477D01*
X69800174Y46661068D01*
X69838998Y46607631D01*
X69839208Y46607343D01*
X70017345Y46429206D01*
X70017350Y46429202D01*
X70128607Y46348370D01*
X70221155Y46281130D01*
X70323384Y46229042D01*
X70445616Y46166761D01*
X70445618Y46166761D01*
X70445621Y46166759D01*
X70685215Y46088910D01*
X70934038Y46049500D01*
X70934039Y46049500D01*
X71185961Y46049500D01*
X71185962Y46049500D01*
X71434785Y46088910D01*
X71674379Y46166759D01*
X71898845Y46281130D01*
X72102656Y46429207D01*
X72211642Y46538194D01*
X72272961Y46571676D01*
X72342653Y46566692D01*
X72364412Y46556052D01*
X72430666Y46515186D01*
X72597203Y46460001D01*
X72699991Y46449500D01*
X74500008Y46449501D01*
X74602797Y46460001D01*
X74769334Y46515186D01*
X74918656Y46607288D01*
X75042712Y46731344D01*
X75134814Y46880666D01*
X75189999Y47047203D01*
X75200500Y47149991D01*
X75200499Y48950008D01*
X75199739Y48957444D01*
X75189999Y49052797D01*
X75189998Y49052800D01*
X75184341Y49069872D01*
X75134814Y49219334D01*
X75042712Y49368656D01*
X74918656Y49492712D01*
X74769334Y49584814D01*
X74602797Y49639999D01*
X74602795Y49640000D01*
X74500010Y49650500D01*
X72699998Y49650500D01*
X72699981Y49650499D01*
X72597203Y49640000D01*
X72597200Y49639999D01*
X72430668Y49584815D01*
X72430654Y49584808D01*
X72364415Y49543952D01*
X72297023Y49525512D01*
X72230360Y49546435D01*
X72211639Y49561810D01*
X72102654Y49670795D01*
X72102649Y49670799D01*
X71898848Y49818868D01*
X71898847Y49818869D01*
X71898845Y49818870D01*
X71828747Y49854587D01*
X71674383Y49933240D01*
X71434785Y50011090D01*
X71185962Y50050500D01*
X70934038Y50050500D01*
X70809626Y50030795D01*
X70685214Y50011090D01*
X70445616Y49933240D01*
X70221151Y49818868D01*
X70017350Y49670799D01*
X70017345Y49670795D01*
X69839205Y49492655D01*
X69839201Y49492650D01*
X69691132Y49288849D01*
X69655137Y49218205D01*
X69607162Y49167409D01*
X69544652Y49150500D01*
X69516611Y49150500D01*
X69343389Y49150500D01*
X69303728Y49144219D01*
X69172302Y49123403D01*
X69007552Y49069872D01*
X68853211Y48991232D01*
X68780930Y48938716D01*
X68713072Y48889414D01*
X68713070Y48889412D01*
X68713069Y48889412D01*
X67260588Y47436931D01*
X67260588Y47436930D01*
X67260586Y47436928D01*
X67240350Y47409075D01*
X67158768Y47296789D01*
X67080128Y47142448D01*
X67026597Y46977698D01*
X66999500Y46806611D01*
X66999500Y37164311D01*
X66979815Y37097272D01*
X66963181Y37076630D01*
X66879205Y36992655D01*
X66879201Y36992650D01*
X66731132Y36788849D01*
X66626439Y36583379D01*
X66578464Y36532583D01*
X66510643Y36515788D01*
X66444508Y36538326D01*
X66401057Y36593041D01*
X66393481Y36620276D01*
X66377686Y36720001D01*
X66361090Y36824785D01*
X66283241Y37064379D01*
X66283239Y37064382D01*
X66283239Y37064384D01*
X66203948Y37220000D01*
X66168870Y37288845D01*
X66135492Y37334786D01*
X66020798Y37492650D01*
X66020794Y37492655D01*
X65936819Y37576630D01*
X65903334Y37637953D01*
X65900500Y37664311D01*
X65900500Y38635689D01*
X65920185Y38702728D01*
X65936819Y38723370D01*
X65967833Y38754384D01*
X66020793Y38807344D01*
X66168870Y39011155D01*
X66283241Y39235621D01*
X66361090Y39475215D01*
X66400500Y39724038D01*
X66400500Y39975962D01*
X66361090Y40224785D01*
X66283241Y40464379D01*
X66283239Y40464382D01*
X66283239Y40464384D01*
X66224733Y40579207D01*
X66168870Y40688845D01*
X66112261Y40766761D01*
X66020798Y40892650D01*
X66020794Y40892655D01*
X65842654Y41070795D01*
X65842649Y41070799D01*
X65638848Y41218868D01*
X65638847Y41218869D01*
X65638845Y41218870D01*
X65568747Y41254587D01*
X65414383Y41333240D01*
X65174785Y41411090D01*
X65085604Y41425215D01*
X64925962Y41450500D01*
X64674038Y41450500D01*
X64549626Y41430795D01*
X64425214Y41411090D01*
X64185616Y41333240D01*
X63961151Y41218868D01*
X63757350Y41070799D01*
X63757345Y41070795D01*
X63579205Y40892655D01*
X63579201Y40892650D01*
X63431132Y40688849D01*
X63316760Y40464384D01*
X63238910Y40224786D01*
X63218963Y40098845D01*
X63199500Y39975962D01*
X52850500Y39975962D01*
X52850500Y42035689D01*
X52870185Y42102728D01*
X52886819Y42123370D01*
X52887488Y42124039D01*
X52970793Y42207344D01*
X53118870Y42411155D01*
X53233241Y42635621D01*
X53311090Y42875215D01*
X53350500Y43124038D01*
X53350500Y43375962D01*
X53311954Y43619332D01*
X53311090Y43624786D01*
X53289956Y43689829D01*
X53274569Y43737182D01*
X53272575Y43807022D01*
X53308655Y43866855D01*
X53371356Y43897684D01*
X53392501Y43899500D01*
X54292796Y43899500D01*
X54359835Y43879815D01*
X54380477Y43863181D01*
X55142423Y43101235D01*
X55175908Y43039912D01*
X55170924Y42970220D01*
X55142424Y42925873D01*
X55059200Y42842649D01*
X54911132Y42638849D01*
X54796760Y42414384D01*
X54718910Y42174786D01*
X54679500Y41925962D01*
X54679500Y41674039D01*
X54718910Y41425215D01*
X54796760Y41185617D01*
X54911132Y40961152D01*
X55059201Y40757351D01*
X55059205Y40757346D01*
X55237345Y40579206D01*
X55237350Y40579202D01*
X55415117Y40450048D01*
X55441155Y40431130D01*
X55584184Y40358253D01*
X55665616Y40316761D01*
X55665618Y40316761D01*
X55665621Y40316759D01*
X55905215Y40238910D01*
X56154038Y40199500D01*
X56154039Y40199500D01*
X56405961Y40199500D01*
X56405962Y40199500D01*
X56654785Y40238910D01*
X56894379Y40316759D01*
X57118845Y40431130D01*
X57322656Y40579207D01*
X57500793Y40757344D01*
X57648870Y40961155D01*
X57763241Y41185621D01*
X57841090Y41425215D01*
X57880500Y41674038D01*
X57880500Y41925962D01*
X57841090Y42174785D01*
X57763241Y42414379D01*
X57763239Y42414382D01*
X57763239Y42414384D01*
X57721747Y42495816D01*
X57648870Y42638845D01*
X57559764Y42761489D01*
X57500798Y42842650D01*
X57500794Y42842655D01*
X57416819Y42926630D01*
X57383334Y42987953D01*
X57380500Y43014311D01*
X57380500Y43606611D01*
X57378484Y43619337D01*
X57353402Y43777701D01*
X57299873Y43942445D01*
X57221232Y44096788D01*
X57119414Y44236928D01*
X56996928Y44359414D01*
X55642667Y45713675D01*
X55609182Y45774998D01*
X55614166Y45844690D01*
X55656038Y45900623D01*
X55721502Y45925040D01*
X55768669Y45919286D01*
X55785215Y45913910D01*
X56034038Y45874500D01*
X56034039Y45874500D01*
X56285961Y45874500D01*
X56285962Y45874500D01*
X56534785Y45913910D01*
X56774379Y45991759D01*
X56998845Y46106130D01*
X57202656Y46254207D01*
X57380793Y46432344D01*
X57528870Y46636155D01*
X57643241Y46860621D01*
X57721090Y47100215D01*
X57760500Y47349038D01*
X57760500Y47549507D01*
X59857927Y47549507D01*
X59857927Y47549051D01*
X59857946Y47455384D01*
X59857946Y47454984D01*
X59858025Y47356007D01*
X59858026Y47355485D01*
X59858026Y47355416D01*
X59858167Y47252078D01*
X59858167Y47251787D01*
X59858371Y47144477D01*
X59858371Y47144338D01*
X59858372Y47144224D01*
X59858372Y47144223D01*
X59858385Y47138657D01*
X59858385Y47138641D01*
X59860287Y46277998D01*
X59861471Y46237361D01*
X59861472Y46237353D01*
X59891568Y46064540D01*
X59960705Y45903326D01*
X59981839Y45874813D01*
X60065161Y45762398D01*
X60080573Y45745993D01*
X60080576Y45745991D01*
X60080576Y45745990D01*
X60138536Y45696325D01*
X60176634Y45637756D01*
X60177019Y45567888D01*
X60141703Y45510816D01*
X60094196Y45467210D01*
X59987396Y45328066D01*
X59987383Y45328046D01*
X59977647Y45311740D01*
X59977646Y45311738D01*
X59923552Y45201744D01*
X59891653Y45081586D01*
X59879057Y45034134D01*
X59878541Y45032192D01*
X59878540Y45032189D01*
X59876864Y45020562D01*
X59870577Y44959420D01*
X59869117Y44935836D01*
X59868184Y44916872D01*
X59866939Y44882903D01*
X59866649Y44873352D01*
X59865625Y44830833D01*
X59865624Y44830761D01*
X59865505Y44824894D01*
X59864694Y44775167D01*
X59864638Y44770994D01*
X59864128Y44723646D01*
X59864042Y44715679D01*
X59864013Y44712383D01*
X59863635Y44653656D01*
X59863635Y44653538D01*
X59863622Y44650709D01*
X59863457Y44589516D01*
X59863454Y44586880D01*
X59863503Y44525121D01*
X59863510Y44522434D01*
X59863774Y44461735D01*
X59863793Y44458809D01*
X59863794Y44458680D01*
X59864271Y44400671D01*
X59864304Y44397462D01*
X59864997Y44343497D01*
X59865066Y44339226D01*
X59865972Y44291228D01*
X59866126Y44284607D01*
X59867241Y44244466D01*
X59867645Y44232995D01*
X59868967Y44202129D01*
X59870472Y44176869D01*
X59872007Y44156756D01*
X59881319Y44082926D01*
X59881319Y44082925D01*
X59882507Y44076193D01*
X59882512Y44076170D01*
X59882513Y44076166D01*
X59904749Y43984244D01*
X59930239Y43926598D01*
X59975685Y43823817D01*
X59975688Y43823812D01*
X59983932Y43809828D01*
X59992819Y43795138D01*
X60101993Y43657835D01*
X60118556Y43641362D01*
X60189701Y43578963D01*
X60216165Y43558537D01*
X60244856Y43537452D01*
X60259837Y43526977D01*
X60267555Y43521651D01*
X60332396Y43477501D01*
X60336401Y43474793D01*
X60390991Y43438132D01*
X60396933Y43434182D01*
X60441114Y43405113D01*
X60441149Y43405090D01*
X60441183Y43405068D01*
X60444387Y43402996D01*
X60450993Y43398723D01*
X60469714Y43386819D01*
X60484616Y43377343D01*
X60504579Y43365080D01*
X60527433Y43351525D01*
X60527446Y43351518D01*
X60527461Y43351509D01*
X60573563Y43326290D01*
X60583160Y43321466D01*
X60719981Y43268627D01*
X60725595Y43267066D01*
X60772334Y43241141D01*
X60772924Y43241838D01*
X60774816Y43240239D01*
X60774821Y43240235D01*
X60821027Y43201196D01*
X60833606Y43191404D01*
X60841321Y43185397D01*
X60841345Y43185379D01*
X60859465Y43171705D01*
X60887385Y43151287D01*
X60897510Y43144011D01*
X60931300Y43120146D01*
X60937583Y43115760D01*
X60938326Y43115241D01*
X60975774Y43089414D01*
X60976131Y43089168D01*
X60981633Y43085410D01*
X61021966Y43058114D01*
X61026939Y43054776D01*
X61049282Y43039912D01*
X61068038Y43027434D01*
X61072862Y43024253D01*
X61073002Y43024162D01*
X61073071Y43024116D01*
X61113017Y42998007D01*
X61119057Y42994101D01*
X61156212Y42970318D01*
X61164382Y42965161D01*
X61197012Y42944858D01*
X61210277Y42936792D01*
X61236651Y42921124D01*
X61264885Y42905161D01*
X61283270Y42895281D01*
X61371523Y42854930D01*
X61379258Y42851978D01*
X61449679Y42828989D01*
X61449680Y42828989D01*
X61449683Y42828988D01*
X61522786Y42817930D01*
X61623122Y42802752D01*
X61639990Y42802182D01*
X61639996Y42802183D01*
X61639997Y42802182D01*
X61656446Y42802267D01*
X61698762Y42802483D01*
X61723817Y42803587D01*
X61758848Y42805948D01*
X61786823Y42808487D01*
X61805998Y42810474D01*
X61807448Y42810643D01*
X61808794Y42810801D01*
X61833344Y42813707D01*
X61833895Y42813772D01*
X61868265Y42817866D01*
X61868588Y42817905D01*
X61909106Y42822749D01*
X61909146Y42822754D01*
X61909161Y42822621D01*
X61909388Y42822585D01*
X61909365Y42822780D01*
X61951949Y42827886D01*
X61952358Y42827935D01*
X61952565Y42827960D01*
X61970943Y42830170D01*
X61974785Y42830631D01*
X61974850Y42830639D01*
X61976223Y42830804D01*
X61976224Y42830803D01*
X61996481Y42833228D01*
X62014282Y42835357D01*
X62014371Y42835368D01*
X62062130Y42841047D01*
X62062131Y42841033D01*
X62062183Y42841054D01*
X62116317Y42847466D01*
X62117566Y42847613D01*
X62117567Y42847612D01*
X62177288Y42854661D01*
X62177287Y42854662D01*
X62179021Y42854866D01*
X62179066Y42854871D01*
X62241041Y42862164D01*
X62280989Y42866848D01*
X62292690Y42868220D01*
X62292748Y42868227D01*
X62292800Y42868233D01*
X62295122Y42868509D01*
X62346661Y42874716D01*
X62351774Y42875350D01*
X62399341Y42881408D01*
X62405174Y42882173D01*
X62446977Y42887828D01*
X62454820Y42888931D01*
X62489067Y42893930D01*
X62502336Y42895988D01*
X62527237Y42900076D01*
X62561736Y42906566D01*
X62561741Y42906567D01*
X62575487Y42909485D01*
X62575490Y42909486D01*
X62575500Y42909488D01*
X62680496Y42939860D01*
X62682263Y42940513D01*
X62688554Y42942870D01*
X62844209Y43023755D01*
X62853076Y43029764D01*
X62873146Y43044495D01*
X62881699Y43047595D01*
X62888202Y43053965D01*
X62914034Y43059310D01*
X62938834Y43068295D01*
X62949520Y43066652D01*
X62956623Y43068121D01*
X62987928Y43060746D01*
X62991032Y43060268D01*
X62991767Y43059986D01*
X62994343Y43058954D01*
X63004143Y43055110D01*
X63028719Y43045666D01*
X63038182Y43042102D01*
X63039285Y43041695D01*
X63040040Y43041416D01*
X63074998Y43028559D01*
X63239036Y42988344D01*
X63414440Y42986230D01*
X63479560Y43000838D01*
X63585592Y43024621D01*
X63585600Y43024623D01*
X63593800Y43027496D01*
X63751100Y43082611D01*
X63755682Y43084233D01*
X63812776Y43104651D01*
X63824208Y43108843D01*
X63871624Y43126667D01*
X63888502Y43133244D01*
X63907599Y43140951D01*
X63925398Y43148132D01*
X63925417Y43148141D01*
X63925429Y43148145D01*
X63955363Y43160981D01*
X63971942Y43168518D01*
X63980968Y43172620D01*
X63980976Y43172625D01*
X63980991Y43172631D01*
X64055597Y43211701D01*
X64069112Y43219769D01*
X64191685Y43310927D01*
X64192351Y43311536D01*
X64212174Y43330331D01*
X64227923Y43345814D01*
X64275383Y43396994D01*
X64372268Y43543227D01*
X64432818Y43707862D01*
X64453769Y43882022D01*
X64454487Y44095452D01*
X64454489Y44096188D01*
X64454637Y44158115D01*
X64454639Y44159331D01*
X64454683Y44215683D01*
X64454691Y44225189D01*
X64454691Y44226266D01*
X64454652Y44292623D01*
X64454650Y44293695D01*
X64454523Y44356991D01*
X64454520Y44358259D01*
X64454311Y44414975D01*
X64454302Y44416840D01*
X64454017Y44463153D01*
X64454000Y44465330D01*
X64453563Y44513697D01*
X64453561Y44513880D01*
X64453510Y44518159D01*
X64452950Y44554985D01*
X64452950Y44554995D01*
X64452639Y44568030D01*
X64451915Y44590327D01*
X64451914Y44590328D01*
X64451772Y44594741D01*
X64451769Y44594785D01*
X64451729Y44596050D01*
X64451255Y44610628D01*
X64450842Y44612387D01*
X64450158Y44625362D01*
X64448786Y44644132D01*
X64440887Y44711016D01*
X64440664Y44712383D01*
X64438821Y44723649D01*
X64405599Y44853301D01*
X64402649Y44861653D01*
X64396468Y44878512D01*
X64315518Y45034134D01*
X64315508Y45034149D01*
X64311504Y45040053D01*
X64311497Y45040063D01*
X64311493Y45040068D01*
X64228341Y45142207D01*
X64224025Y45146653D01*
X64175075Y45192779D01*
X64170892Y45196383D01*
X64130792Y45226830D01*
X64089304Y45283047D01*
X64084794Y45352771D01*
X64118696Y45413864D01*
X64130448Y45424084D01*
X64132341Y45425533D01*
X64132359Y45425544D01*
X64136164Y45428455D01*
X64141329Y45432442D01*
X64266275Y45555565D01*
X64269656Y45559777D01*
X64361369Y45705321D01*
X64364353Y45711527D01*
X64408411Y45826208D01*
X64411020Y45835100D01*
X64429063Y45910845D01*
X64431325Y45923116D01*
X64438591Y45971149D01*
X64440528Y45987491D01*
X64440947Y45991759D01*
X64443510Y46017907D01*
X64443512Y46017924D01*
X64445151Y46039030D01*
X64446423Y46058751D01*
X64447788Y46085314D01*
X64448344Y46098303D01*
X64449461Y46131015D01*
X64449709Y46139764D01*
X64450601Y46179317D01*
X64450711Y46185233D01*
X64451404Y46232321D01*
X64451453Y46236351D01*
X64451972Y46291666D01*
X64451992Y46294402D01*
X64452362Y46358637D01*
X64452371Y46360482D01*
X64452372Y46360595D01*
X64452616Y46434378D01*
X64452619Y46435476D01*
X64452765Y46519700D01*
X64452766Y46520447D01*
X64452793Y46556344D01*
X64452837Y46615572D01*
X64452837Y46615980D01*
X64452859Y46722818D01*
X64452859Y46722993D01*
X64452856Y46842215D01*
X64452856Y46842231D01*
X64452853Y46907725D01*
X64452852Y46932388D01*
X64452852Y46939346D01*
X64452838Y47067428D01*
X64452838Y47067663D01*
X64452838Y47067689D01*
X64452791Y47182893D01*
X64452791Y47183238D01*
X64452702Y47286216D01*
X64452701Y47286712D01*
X64452562Y47378147D01*
X64452561Y47378826D01*
X64452366Y47459401D01*
X64452363Y47460374D01*
X64452102Y47530771D01*
X64452096Y47532101D01*
X64451887Y47570212D01*
X64451764Y47592919D01*
X64451751Y47594822D01*
X64451334Y47647073D01*
X64451334Y47647074D01*
X64451311Y47649486D01*
X64450809Y47693410D01*
X64450752Y47697489D01*
X64450158Y47733613D01*
X64450156Y47733677D01*
X64450154Y47733842D01*
X64450044Y47739305D01*
X64449340Y47769049D01*
X64449102Y47777245D01*
X64448285Y47800905D01*
X64447742Y47813549D01*
X64446805Y47831809D01*
X64445481Y47852216D01*
X64445297Y47854560D01*
X64445293Y47854591D01*
X64445285Y47854690D01*
X64445286Y47854697D01*
X64444405Y47865894D01*
X64440773Y47901341D01*
X64439572Y47910846D01*
X64428068Y47977640D01*
X64426722Y47983791D01*
X64423307Y47994422D01*
X64382728Y48120761D01*
X64382727Y48120763D01*
X64381231Y48124242D01*
X64349494Y48182007D01*
X64311313Y48251501D01*
X64311307Y48251510D01*
X64311301Y48251521D01*
X64311213Y48251650D01*
X64301536Y48265501D01*
X64183595Y48395350D01*
X64183592Y48395352D01*
X64183590Y48395355D01*
X64183586Y48395358D01*
X64171809Y48405626D01*
X64051859Y48491152D01*
X64051855Y48491154D01*
X64031986Y48502577D01*
X64031982Y48502579D01*
X63984621Y48526445D01*
X63957856Y48539932D01*
X63957845Y48539937D01*
X63940251Y48547622D01*
X63897025Y48564938D01*
X63881770Y48570509D01*
X63876758Y48572320D01*
X63850679Y48581630D01*
X63850679Y48581631D01*
X63848798Y48582298D01*
X63848734Y48582320D01*
X63814661Y48594373D01*
X63814631Y48594384D01*
X63813564Y48594761D01*
X63813500Y48594783D01*
X63773447Y48608878D01*
X63773409Y48608892D01*
X63772639Y48609162D01*
X63728899Y48624497D01*
X63728863Y48624509D01*
X63728171Y48624751D01*
X63683023Y48640530D01*
X63682974Y48640548D01*
X63682487Y48640718D01*
X63682138Y48640839D01*
X63638060Y48656195D01*
X63637246Y48656478D01*
X63596156Y48670741D01*
X63595040Y48671128D01*
X63559411Y48683433D01*
X63557552Y48684072D01*
X63529671Y48693620D01*
X63525967Y48694878D01*
X63510329Y48700143D01*
X63510066Y48700231D01*
X63509503Y48700421D01*
X63509475Y48700430D01*
X63495397Y48705164D01*
X63495010Y48705295D01*
X63469122Y48714097D01*
X63468970Y48714149D01*
X63448701Y48721070D01*
X63432758Y48726514D01*
X63432676Y48726572D01*
X63432667Y48726545D01*
X63388283Y48741739D01*
X63388227Y48741758D01*
X63339566Y48758442D01*
X63294725Y48773836D01*
X63284233Y48777437D01*
X63284194Y48777451D01*
X63231183Y48795669D01*
X63231148Y48795681D01*
X63172537Y48815843D01*
X63172500Y48815856D01*
X63121154Y48833537D01*
X63121110Y48833552D01*
X63066224Y48852475D01*
X63066174Y48852492D01*
X63021067Y48868065D01*
X63020986Y48868093D01*
X63006773Y48873011D01*
X62982132Y48881538D01*
X62982019Y48881618D01*
X62982007Y48881581D01*
X62951676Y48892113D01*
X62951442Y48892194D01*
X62934061Y48898269D01*
X62925098Y48901338D01*
X62880218Y48916393D01*
X62847001Y48926691D01*
X62833931Y48930416D01*
X62812241Y48936598D01*
X62756485Y48950019D01*
X62751359Y48951253D01*
X62724705Y48956511D01*
X62724664Y48956518D01*
X62625575Y48969329D01*
X62625569Y48969330D01*
X62606278Y48970535D01*
X62523936Y48971016D01*
X62520895Y48971033D01*
X62520894Y48971033D01*
X62520889Y48971033D01*
X62509162Y48970438D01*
X62495676Y48969634D01*
X62474317Y48968166D01*
X62469066Y48967787D01*
X62437646Y48965415D01*
X62434983Y48965209D01*
X62393258Y48961911D01*
X62393241Y48961909D01*
X62392074Y48961816D01*
X62391515Y48961771D01*
X62339382Y48957538D01*
X62339351Y48957535D01*
X62338249Y48957444D01*
X62338189Y48957440D01*
X62275328Y48952243D01*
X62275205Y48952232D01*
X62274443Y48952169D01*
X62200386Y48945971D01*
X62200144Y48945951D01*
X62199863Y48945927D01*
X62199830Y48945924D01*
X62199819Y48945923D01*
X62199813Y48945923D01*
X62199700Y48945913D01*
X62199699Y48945914D01*
X62123968Y48939518D01*
X62114503Y48938718D01*
X62114480Y48938717D01*
X62114068Y48938682D01*
X62114055Y48938680D01*
X62095395Y48937094D01*
X62017397Y48930460D01*
X62017168Y48930440D01*
X62016890Y48930416D01*
X61989521Y48928076D01*
X61908390Y48921139D01*
X61908247Y48921127D01*
X61908008Y48921107D01*
X61787726Y48910778D01*
X61787610Y48910768D01*
X61787538Y48910762D01*
X61787360Y48910747D01*
X61787233Y48910736D01*
X61654404Y48899290D01*
X61654277Y48899279D01*
X61654268Y48899278D01*
X61654222Y48899275D01*
X61654223Y48899274D01*
X61508915Y48886719D01*
X61508912Y48886718D01*
X61350590Y48873004D01*
X61350548Y48873001D01*
X61350549Y48873000D01*
X61293687Y48868065D01*
X61179236Y48858132D01*
X61179199Y48858129D01*
X61179014Y48858113D01*
X61179013Y48858114D01*
X60995683Y48842175D01*
X60995650Y48842172D01*
X60953783Y48838530D01*
X60953772Y48838528D01*
X60885732Y48832602D01*
X60874846Y48831653D01*
X60874783Y48831648D01*
X60874601Y48831632D01*
X60874512Y48831625D01*
X60807222Y48825731D01*
X60807223Y48825730D01*
X60806276Y48825648D01*
X60750237Y48820670D01*
X60750236Y48820671D01*
X60748540Y48820516D01*
X60702736Y48816338D01*
X60699698Y48816055D01*
X60699559Y48816041D01*
X60683637Y48814520D01*
X60663006Y48812549D01*
X60656993Y48811952D01*
X60628556Y48809018D01*
X60618584Y48807921D01*
X60596712Y48805373D01*
X60579385Y48803152D01*
X60563270Y48800896D01*
X60532819Y48795998D01*
X60521237Y48793891D01*
X60468446Y48782322D01*
X60460422Y48780260D01*
X60460418Y48780259D01*
X60378796Y48754269D01*
X60378780Y48754263D01*
X60373166Y48752118D01*
X60282135Y48710221D01*
X60282118Y48710213D01*
X60277775Y48707853D01*
X60230732Y48680044D01*
X60228087Y48678348D01*
X60228084Y48678346D01*
X60108373Y48583230D01*
X60108368Y48583226D01*
X60094847Y48570043D01*
X60090056Y48564934D01*
X60048635Y48520767D01*
X60048633Y48520765D01*
X60048629Y48520760D01*
X60048627Y48520758D01*
X59950715Y48375235D01*
X59950714Y48375235D01*
X59944143Y48362485D01*
X59944142Y48362483D01*
X59890616Y48228604D01*
X59890615Y48228602D01*
X59890615Y48228600D01*
X59861212Y48055665D01*
X59861212Y48055662D01*
X59860763Y48047054D01*
X59859875Y48022014D01*
X59859475Y48000760D01*
X59859382Y47994422D01*
X59859027Y47961100D01*
X59859002Y47958266D01*
X59858882Y47940826D01*
X59858696Y47913998D01*
X59858686Y47912324D01*
X59858429Y47857658D01*
X59858429Y47857586D01*
X59858428Y47857587D01*
X59858425Y47856545D01*
X59858218Y47792492D01*
X59858219Y47792491D01*
X59858217Y47791574D01*
X59858065Y47718786D01*
X59858064Y47718142D01*
X59858035Y47693410D01*
X59857968Y47637605D01*
X59857967Y47637049D01*
X59857932Y47559414D01*
X59857927Y47549507D01*
X57760500Y47549507D01*
X57760500Y48400962D01*
X57721090Y48649785D01*
X57643241Y48889379D01*
X57643239Y48889382D01*
X57643239Y48889384D01*
X57591344Y48991232D01*
X57528870Y49113845D01*
X57453048Y49218205D01*
X57380798Y49317650D01*
X57380794Y49317655D01*
X57202654Y49495795D01*
X57202649Y49495799D01*
X56998848Y49643868D01*
X56998847Y49643869D01*
X56998845Y49643870D01*
X56898497Y49695000D01*
X56774383Y49758240D01*
X56534785Y49836090D01*
X56285962Y49875500D01*
X56034038Y49875500D01*
X55909626Y49855795D01*
X55785214Y49836090D01*
X55545616Y49758240D01*
X55321151Y49643868D01*
X55117350Y49495799D01*
X55117345Y49495795D01*
X54977681Y49356130D01*
X54916358Y49322645D01*
X54846666Y49327629D01*
X54802319Y49356130D01*
X54662654Y49495795D01*
X54662649Y49495799D01*
X54458848Y49643868D01*
X54458847Y49643869D01*
X54458845Y49643870D01*
X54358497Y49695000D01*
X54234383Y49758240D01*
X53994785Y49836090D01*
X53745962Y49875500D01*
X53494038Y49875500D01*
X53369626Y49855795D01*
X53245214Y49836090D01*
X53005616Y49758240D01*
X52781151Y49643868D01*
X52577350Y49495799D01*
X52577345Y49495795D01*
X52437681Y49356130D01*
X52376358Y49322645D01*
X52306666Y49327629D01*
X52262319Y49356130D01*
X52122654Y49495795D01*
X52122649Y49495799D01*
X51918848Y49643868D01*
X51918847Y49643869D01*
X51918845Y49643870D01*
X51818497Y49695000D01*
X51694383Y49758240D01*
X51454785Y49836090D01*
X51205962Y49875500D01*
X50954038Y49875500D01*
X50829626Y49855795D01*
X50705214Y49836090D01*
X50465616Y49758240D01*
X50241151Y49643868D01*
X50037350Y49495799D01*
X50037345Y49495795D01*
X49897681Y49356130D01*
X49836358Y49322645D01*
X49766666Y49327629D01*
X49722319Y49356130D01*
X49582654Y49495795D01*
X49582649Y49495799D01*
X49378848Y49643868D01*
X49378847Y49643869D01*
X49378845Y49643870D01*
X49278497Y49695000D01*
X49154383Y49758240D01*
X48914785Y49836090D01*
X48665962Y49875500D01*
X48414038Y49875500D01*
X48289626Y49855795D01*
X48165214Y49836090D01*
X47925616Y49758240D01*
X47701151Y49643868D01*
X47497350Y49495799D01*
X47497345Y49495795D01*
X47357681Y49356130D01*
X47296358Y49322645D01*
X47226666Y49327629D01*
X47182319Y49356130D01*
X47042654Y49495795D01*
X47042649Y49495799D01*
X46838848Y49643868D01*
X46838847Y49643869D01*
X46838845Y49643870D01*
X46738497Y49695000D01*
X46614383Y49758240D01*
X46374785Y49836090D01*
X46125962Y49875500D01*
X45874038Y49875500D01*
X45749626Y49855795D01*
X45625214Y49836090D01*
X45385616Y49758240D01*
X45161151Y49643868D01*
X44957350Y49495799D01*
X44957345Y49495795D01*
X44817681Y49356130D01*
X44756358Y49322645D01*
X44686666Y49327629D01*
X44642319Y49356130D01*
X44502654Y49495795D01*
X44502649Y49495799D01*
X44298848Y49643868D01*
X44298847Y49643869D01*
X44298845Y49643870D01*
X44198497Y49695000D01*
X44074383Y49758240D01*
X43834785Y49836090D01*
X43585962Y49875500D01*
X43334038Y49875500D01*
X43209626Y49855795D01*
X43085214Y49836090D01*
X42845616Y49758240D01*
X42621151Y49643868D01*
X42417350Y49495799D01*
X42417345Y49495795D01*
X42239205Y49317655D01*
X42239201Y49317650D01*
X42134055Y49172928D01*
X42078725Y49130262D01*
X42009112Y49124283D01*
X41947317Y49156889D01*
X41946056Y49158132D01*
X41799464Y49304724D01*
X41799459Y49304728D01*
X41627557Y49429621D01*
X41438215Y49526097D01*
X41236124Y49591759D01*
X41170000Y49602232D01*
X41170000Y48308012D01*
X41112993Y48340925D01*
X40985826Y48375000D01*
X40854174Y48375000D01*
X40727007Y48340925D01*
X40670000Y48308012D01*
X40670000Y49602232D01*
X40669999Y49602232D01*
X40603875Y49591759D01*
X40401784Y49526097D01*
X40212442Y49429621D01*
X40040540Y49304728D01*
X40040535Y49304724D01*
X39963769Y49227959D01*
X39902446Y49194474D01*
X39832754Y49199460D01*
X39788408Y49227960D01*
X39698657Y49317711D01*
X39698656Y49317712D01*
X39549334Y49409814D01*
X39382797Y49464999D01*
X39382795Y49465000D01*
X39280010Y49475500D01*
X37479998Y49475500D01*
X37479981Y49475499D01*
X37377203Y49465000D01*
X37377200Y49464999D01*
X37210668Y49409815D01*
X37210663Y49409813D01*
X37061342Y49317711D01*
X36937289Y49193658D01*
X36845187Y49044337D01*
X36845186Y49044334D01*
X36790001Y48877797D01*
X36790001Y48877796D01*
X36790000Y48877796D01*
X36779500Y48775017D01*
X36280000Y48775017D01*
X36280000Y49695000D01*
X18268230Y49695000D01*
X18268230Y42956770D01*
X14500500Y42956770D01*
X14500500Y51875500D01*
X14520185Y51942539D01*
X14572989Y51988294D01*
X14624500Y51999500D01*
X75375500Y51999500D01*
X75442539Y51979815D01*
G37*
%TD.AperFunction*%
%TD*%
M02*
