%TF.GenerationSoftware,KiCad,Pcbnew,10.0.1*%
%TF.CreationDate,2026-06-25T14:54:35-03:00*%
%TF.ProjectId,V.Normal,562e4e6f-726d-4616-9c2e-6b696361645f,rev?*%
%TF.SameCoordinates,PX8a48640PY5a995c0*%
%TF.FileFunction,Copper,L1,Top*%
%TF.FilePolarity,Positive*%
%FSLAX46Y46*%
G04 Gerber Fmt 4.6, Leading zero omitted, Abs format (unit mm)*
G04 Created by KiCad (PCBNEW 10.0.1) date 2026-06-25 14:54:35*
%MOMM*%
%LPD*%
G01*
G04 APERTURE LIST*
G04 Aperture macros list*
%AMRoundRect*
0 Rectangle with rounded corners*
0 $1 Rounding radius*
0 $2 $3 $4 $5 $6 $7 $8 $9 X,Y pos of 4 corners*
0 Add a 4 corners polygon primitive as box body*
4,1,4,$2,$3,$4,$5,$6,$7,$8,$9,$2,$3,0*
0 Add four circle primitives for the rounded corners*
1,1,$1+$1,$2,$3*
1,1,$1+$1,$4,$5*
1,1,$1+$1,$6,$7*
1,1,$1+$1,$8,$9*
0 Add four rect primitives between the rounded corners*
20,1,$1+$1,$2,$3,$4,$5,0*
20,1,$1+$1,$4,$5,$6,$7,0*
20,1,$1+$1,$6,$7,$8,$9,0*
20,1,$1+$1,$8,$9,$2,$3,0*%
G04 Aperture macros list end*
%TA.AperFunction,ComponentPad*%
%ADD10R,2.250000X2.250000*%
%TD*%
%TA.AperFunction,ComponentPad*%
%ADD11C,2.250000*%
%TD*%
%TA.AperFunction,ComponentPad*%
%ADD12R,1.600000X1.600000*%
%TD*%
%TA.AperFunction,ComponentPad*%
%ADD13C,1.600000*%
%TD*%
%TA.AperFunction,SMDPad,CuDef*%
%ADD14RoundRect,0.375000X0.375000X-0.625000X0.375000X0.625000X-0.375000X0.625000X-0.375000X-0.625000X0*%
%TD*%
%TA.AperFunction,SMDPad,CuDef*%
%ADD15RoundRect,0.500000X1.400000X-0.500000X1.400000X0.500000X-1.400000X0.500000X-1.400000X-0.500000X0*%
%TD*%
%TA.AperFunction,SMDPad,CuDef*%
%ADD16RoundRect,0.250000X-0.325000X-0.450000X0.325000X-0.450000X0.325000X0.450000X-0.325000X0.450000X0*%
%TD*%
%TA.AperFunction,SMDPad,CuDef*%
%ADD17RoundRect,0.250000X-0.350000X-0.450000X0.350000X-0.450000X0.350000X0.450000X-0.350000X0.450000X0*%
%TD*%
%TA.AperFunction,ComponentPad*%
%ADD18C,1.700000*%
%TD*%
%TA.AperFunction,ComponentPad*%
%ADD19R,1.700000X1.700000*%
%TD*%
%TA.AperFunction,SMDPad,CuDef*%
%ADD20RoundRect,0.250000X-0.337500X-0.475000X0.337500X-0.475000X0.337500X0.475000X-0.337500X0.475000X0*%
%TD*%
%TA.AperFunction,ComponentPad*%
%ADD21O,1.700000X2.500000*%
%TD*%
%TA.AperFunction,SMDPad,CuDef*%
%ADD22RoundRect,0.099000X-0.751000X-0.351000X0.751000X-0.351000X0.751000X0.351000X-0.751000X0.351000X0*%
%TD*%
%TA.AperFunction,SMDPad,CuDef*%
%ADD23RoundRect,0.099000X-0.351000X-0.751000X0.351000X-0.751000X0.351000X0.751000X-0.351000X0.751000X0*%
%TD*%
%TA.AperFunction,SMDPad,CuDef*%
%ADD24R,4.000000X4.000000*%
%TD*%
%TA.AperFunction,SMDPad,CuDef*%
%ADD25RoundRect,0.250000X0.337500X0.475000X-0.337500X0.475000X-0.337500X-0.475000X0.337500X-0.475000X0*%
%TD*%
%TA.AperFunction,SMDPad,CuDef*%
%ADD26RoundRect,0.150000X-0.587500X-0.150000X0.587500X-0.150000X0.587500X0.150000X-0.587500X0.150000X0*%
%TD*%
%TA.AperFunction,ComponentPad*%
%ADD27C,2.500000*%
%TD*%
%TA.AperFunction,SMDPad,CuDef*%
%ADD28RoundRect,0.250000X-0.450000X0.350000X-0.450000X-0.350000X0.450000X-0.350000X0.450000X0.350000X0*%
%TD*%
%TA.AperFunction,SMDPad,CuDef*%
%ADD29RoundRect,0.250000X0.650000X-1.000000X0.650000X1.000000X-0.650000X1.000000X-0.650000X-1.000000X0*%
%TD*%
%TA.AperFunction,SMDPad,CuDef*%
%ADD30RoundRect,0.250000X0.450000X-0.350000X0.450000X0.350000X-0.450000X0.350000X-0.450000X-0.350000X0*%
%TD*%
%TA.AperFunction,SMDPad,CuDef*%
%ADD31RoundRect,0.150000X0.150000X-0.587500X0.150000X0.587500X-0.150000X0.587500X-0.150000X-0.587500X0*%
%TD*%
%TA.AperFunction,SMDPad,CuDef*%
%ADD32RoundRect,0.250000X0.350000X0.450000X-0.350000X0.450000X-0.350000X-0.450000X0.350000X-0.450000X0*%
%TD*%
%TA.AperFunction,ViaPad*%
%ADD33C,1.700000*%
%TD*%
%TA.AperFunction,Conductor*%
%ADD34C,0.700000*%
%TD*%
%TA.AperFunction,Conductor*%
%ADD35C,0.500000*%
%TD*%
%TA.AperFunction,Conductor*%
%ADD36C,1.000000*%
%TD*%
%TA.AperFunction,Conductor*%
%ADD37C,0.200000*%
%TD*%
G04 APERTURE END LIST*
D10*
%TO.P,SW4,1,1_1*%
%TO.N,GND*%
X36310000Y20070000D03*
D11*
%TO.P,SW4,2,2_2*%
%TO.N,BOOT*%
X29810000Y20070000D03*
%TD*%
D12*
%TO.P,BZ1,1,-_1*%
%TO.N,+3V3*%
X45500000Y42500000D03*
D13*
%TO.P,BZ1,2,+_2*%
%TO.N,Net-(BZ1-+)*%
X45500000Y38500000D03*
%TD*%
D14*
%TO.P,U4,3,VI_3*%
%TO.N,Net-(SW1-B)*%
X54060328Y26580000D03*
D15*
%TO.P,U4,2,VO_2*%
%TO.N,+3V3*%
X51760328Y32880000D03*
D14*
X51760328Y26580000D03*
%TO.P,U4,1,GND_1*%
%TO.N,GND*%
X49460328Y26580000D03*
%TD*%
D16*
%TO.P,D1,1,K_1*%
%TO.N,GND*%
X63765000Y25960000D03*
%TO.P,D1,2,A_2*%
%TO.N,Net-(D1-A)*%
X65815000Y25960000D03*
%TD*%
D17*
%TO.P,R1,2*%
%TO.N,Net-(D1-A)*%
X65790000Y23590000D03*
%TO.P,R1,1*%
%TO.N,+3V3*%
X63790000Y23590000D03*
%TD*%
D18*
%TO.P,J7,4,Pin_4_4*%
%TO.N,GND*%
X73600000Y36720000D03*
%TO.P,J7,3,Pin_3_3*%
%TO.N,/SCL*%
X73600000Y39260000D03*
%TO.P,J7,2,Pin_2_2*%
%TO.N,/SDA*%
X73600000Y41800000D03*
D19*
%TO.P,J7,1,Pin_1_1*%
%TO.N,+3V3*%
X73600000Y44340000D03*
%TD*%
D20*
%TO.P,C5,2*%
%TO.N,GND*%
X59087705Y26580000D03*
%TO.P,C5,1*%
%TO.N,Net-(SW1-B)*%
X57012705Y26580000D03*
%TD*%
D19*
%TO.P,J6,1,Pin_1_1*%
%TO.N,+3V3*%
X65980000Y16420000D03*
D18*
%TO.P,J6,2,Pin_2_2*%
%TO.N,TXDO*%
X68520000Y16420000D03*
%TO.P,J6,3,Pin_3_3*%
%TO.N,RXDO*%
X71060000Y16420000D03*
%TO.P,J6,4,Pin_4_4*%
%TO.N,GND*%
X73600000Y16420000D03*
%TD*%
D19*
%TO.P,J2,1,Pin_1_1*%
%TO.N,+3V3*%
X38380000Y47875000D03*
D21*
%TO.P,J2,2,Pin_2_2*%
%TO.N,GND*%
X40920000Y47875000D03*
%TO.P,J2,3,Pin_3_3*%
%TO.N,/SCL*%
X43460000Y47875000D03*
%TO.P,J2,4,Pin_4_4*%
%TO.N,/SDA*%
X46000000Y47875000D03*
%TO.P,J2,5,Pin_5_5*%
%TO.N,unconnected-(J2-Pin_5-Pad5)*%
X48540000Y47875000D03*
%TO.P,J2,6,Pin_6_6*%
%TO.N,unconnected-(J2-Pin_6-Pad6)*%
X51080000Y47875000D03*
%TO.P,J2,7,Pin_7_7*%
%TO.N,unconnected-(J2-Pin_7-Pad7)*%
X53620000Y47875000D03*
%TO.P,J2,8,Pin_8_8*%
%TO.N,unconnected-(J2-Pin_8-Pad8)*%
X56160000Y47875000D03*
%TD*%
D22*
%TO.P,U5,38,GND_38*%
%TO.N,GND*%
X36280000Y42200000D03*
%TO.P,U5,37,IO23_37*%
%TO.N,/Motor*%
X36280000Y40930000D03*
%TO.P,U5,36,IO22_36*%
%TO.N,/SDA*%
X36280000Y39660000D03*
%TO.P,U5,35,TXD0_35*%
%TO.N,TXDO*%
X36280000Y38390000D03*
%TO.P,U5,34,RXD0_34*%
%TO.N,RXDO*%
X36280000Y37120000D03*
%TO.P,U5,33,IO21_33*%
%TO.N,/SCL*%
X36280000Y35850000D03*
%TO.P,U5,32*%
%TO.N,N/C*%
X36280000Y34580000D03*
%TO.P,U5,31,IO19_31*%
%TO.N,unconnected-(U5-IO19-Pad31)*%
X36280000Y33310000D03*
%TO.P,U5,30,IO18_30*%
%TO.N,/Buzzer*%
X36280000Y32040000D03*
%TO.P,U5,29,IO5_29*%
%TO.N,unconnected-(U5-IO5-Pad29)*%
X36280000Y30770000D03*
%TO.P,U5,28,IO17_28*%
%TO.N,/IND.BAT*%
X36280000Y29500000D03*
%TO.P,U5,27,IO16_27*%
%TO.N,unconnected-(U5-IO16-Pad27)*%
X36280000Y28230000D03*
%TO.P,U5,26,IO4_26*%
%TO.N,/Temp.*%
X36280000Y26960000D03*
%TO.P,U5,25,IO0_25*%
%TO.N,BOOT*%
X36280000Y25690000D03*
D23*
%TO.P,U5,24,IO2_24*%
%TO.N,unconnected-(U5-IO2-Pad24)*%
X32995000Y24190000D03*
%TO.P,U5,23,IO15_23*%
%TO.N,unconnected-(U5-IO15-Pad23)*%
X31725000Y24190000D03*
%TO.P,U5,22,SDI/SD1_22*%
%TO.N,unconnected-(U5-SDI{slash}SD1-Pad22)*%
X30455000Y24190000D03*
%TO.P,U5,21,SDO/SD0_21*%
%TO.N,unconnected-(U5-SDO{slash}SD0-Pad21)*%
X29185000Y24190000D03*
%TO.P,U5,20,SCK/CLK_20*%
%TO.N,unconnected-(U5-SCK{slash}CLK-Pad20)*%
X27915000Y24190000D03*
%TO.P,U5,19,SCS/CMD_19*%
%TO.N,unconnected-(U5-SCS{slash}CMD-Pad19)*%
X26645000Y24190000D03*
%TO.P,U5,18,SWP/SD3_18*%
%TO.N,unconnected-(U5-SWP{slash}SD3-Pad18)*%
X25375000Y24190000D03*
%TO.P,U5,17,SHD/SD2_17*%
%TO.N,unconnected-(U5-SHD{slash}SD2-Pad17)*%
X24105000Y24190000D03*
%TO.P,U5,16,IO13_16*%
%TO.N,unconnected-(U5-IO13-Pad16)*%
X22835000Y24190000D03*
%TO.P,U5,15,GND_15*%
%TO.N,GND*%
X21565000Y24190000D03*
D22*
%TO.P,U5,14,IO12_14*%
%TO.N,unconnected-(U5-IO12-Pad14)*%
X18280000Y25690000D03*
%TO.P,U5,13,IO14_13*%
%TO.N,unconnected-(U5-IO14-Pad13)*%
X18280000Y26960000D03*
%TO.P,U5,12,IO27_12*%
%TO.N,unconnected-(U5-IO27-Pad12)*%
X18280000Y28230000D03*
%TO.P,U5,11,IO26_11*%
%TO.N,unconnected-(U5-IO26-Pad11)*%
X18280000Y29500000D03*
%TO.P,U5,10,IO25_10*%
%TO.N,unconnected-(U5-IO25-Pad10)*%
X18280000Y30770000D03*
%TO.P,U5,9,IO33_9*%
%TO.N,unconnected-(U5-IO33-Pad9)*%
X18280000Y32040000D03*
%TO.P,U5,8,IO32_8*%
%TO.N,unconnected-(U5-IO32-Pad8)*%
X18280000Y33310000D03*
%TO.P,U5,7,IO35_7*%
%TO.N,unconnected-(U5-IO35-Pad7)*%
X18280000Y34580000D03*
%TO.P,U5,6,IO34_6*%
%TO.N,unconnected-(U5-IO34-Pad6)*%
X18280000Y35850000D03*
%TO.P,U5,5,SENSOR_VN_5*%
%TO.N,unconnected-(U5-SENSOR_VN-Pad5)*%
X18280000Y37120000D03*
%TO.P,U5,4,SENSOR_VP_4*%
%TO.N,unconnected-(U5-SENSOR_VP-Pad4)*%
X18280000Y38390000D03*
%TO.P,U5,3,EN_3*%
%TO.N,EN*%
X18280000Y39660000D03*
%TO.P,U5,2,3V3_2*%
%TO.N,+3V3*%
X18280000Y40930000D03*
D24*
%TO.P,U5,1.1,GND_1.1*%
%TO.N,GND*%
X26580000Y34790000D03*
D22*
%TO.P,U5,1,GND_1*%
X18280000Y42200000D03*
%TD*%
D25*
%TO.P,C11,2*%
%TO.N,GND*%
X28500000Y16310000D03*
%TO.P,C11,1*%
%TO.N,BOOT*%
X30575000Y16310000D03*
%TD*%
D26*
%TO.P,Q2,3,C_3*%
%TO.N,Net-(D2-A)*%
X65075000Y29900000D03*
%TO.P,Q2,2,E_2*%
%TO.N,GND*%
X63200000Y28950000D03*
%TO.P,Q2,1,B_1*%
%TO.N,Net-(Q2-B)*%
X63200000Y30850000D03*
%TD*%
D21*
%TO.P,J4,2,Pin_2_2*%
%TO.N,Net-(D2-A)*%
X71060000Y48050000D03*
D19*
%TO.P,J4,1,Pin_1_1*%
%TO.N,+3V3*%
X73600000Y48050000D03*
%TD*%
D27*
%TO.P,SW1,1,A_1*%
%TO.N,+BATT*%
X53830000Y19880000D03*
%TO.P,SW1,2,B_2*%
%TO.N,Net-(SW1-B)*%
X58910000Y19880000D03*
%TD*%
%TO.P,J5,1,Pin_1_1*%
%TO.N,GND*%
X41500000Y19940000D03*
%TO.P,J5,2,Pin_2_2*%
%TO.N,+BATT*%
X46580000Y19940000D03*
%TD*%
D28*
%TO.P,R3,1*%
%TO.N,/IND.BAT*%
X41480000Y26170000D03*
%TO.P,R3,2*%
%TO.N,GND*%
X41480000Y24170000D03*
%TD*%
D17*
%TO.P,R5,1*%
%TO.N,/Motor*%
X60870000Y33050000D03*
%TO.P,R5,2*%
%TO.N,Net-(Q2-B)*%
X62870000Y33050000D03*
%TD*%
D29*
%TO.P,D2,1,K_1*%
%TO.N,+3V3*%
X68100000Y29350000D03*
%TO.P,D2,2,A_2*%
%TO.N,Net-(D2-A)*%
X68100000Y33350000D03*
%TD*%
D20*
%TO.P,C6,1*%
%TO.N,+3V3*%
X56762500Y32950000D03*
%TO.P,C6,2*%
%TO.N,GND*%
X58837500Y32950000D03*
%TD*%
D30*
%TO.P,R2,1*%
%TO.N,+BATT*%
X46530000Y24180000D03*
%TO.P,R2,2*%
%TO.N,/IND.BAT*%
X46530000Y26180000D03*
%TD*%
D17*
%TO.P,R10,1*%
%TO.N,BOOT*%
X34300000Y16310000D03*
%TO.P,R10,2*%
%TO.N,+3V3*%
X36300000Y16310000D03*
%TD*%
%TO.P,R9,1*%
%TO.N,EN*%
X16300000Y16310000D03*
%TO.P,R9,2*%
%TO.N,+3V3*%
X18300000Y16310000D03*
%TD*%
D20*
%TO.P,C10,1*%
%TO.N,EN*%
X22175000Y16310000D03*
%TO.P,C10,2*%
%TO.N,GND*%
X24250000Y16310000D03*
%TD*%
D31*
%TO.P,Q1,1,B_1*%
%TO.N,Net-(Q1-B)*%
X44550000Y32040000D03*
%TO.P,Q1,2,E_2*%
%TO.N,GND*%
X46450000Y32040000D03*
%TO.P,Q1,3,C_3*%
%TO.N,Net-(BZ1-+)*%
X45500000Y33915000D03*
%TD*%
D32*
%TO.P,R4,1*%
%TO.N,Net-(Q1-B)*%
X41700000Y32040000D03*
%TO.P,R4,2*%
%TO.N,/Buzzer*%
X39700000Y32040000D03*
%TD*%
D10*
%TO.P,SW3,1,1_1*%
%TO.N,GND*%
X24130000Y20070000D03*
D11*
%TO.P,SW3,2,2_2*%
%TO.N,EN*%
X17630000Y20070000D03*
%TD*%
D18*
%TO.P,J1,3,Pin_3_3*%
%TO.N,GND*%
X73600000Y20130000D03*
%TO.P,J1,2,Pin_2_2*%
%TO.N,+3V3*%
X73600000Y22670000D03*
D19*
%TO.P,J1,1,Pin_1_1*%
%TO.N,/Temp.*%
X73600000Y25210000D03*
%TD*%
D33*
%TO.N,/Temp.*%
X69210000Y19480000D03*
%TO.N,/SCL*%
X56310000Y38140000D03*
%TO.N,/SDA*%
X56280000Y41800000D03*
%TO.N,+3V3*%
X61400000Y25990000D03*
%TO.N,/SCL*%
X43500000Y35250000D03*
%TO.N,/Temp.*%
X39000000Y27000000D03*
%TO.N,+3V3*%
X51750000Y43250000D03*
X20200000Y18250000D03*
X38200000Y18150000D03*
X51750000Y36960000D03*
X56762500Y29350000D03*
%TO.N,/Motor*%
X60870000Y30820000D03*
X39500000Y42250000D03*
%TO.N,Net-(D2-A)*%
X68100000Y35950000D03*
%TO.N,RXDO*%
X39340000Y36750000D03*
%TO.N,TXDO*%
X64800000Y36450000D03*
X64800000Y39850000D03*
%TD*%
%TO.N,Net-(Q2-B)*%
D34*
X62870000Y31180000D02*
X62870000Y33050000D01*
X63200000Y30850000D02*
X62870000Y31180000D01*
%TO.N,+3V3*%
X51750000Y35750000D02*
X51760328Y35739672D01*
X51750000Y36960000D02*
X51750000Y35750000D01*
X51760328Y35739672D02*
X51760328Y32880000D01*
%TO.N,/SCL*%
X56320000Y38150000D02*
X56310000Y38140000D01*
X65790000Y38150000D02*
X56320000Y38150000D01*
X66900000Y39260000D02*
X65790000Y38150000D01*
X73600000Y39260000D02*
X66900000Y39260000D01*
%TO.N,/SDA*%
X56280000Y41800000D02*
X73600000Y41800000D01*
%TO.N,TXDO*%
X66200000Y36450000D02*
X64800000Y36450000D01*
X67300000Y37550000D02*
X66200000Y36450000D01*
X70320000Y23050000D02*
X70320000Y36680000D01*
X69450000Y37550000D02*
X67300000Y37550000D01*
X70320000Y36680000D02*
X69450000Y37550000D01*
X67680000Y18570000D02*
X67680000Y20410000D01*
X68500000Y17750000D02*
X67680000Y18570000D01*
X68500000Y16440000D02*
X68500000Y17750000D01*
X67680000Y20410000D02*
X70320000Y23050000D01*
X68520000Y16420000D02*
X68500000Y16440000D01*
%TO.N,+3V3*%
X68100000Y22820000D02*
X68100000Y29350000D01*
X65980000Y20700000D02*
X68100000Y22820000D01*
X65980000Y16420000D02*
X65980000Y20700000D01*
X61400000Y25990000D02*
X61400000Y24350000D01*
X61400000Y24350000D02*
X62160000Y23590000D01*
X62160000Y23590000D02*
X63790000Y23590000D01*
X63790000Y21010000D02*
X65980000Y18820000D01*
X65980000Y18820000D02*
X65980000Y16420000D01*
X63790000Y23590000D02*
X63790000Y21010000D01*
%TO.N,Net-(D1-A)*%
X65815000Y23615000D02*
X65790000Y23590000D01*
X65815000Y25960000D02*
X65815000Y23615000D01*
%TO.N,GND*%
D35*
X58902500Y26587500D02*
X58910000Y26580000D01*
X58900000Y26587500D02*
X58901000Y26588800D01*
X58909800Y26580000D02*
X58910000Y26580000D01*
X58902500Y26590000D02*
X58902500Y26587500D01*
X58901000Y26588800D02*
X58909800Y26580000D01*
%TO.N,+BATT*%
D36*
X46560000Y24150000D02*
X46530000Y24180000D01*
D35*
X46560000Y19880000D02*
X46540000Y19900000D01*
D36*
X46560000Y19880000D02*
X46560000Y24150000D01*
X53830000Y19880000D02*
X46560000Y19880000D01*
%TO.N,Net-(SW1-B)*%
D34*
X58920000Y22330000D02*
X58920000Y19890000D01*
X57000000Y24250000D02*
X58920000Y22330000D01*
X57000000Y26567295D02*
X57000000Y24250000D01*
X58920000Y19890000D02*
X58930000Y19880000D01*
X57012705Y26580000D02*
X57000000Y26567295D01*
%TO.N,/IND.BAT*%
D37*
X41490000Y26180000D02*
X41480000Y26170000D01*
D34*
X41460000Y28240000D02*
X40200000Y29500000D01*
X40200000Y29500000D02*
X36280000Y29500000D01*
X41460000Y28240000D02*
X41480000Y28220000D01*
X46530000Y26180000D02*
X41490000Y26180000D01*
X41480000Y28220000D02*
X41480000Y26170000D01*
%TO.N,/Temp.*%
X36280000Y26960000D02*
X39040000Y26960000D01*
X39000000Y27000000D02*
X39040000Y26960000D01*
%TO.N,+3V3*%
X45500000Y42500000D02*
X46250000Y43250000D01*
X18900000Y18250000D02*
X18300000Y17650000D01*
X45500000Y42500000D02*
X45450000Y42450000D01*
D35*
X57040000Y29690000D02*
X56700000Y29350000D01*
D34*
X38400000Y44450000D02*
X38400000Y45050000D01*
X65560000Y16310000D02*
X38200000Y16310000D01*
X38800000Y44050000D02*
X38400000Y44450000D01*
X38380000Y48091390D02*
X36221390Y50250000D01*
X38200000Y18150000D02*
X38200000Y16310000D01*
X20200000Y18250000D02*
X18900000Y18250000D01*
X36391000Y16401000D02*
X36300000Y16310000D01*
X67550000Y29900000D02*
X68100000Y29350000D01*
X18300000Y17650000D02*
X18300000Y16310000D01*
X16250000Y41575000D02*
X16895000Y40930000D01*
X38380000Y45070000D02*
X38380000Y47875000D01*
X46250000Y43250000D02*
X51750000Y43250000D01*
X17000000Y50250000D02*
X16250000Y49500000D01*
X43200000Y42450000D02*
X41600000Y44050000D01*
X56692500Y32880000D02*
X56762500Y32950000D01*
X16895000Y40930000D02*
X18280000Y40930000D01*
X38380000Y47875000D02*
X38380000Y48091390D01*
X38400000Y45050000D02*
X38380000Y45070000D01*
X36300000Y16310000D02*
X38200000Y16310000D01*
X16250000Y49500000D02*
X16250000Y41575000D01*
X56762500Y29350000D02*
X56762500Y32950000D01*
X65670000Y16420000D02*
X65560000Y16310000D01*
X51760328Y32880000D02*
X56692500Y32880000D01*
X51760328Y32880000D02*
X51760328Y26580000D01*
X45450000Y42450000D02*
X43200000Y42450000D01*
X36221390Y50250000D02*
X17000000Y50250000D01*
X65980000Y16420000D02*
X65670000Y16420000D01*
X41600000Y44050000D02*
X38800000Y44050000D01*
%TO.N,/Motor*%
X39500000Y41250000D02*
X39500000Y42250000D01*
X36310000Y40960000D02*
X36280000Y40930000D01*
X39180000Y40930000D02*
X39500000Y41250000D01*
D35*
X39500000Y42250000D02*
X39310000Y42250000D01*
D34*
X36280000Y40930000D02*
X39180000Y40930000D01*
X60870000Y30820000D02*
X60870000Y33050000D01*
%TO.N,Net-(D2-A)*%
X66400000Y33350000D02*
X68100000Y33350000D01*
X68100000Y33350000D02*
X68100000Y35950000D01*
X65075000Y29900000D02*
X65075000Y32025000D01*
X65075000Y32025000D02*
X66400000Y33350000D01*
%TO.N,EN*%
X17030000Y39660000D02*
X16810000Y39440000D01*
X16410000Y21290000D02*
X16410000Y39040000D01*
X22175000Y18725000D02*
X20830000Y20070000D01*
X16300000Y18670000D02*
X16300000Y18740000D01*
X17630000Y20070000D02*
X16410000Y21290000D01*
X16810000Y39440000D02*
X16410000Y39040000D01*
X20830000Y20070000D02*
X17630000Y20070000D01*
X16300000Y18740000D02*
X17630000Y20070000D01*
X18280000Y39660000D02*
X17030000Y39660000D01*
X16300000Y18670000D02*
X16300000Y16310000D01*
X22175000Y16310000D02*
X22175000Y18725000D01*
%TO.N,BOOT*%
X29810000Y20780000D02*
X29810000Y20070000D01*
X30575000Y17685000D02*
X29810000Y18450000D01*
X36280000Y22780000D02*
X35350000Y21850000D01*
X29810000Y18450000D02*
X29810000Y20070000D01*
X30575000Y16310000D02*
X34300000Y16310000D01*
X35350000Y21850000D02*
X30880000Y21850000D01*
X30575000Y16310000D02*
X30575000Y17685000D01*
X36280000Y25690000D02*
X36280000Y22780000D01*
X30880000Y21850000D02*
X29810000Y20780000D01*
%TO.N,/Buzzer*%
X39700000Y32040000D02*
X36280000Y32040000D01*
%TO.N,RXDO*%
X39340000Y36750000D02*
X38970000Y37120000D01*
X38970000Y37120000D02*
X36280000Y37120000D01*
%TO.N,TXDO*%
X43516000Y40000000D02*
X41866000Y38350000D01*
X64800000Y39850000D02*
X64650000Y40000000D01*
D35*
X36320000Y38350000D02*
X36280000Y38390000D01*
D34*
X41866000Y38350000D02*
X36320000Y38350000D01*
X64650000Y40000000D02*
X43516000Y40000000D01*
%TO.N,Net-(SW1-B)*%
X54060328Y26580000D02*
X57012705Y26580000D01*
%TO.N,+BATT*%
D35*
X46530000Y23650000D02*
X46540000Y23640000D01*
%TO.N,Net-(BZ1-+)*%
D34*
X45500000Y33915000D02*
X45500000Y38500000D01*
%TO.N,Net-(Q1-B)*%
X44550000Y32040000D02*
X41700000Y32040000D01*
%TO.N,/SCL*%
X36280000Y35850000D02*
X37900000Y35850000D01*
X38500000Y35250000D02*
X43500000Y35250000D01*
X37900000Y35850000D02*
X38500000Y35250000D01*
%TO.N,+3V3*%
X38380000Y47875000D02*
X40755000Y50250000D01*
X72500000Y50250000D02*
X73600000Y49150000D01*
X40755000Y50250000D02*
X72500000Y50250000D01*
X73600000Y49150000D02*
X73600000Y48050000D01*
X73600000Y44340000D02*
X73600000Y48050000D01*
%TO.N,/SDA*%
X56280000Y41800000D02*
X53410000Y41800000D01*
X53410000Y41800000D02*
X52610000Y41000000D01*
X52610000Y41000000D02*
X42250000Y41000000D01*
X42250000Y41000000D02*
X40900000Y39650000D01*
X40900000Y39650000D02*
X36290000Y39650000D01*
X36290000Y39650000D02*
X36280000Y39660000D01*
%TO.N,/Temp.*%
X72410000Y25210000D02*
X73600000Y25210000D01*
X71750000Y24550000D02*
X72410000Y25210000D01*
X71740000Y20870000D02*
X71750000Y20880000D01*
X71740000Y20130000D02*
X71740000Y20870000D01*
X71090000Y19480000D02*
X71740000Y20130000D01*
X69210000Y19480000D02*
X71090000Y19480000D01*
X71750000Y20880000D02*
X71750000Y24550000D01*
%TD*%
%TA.AperFunction,Conductor*%
%TO.N,GND*%
G36*
X34628039Y20729815D02*
G01*
X34673794Y20677011D01*
X34685000Y20625500D01*
X34685000Y20320000D01*
X35709999Y20320000D01*
X35684979Y20259598D01*
X35660000Y20134019D01*
X35660000Y20005981D01*
X35684979Y19880402D01*
X35709999Y19820000D01*
X34685000Y19820000D01*
X34685000Y18897156D01*
X34691401Y18837628D01*
X34691403Y18837621D01*
X34741645Y18702914D01*
X34741649Y18702907D01*
X34827809Y18587813D01*
X34827812Y18587810D01*
X34942906Y18501650D01*
X34942913Y18501646D01*
X35077620Y18451404D01*
X35077627Y18451402D01*
X35137155Y18445001D01*
X35137172Y18445000D01*
X36060000Y18445000D01*
X36060000Y19469999D01*
X36120402Y19444979D01*
X36245981Y19420000D01*
X36374019Y19420000D01*
X36499598Y19444979D01*
X36560000Y19469999D01*
X36560000Y18445000D01*
X36572535Y18432465D01*
X36606020Y18371142D01*
X36607328Y18325389D01*
X36599500Y18275959D01*
X36599500Y18024038D01*
X36599499Y18024038D01*
X36618528Y17903897D01*
X36609573Y17834604D01*
X36564577Y17781152D01*
X36497825Y17760513D01*
X36496055Y17760500D01*
X35891971Y17760500D01*
X35891965Y17760500D01*
X35891964Y17760499D01*
X35880316Y17759464D01*
X35772584Y17749887D01*
X35576954Y17693911D01*
X35396590Y17599697D01*
X35378360Y17584831D01*
X35313963Y17557723D01*
X35245134Y17569733D01*
X35221640Y17584831D01*
X35203409Y17599697D01*
X35023045Y17693911D01*
X34873298Y17736758D01*
X34827418Y17749886D01*
X34827415Y17749887D01*
X34827413Y17749887D01*
X34761102Y17755783D01*
X34708037Y17760500D01*
X34708032Y17760500D01*
X33891971Y17760500D01*
X33891965Y17760500D01*
X33891964Y17760499D01*
X33880316Y17759464D01*
X33772584Y17749887D01*
X33576954Y17693911D01*
X33523673Y17666079D01*
X33396593Y17599698D01*
X33396591Y17599697D01*
X33396590Y17599696D01*
X33240755Y17472629D01*
X33238891Y17471109D01*
X33234014Y17465127D01*
X33226685Y17456139D01*
X33169063Y17416622D01*
X33130583Y17410500D01*
X31799500Y17410500D01*
X31732461Y17430185D01*
X31686706Y17482989D01*
X31675500Y17534500D01*
X31675500Y17771611D01*
X31658412Y17879500D01*
X31648402Y17942701D01*
X31627162Y18008072D01*
X31594873Y18107446D01*
X31594871Y18107449D01*
X31594871Y18107451D01*
X31537553Y18219943D01*
X31516232Y18261788D01*
X31414414Y18401928D01*
X31192030Y18624312D01*
X31158545Y18685635D01*
X31163529Y18755327D01*
X31192027Y18799672D01*
X31223101Y18830744D01*
X31372767Y19025792D01*
X31495694Y19238708D01*
X31589778Y19465847D01*
X31653409Y19703323D01*
X31685500Y19947073D01*
X31685500Y20192927D01*
X31653409Y20436677D01*
X31611413Y20593410D01*
X31613076Y20663257D01*
X31652239Y20721119D01*
X31716467Y20748623D01*
X31731188Y20749500D01*
X34561000Y20749500D01*
X34628039Y20729815D01*
G37*
%TD.AperFunction*%
%TA.AperFunction,Conductor*%
G36*
X54770280Y38879815D02*
G01*
X54816035Y38827011D01*
X54825979Y38757853D01*
X54821174Y38737192D01*
X54791421Y38645621D01*
X54748909Y38514786D01*
X54719463Y38328868D01*
X54709500Y38265962D01*
X54709500Y38014038D01*
X54745788Y37784926D01*
X54748910Y37765215D01*
X54826760Y37525617D01*
X54941132Y37301152D01*
X55089201Y37097351D01*
X55089205Y37097346D01*
X55267345Y36919206D01*
X55267350Y36919202D01*
X55361911Y36850500D01*
X55471155Y36771130D01*
X55614184Y36698253D01*
X55695616Y36656761D01*
X55695618Y36656761D01*
X55695621Y36656759D01*
X55935215Y36578910D01*
X56184038Y36539500D01*
X56184039Y36539500D01*
X56435961Y36539500D01*
X56435962Y36539500D01*
X56684785Y36578910D01*
X56924379Y36656759D01*
X57148845Y36771130D01*
X57352656Y36919207D01*
X57446630Y37013181D01*
X57507953Y37046666D01*
X57534311Y37049500D01*
X63141253Y37049500D01*
X63208292Y37029815D01*
X63254047Y36977011D01*
X63263991Y36907853D01*
X63259184Y36887182D01*
X63238909Y36824783D01*
X63238909Y36824782D01*
X63206296Y36618870D01*
X63199500Y36575962D01*
X63199500Y36324038D01*
X63231634Y36121155D01*
X63238910Y36075215D01*
X63316760Y35835617D01*
X63357319Y35756017D01*
X63404515Y35663389D01*
X63431132Y35611152D01*
X63579201Y35407351D01*
X63579205Y35407346D01*
X63757345Y35229206D01*
X63757350Y35229202D01*
X63919829Y35111155D01*
X63961155Y35081130D01*
X64094666Y35013103D01*
X64185616Y34966761D01*
X64185618Y34966761D01*
X64185621Y34966759D01*
X64425215Y34888910D01*
X64674038Y34849500D01*
X64674039Y34849500D01*
X64925961Y34849500D01*
X64925962Y34849500D01*
X65174785Y34888910D01*
X65414379Y34966759D01*
X65638845Y35081130D01*
X65842656Y35229207D01*
X65926630Y35313181D01*
X65987953Y35346666D01*
X66014311Y35349500D01*
X66286610Y35349500D01*
X66286611Y35349500D01*
X66457701Y35376598D01*
X66475529Y35382392D01*
X66509597Y35383366D01*
X66543656Y35384825D01*
X66544449Y35384362D01*
X66545368Y35384388D01*
X66574550Y35366792D01*
X66603997Y35349603D01*
X66604692Y35348617D01*
X66605202Y35348309D01*
X66624333Y35320756D01*
X66713114Y35146513D01*
X66726010Y35077843D01*
X66699734Y35013103D01*
X66698731Y35011857D01*
X66661959Y34966759D01*
X66610302Y34903407D01*
X66563196Y34813228D01*
X66516089Y34723046D01*
X66489609Y34630500D01*
X66463825Y34540388D01*
X66426459Y34481351D01*
X66363105Y34451887D01*
X66344610Y34450500D01*
X66313389Y34450500D01*
X66273728Y34444219D01*
X66142302Y34423403D01*
X65977552Y34369872D01*
X65823211Y34291232D01*
X65766743Y34250205D01*
X65683072Y34189414D01*
X65683070Y34189412D01*
X65683069Y34189412D01*
X64432180Y32938522D01*
X64370857Y32905037D01*
X64301165Y32910021D01*
X64245232Y32951893D01*
X64220815Y33017357D01*
X64220499Y33026203D01*
X64220499Y33558029D01*
X64220499Y33558036D01*
X64209886Y33677418D01*
X64153909Y33873049D01*
X64059698Y34053407D01*
X63992264Y34136108D01*
X63931109Y34211110D01*
X63773409Y34339696D01*
X63773410Y34339696D01*
X63773407Y34339698D01*
X63593049Y34433909D01*
X63593048Y34433910D01*
X63593045Y34433911D01*
X63459895Y34472009D01*
X63397418Y34489886D01*
X63397415Y34489887D01*
X63397413Y34489887D01*
X63331102Y34495783D01*
X63278037Y34500500D01*
X63278032Y34500500D01*
X62461971Y34500500D01*
X62461965Y34500500D01*
X62461964Y34500499D01*
X62450316Y34499464D01*
X62342584Y34489887D01*
X62146954Y34433911D01*
X61966590Y34339697D01*
X61948360Y34324831D01*
X61883963Y34297723D01*
X61815134Y34309733D01*
X61791640Y34324831D01*
X61773409Y34339697D01*
X61593045Y34433911D01*
X61459895Y34472009D01*
X61397418Y34489886D01*
X61397415Y34489887D01*
X61397413Y34489887D01*
X61331102Y34495783D01*
X61278037Y34500500D01*
X61278032Y34500500D01*
X60461971Y34500500D01*
X60461965Y34500500D01*
X60461964Y34500499D01*
X60450316Y34499464D01*
X60342584Y34489887D01*
X60146954Y34433911D01*
X60126838Y34423403D01*
X59966593Y34339698D01*
X59966591Y34339697D01*
X59966590Y34339696D01*
X59808890Y34211110D01*
X59717042Y34098466D01*
X59659421Y34058949D01*
X59589582Y34056857D01*
X59555844Y34071288D01*
X59494128Y34109355D01*
X59494119Y34109359D01*
X59327697Y34164506D01*
X59327690Y34164507D01*
X59224986Y34175000D01*
X59087500Y34175000D01*
X59087500Y31725001D01*
X59224972Y31725001D01*
X59224986Y31725002D01*
X59325442Y31735264D01*
X59394135Y31722494D01*
X59445019Y31674614D01*
X59461940Y31606824D01*
X59448529Y31555612D01*
X59386761Y31434387D01*
X59308910Y31194786D01*
X59308517Y31192304D01*
X59269500Y30945962D01*
X59269500Y30694038D01*
X59296821Y30521543D01*
X59308910Y30445215D01*
X59386760Y30205617D01*
X59501132Y29981152D01*
X59649201Y29777351D01*
X59649205Y29777346D01*
X59827345Y29599206D01*
X59827350Y29599202D01*
X59996977Y29475962D01*
X60031155Y29451130D01*
X60152215Y29389447D01*
X60255616Y29336761D01*
X60255618Y29336761D01*
X60255621Y29336759D01*
X60495215Y29258910D01*
X60744038Y29219500D01*
X60744039Y29219500D01*
X60995961Y29219500D01*
X60995962Y29219500D01*
X61244785Y29258910D01*
X61484379Y29336759D01*
X61708845Y29451130D01*
X61848897Y29552884D01*
X61914702Y29576363D01*
X61982756Y29560538D01*
X62031451Y29510432D01*
X62045326Y29441954D01*
X62028515Y29389447D01*
X62011218Y29360199D01*
X61965399Y29202487D01*
X61965204Y29200002D01*
X61965205Y29200000D01*
X63076000Y29200000D01*
X63143039Y29180315D01*
X63188794Y29127511D01*
X63200000Y29076000D01*
X63200000Y28950000D01*
X63326000Y28950000D01*
X63393039Y28930315D01*
X63438794Y28877511D01*
X63450000Y28826000D01*
X63450000Y28150000D01*
X63853134Y28150000D01*
X63853149Y28150001D01*
X63889989Y28152900D01*
X63889995Y28152901D01*
X64047693Y28198717D01*
X64047696Y28198718D01*
X64189052Y28282315D01*
X64189061Y28282322D01*
X64305178Y28398439D01*
X64305185Y28398448D01*
X64388782Y28539804D01*
X64388783Y28539807D01*
X64434599Y28697505D01*
X64434600Y28697510D01*
X64437569Y28735231D01*
X64439034Y28739077D01*
X64438449Y28743148D01*
X64451371Y28771444D01*
X64462453Y28800519D01*
X64465764Y28802962D01*
X64467474Y28806704D01*
X64493649Y28823526D01*
X64518685Y28841989D01*
X64523780Y28842890D01*
X64526252Y28844478D01*
X64561182Y28849501D01*
X64727172Y28849501D01*
X64765490Y28843432D01*
X64781347Y28838280D01*
X64817299Y28826598D01*
X64988389Y28799500D01*
X64988390Y28799500D01*
X65161610Y28799500D01*
X65161611Y28799500D01*
X65332701Y28826598D01*
X65372737Y28839607D01*
X65384510Y28843432D01*
X65422828Y28849501D01*
X65725511Y28849501D01*
X65725520Y28849501D01*
X65804145Y28855688D01*
X65986988Y28904680D01*
X66155649Y28990617D01*
X66247466Y29064970D01*
X66311950Y29091860D01*
X66380739Y29079619D01*
X66431990Y29032131D01*
X66449500Y28968603D01*
X66449500Y28291972D01*
X66449501Y28291966D01*
X66460113Y28172585D01*
X66516089Y27976955D01*
X66516090Y27976952D01*
X66516091Y27976951D01*
X66610302Y27796593D01*
X66635159Y27766108D01*
X66738890Y27638891D01*
X66792719Y27595000D01*
X66896593Y27510302D01*
X66932910Y27491332D01*
X66943421Y27481202D01*
X66956703Y27475136D01*
X66968075Y27457441D01*
X66983218Y27442846D01*
X66987264Y27427582D01*
X66994477Y27416358D01*
X66999500Y27381423D01*
X66999500Y27261218D01*
X66979815Y27194179D01*
X66927011Y27148424D01*
X66857853Y27138480D01*
X66797139Y27165116D01*
X66714599Y27232418D01*
X66693407Y27249698D01*
X66513049Y27343909D01*
X66513048Y27343910D01*
X66513045Y27343911D01*
X66381943Y27381423D01*
X66317418Y27399886D01*
X66317415Y27399887D01*
X66317413Y27399887D01*
X66251102Y27405783D01*
X66198037Y27410500D01*
X66198032Y27410500D01*
X65431971Y27410500D01*
X65431965Y27410500D01*
X65431964Y27410499D01*
X65420316Y27409464D01*
X65312584Y27399887D01*
X65116954Y27343911D01*
X65033246Y27300185D01*
X64936593Y27249698D01*
X64936591Y27249697D01*
X64936590Y27249696D01*
X64778890Y27121110D01*
X64709327Y27035796D01*
X64651706Y26996279D01*
X64581868Y26994187D01*
X64548128Y27008618D01*
X64409124Y27094357D01*
X64409119Y27094359D01*
X64242697Y27149506D01*
X64242690Y27149507D01*
X64139986Y27160000D01*
X64015000Y27160000D01*
X64015000Y26084000D01*
X63995315Y26016961D01*
X63942511Y25971206D01*
X63891000Y25960000D01*
X63639000Y25960000D01*
X63571961Y25979685D01*
X63526206Y26032489D01*
X63515000Y26084000D01*
X63515000Y27160000D01*
X63390027Y27160000D01*
X63390012Y27159999D01*
X63287302Y27149506D01*
X63120880Y27094359D01*
X63120875Y27094357D01*
X62971657Y27002318D01*
X62883867Y26914528D01*
X62822543Y26881044D01*
X62752852Y26886028D01*
X62696918Y26927900D01*
X62695868Y26929325D01*
X62620798Y27032650D01*
X62620794Y27032655D01*
X62442654Y27210795D01*
X62442649Y27210799D01*
X62238848Y27358868D01*
X62238847Y27358869D01*
X62238845Y27358870D01*
X62168747Y27394587D01*
X62014383Y27473240D01*
X61774785Y27551090D01*
X61686494Y27565074D01*
X61525962Y27590500D01*
X61274038Y27590500D01*
X61149626Y27570795D01*
X61025214Y27551090D01*
X60785616Y27473240D01*
X60561151Y27358868D01*
X60357350Y27210799D01*
X60354031Y27207480D01*
X60292705Y27174000D01*
X60223014Y27178989D01*
X60167083Y27220865D01*
X60148650Y27256164D01*
X60109563Y27374120D01*
X60109561Y27374125D01*
X60017520Y27523346D01*
X59893550Y27647316D01*
X59744329Y27739357D01*
X59744324Y27739359D01*
X59577902Y27794506D01*
X59577895Y27794507D01*
X59475191Y27805000D01*
X59337705Y27805000D01*
X59337705Y25355001D01*
X59475177Y25355001D01*
X59475191Y25355002D01*
X59577902Y25365495D01*
X59744325Y25420642D01*
X59750876Y25423696D01*
X59751506Y25422343D01*
X59810945Y25438614D01*
X59877611Y25417700D01*
X59919149Y25370930D01*
X59920534Y25368212D01*
X59988331Y25235152D01*
X60031132Y25151152D01*
X60179201Y24947351D01*
X60179205Y24947346D01*
X60263181Y24863370D01*
X60296666Y24802047D01*
X60299500Y24775689D01*
X60299500Y24436611D01*
X60299500Y24263389D01*
X60326598Y24092299D01*
X60380127Y23927555D01*
X60458768Y23773212D01*
X60560586Y23633072D01*
X61443072Y22750586D01*
X61583212Y22648768D01*
X61737554Y22570127D01*
X61884753Y22522299D01*
X61902299Y22516598D01*
X62073389Y22489500D01*
X62565500Y22489500D01*
X62632539Y22469815D01*
X62678294Y22417011D01*
X62689500Y22365500D01*
X62689500Y21096611D01*
X62689500Y20923389D01*
X62691714Y20909412D01*
X62714318Y20766691D01*
X62716598Y20752299D01*
X62770127Y20587555D01*
X62848768Y20433212D01*
X62950586Y20293072D01*
X62950588Y20293070D01*
X64843181Y18400477D01*
X64857884Y18373550D01*
X64874477Y18347731D01*
X64875368Y18341531D01*
X64876666Y18339154D01*
X64879500Y18312796D01*
X64879500Y18065909D01*
X64859815Y17998870D01*
X64815731Y17960359D01*
X64816813Y17958605D01*
X64810667Y17954815D01*
X64810666Y17954814D01*
X64744058Y17913730D01*
X64661342Y17862711D01*
X64537289Y17738658D01*
X64445187Y17589337D01*
X64445186Y17589334D01*
X64422522Y17520937D01*
X64414091Y17495495D01*
X64374318Y17438051D01*
X64309802Y17411228D01*
X64296385Y17410500D01*
X39813258Y17410500D01*
X39746219Y17430185D01*
X39700464Y17482989D01*
X39690520Y17552147D01*
X39695327Y17572819D01*
X39761090Y17775215D01*
X39800500Y18024038D01*
X39800500Y18275962D01*
X39761090Y18524785D01*
X39750249Y18558149D01*
X39718162Y18656904D01*
X39683241Y18764379D01*
X39683239Y18764382D01*
X39683239Y18764384D01*
X39624887Y18878905D01*
X39568870Y18988845D01*
X39542029Y19025788D01*
X39420798Y19192650D01*
X39420794Y19192655D01*
X39242654Y19370795D01*
X39242649Y19370799D01*
X39038848Y19518868D01*
X39038847Y19518869D01*
X39038845Y19518870D01*
X38897871Y19590700D01*
X38814383Y19633240D01*
X38574785Y19711090D01*
X38325962Y19750500D01*
X38074038Y19750500D01*
X38074031Y19750500D01*
X38069174Y19750118D01*
X38069039Y19751824D01*
X38007096Y19759841D01*
X37969331Y19785669D01*
X37935000Y19820000D01*
X36910001Y19820000D01*
X36935021Y19880402D01*
X36960000Y20005981D01*
X36960000Y20054695D01*
X39750000Y20054695D01*
X39750000Y19825306D01*
X39750001Y19825290D01*
X39779942Y19597863D01*
X39839318Y19376270D01*
X39927102Y19164341D01*
X39927106Y19164331D01*
X40041799Y18965676D01*
X40041805Y18965669D01*
X40098381Y18891936D01*
X40898958Y19692513D01*
X40923978Y19632110D01*
X40995112Y19525649D01*
X41085649Y19435112D01*
X41192110Y19363978D01*
X41252511Y19338959D01*
X40451934Y18538383D01*
X40451934Y18538382D01*
X40525666Y18481806D01*
X40724330Y18367107D01*
X40724340Y18367103D01*
X40936269Y18279319D01*
X41157862Y18219943D01*
X41385289Y18190002D01*
X41385306Y18190000D01*
X41614694Y18190000D01*
X41614710Y18190002D01*
X41842137Y18219943D01*
X42063730Y18279319D01*
X42275659Y18367103D01*
X42275668Y18367107D01*
X42474327Y18481803D01*
X42474334Y18481808D01*
X42548064Y18538383D01*
X41747488Y19338959D01*
X41807890Y19363978D01*
X41914351Y19435112D01*
X42004888Y19525649D01*
X42076022Y19632110D01*
X42101041Y19692512D01*
X42901617Y18891936D01*
X42958192Y18965666D01*
X42958197Y18965673D01*
X43072893Y19164332D01*
X43072897Y19164341D01*
X43160681Y19376270D01*
X43220057Y19597863D01*
X43249998Y19825290D01*
X43250000Y19825306D01*
X43250000Y20054695D01*
X43249998Y20054711D01*
X43220057Y20282138D01*
X43160681Y20503731D01*
X43072897Y20715660D01*
X43072893Y20715670D01*
X42958194Y20914334D01*
X42901618Y20988066D01*
X42901617Y20988066D01*
X42101041Y20187490D01*
X42076022Y20247890D01*
X42004888Y20354351D01*
X41914351Y20444888D01*
X41807890Y20516022D01*
X41747487Y20541043D01*
X42548064Y21341619D01*
X42548064Y21341620D01*
X42474331Y21398195D01*
X42474324Y21398201D01*
X42275669Y21512894D01*
X42275659Y21512898D01*
X42063730Y21600682D01*
X41842137Y21660058D01*
X41614710Y21689999D01*
X41614694Y21690000D01*
X41385306Y21690000D01*
X41385289Y21689999D01*
X41157862Y21660058D01*
X40936269Y21600682D01*
X40724340Y21512898D01*
X40724330Y21512894D01*
X40525673Y21398199D01*
X40525659Y21398190D01*
X40451934Y21341620D01*
X41252511Y20541042D01*
X41192110Y20516022D01*
X41085649Y20444888D01*
X40995112Y20354351D01*
X40923978Y20247890D01*
X40898958Y20187489D01*
X40098380Y20988066D01*
X40041810Y20914341D01*
X40041801Y20914327D01*
X39927106Y20715670D01*
X39927102Y20715660D01*
X39839318Y20503731D01*
X39779942Y20282138D01*
X39750001Y20054711D01*
X39750000Y20054695D01*
X36960000Y20054695D01*
X36960000Y20134019D01*
X36935021Y20259598D01*
X36910001Y20320000D01*
X37935000Y20320000D01*
X37935000Y21242828D01*
X37934999Y21242845D01*
X37930960Y21280410D01*
X37928598Y21302374D01*
X37928596Y21302380D01*
X37878354Y21437087D01*
X37878350Y21437094D01*
X37792190Y21552188D01*
X37792187Y21552191D01*
X37677093Y21638351D01*
X37677086Y21638355D01*
X37542379Y21688597D01*
X37542372Y21688599D01*
X37482844Y21695000D01*
X37050705Y21695000D01*
X36983666Y21714685D01*
X36937911Y21767489D01*
X36927967Y21836647D01*
X36956992Y21900203D01*
X36963024Y21906681D01*
X37021528Y21965185D01*
X37119415Y22063072D01*
X37182654Y22150114D01*
X37221232Y22203212D01*
X37299873Y22357555D01*
X37318134Y22413754D01*
X37319063Y22416612D01*
X37353403Y22522299D01*
X37377392Y22673768D01*
X37380500Y22693389D01*
X37380500Y23770014D01*
X40280001Y23770014D01*
X40290494Y23667303D01*
X40345641Y23500881D01*
X40345643Y23500876D01*
X40437684Y23351655D01*
X40561654Y23227685D01*
X40710875Y23135644D01*
X40710880Y23135642D01*
X40877302Y23080495D01*
X40877309Y23080494D01*
X40980019Y23070001D01*
X41229999Y23070001D01*
X41730000Y23070001D01*
X41979972Y23070001D01*
X41979986Y23070002D01*
X42082697Y23080495D01*
X42249119Y23135642D01*
X42249124Y23135644D01*
X42398345Y23227685D01*
X42522315Y23351655D01*
X42614356Y23500876D01*
X42614358Y23500881D01*
X42669505Y23667303D01*
X42669506Y23667310D01*
X42679999Y23770014D01*
X42680000Y23770027D01*
X42680000Y23920000D01*
X41730000Y23920000D01*
X41730000Y23070001D01*
X41229999Y23070001D01*
X41230000Y23070002D01*
X41230000Y23920000D01*
X40280001Y23920000D01*
X40280001Y23770014D01*
X37380500Y23770014D01*
X37380500Y24487185D01*
X37400185Y24554224D01*
X37449403Y24598272D01*
X37491211Y24619006D01*
X37635229Y24734771D01*
X37750994Y24878789D01*
X37833093Y25044326D01*
X37877686Y25223641D01*
X37880500Y25265137D01*
X37880499Y25591676D01*
X37900183Y25658713D01*
X37952987Y25704468D01*
X38022146Y25714412D01*
X38077384Y25691992D01*
X38154257Y25636142D01*
X38161155Y25631130D01*
X38254038Y25583804D01*
X38385616Y25516761D01*
X38385618Y25516761D01*
X38385621Y25516759D01*
X38625215Y25438910D01*
X38874038Y25399500D01*
X38874039Y25399500D01*
X39125961Y25399500D01*
X39125962Y25399500D01*
X39374785Y25438910D01*
X39614379Y25516759D01*
X39838845Y25631130D01*
X39864830Y25650010D01*
X39930635Y25673491D01*
X39998689Y25657667D01*
X40047385Y25607562D01*
X40056931Y25583809D01*
X40066149Y25551593D01*
X40096089Y25446955D01*
X40096090Y25446952D01*
X40096091Y25446951D01*
X40190302Y25266593D01*
X40215946Y25235143D01*
X40318890Y25108891D01*
X40363164Y25072791D01*
X40402681Y25015170D01*
X40404773Y24945332D01*
X40390342Y24911593D01*
X40345645Y24839129D01*
X40345641Y24839120D01*
X40290494Y24672698D01*
X40290493Y24672691D01*
X40280000Y24569987D01*
X40280000Y24420000D01*
X42679999Y24420000D01*
X42679999Y24569972D01*
X42679998Y24569987D01*
X42669505Y24672698D01*
X42614358Y24839120D01*
X42614356Y24839125D01*
X42582727Y24890403D01*
X42564287Y24957795D01*
X42585209Y25024459D01*
X42638851Y25069229D01*
X42688266Y25079500D01*
X45033592Y25079500D01*
X45100631Y25059815D01*
X45146386Y25007011D01*
X45156330Y24937853D01*
X45147142Y24909392D01*
X45148421Y24908881D01*
X45146090Y24903047D01*
X45090114Y24707417D01*
X45090113Y24707414D01*
X45082607Y24622984D01*
X45079978Y24593407D01*
X45079500Y24588034D01*
X45079500Y23771972D01*
X45079500Y23771967D01*
X45079501Y23771964D01*
X45079917Y23767288D01*
X45090113Y23652585D01*
X45146090Y23456953D01*
X45236234Y23284379D01*
X45240302Y23276593D01*
X45281601Y23225944D01*
X45308711Y23161549D01*
X45309500Y23147583D01*
X45309500Y21547836D01*
X45289815Y21480797D01*
X45260994Y21449466D01*
X45258156Y21447289D01*
X45258147Y21447281D01*
X45072725Y21261860D01*
X45072718Y21261852D01*
X44913075Y21053804D01*
X44781958Y20826701D01*
X44781953Y20826691D01*
X44681605Y20584429D01*
X44681602Y20584419D01*
X44641087Y20433212D01*
X44613730Y20331115D01*
X44579500Y20071128D01*
X44579500Y19808873D01*
X44605449Y19611783D01*
X44613730Y19548884D01*
X44679939Y19301788D01*
X44681602Y19295582D01*
X44681605Y19295572D01*
X44781953Y19053310D01*
X44781958Y19053300D01*
X44913075Y18826197D01*
X45072718Y18618149D01*
X45072726Y18618140D01*
X45258140Y18432726D01*
X45258148Y18432719D01*
X45466196Y18273076D01*
X45693299Y18141959D01*
X45693309Y18141954D01*
X45935571Y18041606D01*
X45935581Y18041602D01*
X46188884Y17973730D01*
X46448880Y17939500D01*
X46448887Y17939500D01*
X46711113Y17939500D01*
X46711120Y17939500D01*
X46971116Y17973730D01*
X47224419Y18041602D01*
X47466697Y18141957D01*
X47693803Y18273076D01*
X47901851Y18432718D01*
X47901855Y18432723D01*
X47901860Y18432726D01*
X48062315Y18593181D01*
X48123638Y18626666D01*
X48149996Y18629500D01*
X52206818Y18629500D01*
X52273857Y18609815D01*
X52305192Y18580989D01*
X52322718Y18558149D01*
X52322722Y18558145D01*
X52322726Y18558140D01*
X52508140Y18372726D01*
X52508148Y18372719D01*
X52508149Y18372718D01*
X52546642Y18343181D01*
X52716196Y18213076D01*
X52943299Y18081959D01*
X52943309Y18081954D01*
X53185571Y17981606D01*
X53185581Y17981602D01*
X53438884Y17913730D01*
X53698880Y17879500D01*
X53698887Y17879500D01*
X53961113Y17879500D01*
X53961120Y17879500D01*
X54221116Y17913730D01*
X54474419Y17981602D01*
X54716697Y18081957D01*
X54943803Y18213076D01*
X55151851Y18372718D01*
X55151855Y18372723D01*
X55151860Y18372726D01*
X55337274Y18558140D01*
X55337277Y18558145D01*
X55337282Y18558149D01*
X55496924Y18766197D01*
X55628043Y18993303D01*
X55629864Y18997698D01*
X55698885Y19164331D01*
X55728398Y19235581D01*
X55796270Y19488884D01*
X55830500Y19748880D01*
X55830500Y20011120D01*
X55796270Y20271116D01*
X55728398Y20524419D01*
X55707493Y20574888D01*
X55628046Y20766691D01*
X55628041Y20766701D01*
X55496924Y20993804D01*
X55354806Y21179013D01*
X55337282Y21201851D01*
X55337277Y21201856D01*
X55337274Y21201860D01*
X55151860Y21387274D01*
X55151851Y21387282D01*
X54943803Y21546925D01*
X54716700Y21678042D01*
X54716690Y21678047D01*
X54474428Y21778395D01*
X54474421Y21778397D01*
X54474419Y21778398D01*
X54221116Y21846270D01*
X54163339Y21853877D01*
X53961127Y21880500D01*
X53961120Y21880500D01*
X53698880Y21880500D01*
X53698872Y21880500D01*
X53478844Y21851531D01*
X53438884Y21846270D01*
X53185581Y21778398D01*
X53185571Y21778395D01*
X52943309Y21678047D01*
X52943299Y21678042D01*
X52716196Y21546925D01*
X52508148Y21387282D01*
X52322722Y21201856D01*
X52305192Y21179011D01*
X52248763Y21137810D01*
X52206818Y21130500D01*
X48249222Y21130500D01*
X48182183Y21150185D01*
X48150847Y21179013D01*
X48087281Y21261852D01*
X48087274Y21261860D01*
X47901856Y21447277D01*
X47901844Y21447288D01*
X47859012Y21480155D01*
X47817810Y21536583D01*
X47810500Y21578529D01*
X47810500Y23228549D01*
X47824591Y23285960D01*
X47865951Y23365140D01*
X47913909Y23456951D01*
X47969886Y23652582D01*
X47980500Y23771963D01*
X47980499Y24588036D01*
X47969886Y24707418D01*
X47913909Y24903049D01*
X47819698Y25083407D01*
X47804831Y25101640D01*
X47777722Y25166034D01*
X47789731Y25234864D01*
X47804832Y25258362D01*
X47810355Y25265135D01*
X47819698Y25276593D01*
X47913909Y25456951D01*
X47969886Y25652582D01*
X47980500Y25771963D01*
X47980499Y25771972D01*
X47980535Y25772365D01*
X48006079Y25837398D01*
X48062727Y25878297D01*
X48132495Y25882077D01*
X48193230Y25847538D01*
X48224382Y25791311D01*
X48259156Y25651485D01*
X48259159Y25651477D01*
X48343718Y25480978D01*
X48343720Y25480975D01*
X48462960Y25332634D01*
X48462961Y25332633D01*
X48611302Y25213393D01*
X48611305Y25213391D01*
X48781804Y25128832D01*
X48966503Y25082898D01*
X49009231Y25080000D01*
X49210328Y25080000D01*
X49210328Y28080000D01*
X49009231Y28080000D01*
X48966503Y28077103D01*
X48781804Y28031169D01*
X48611305Y27946610D01*
X48611302Y27946608D01*
X48462961Y27827368D01*
X48462960Y27827367D01*
X48343720Y27679026D01*
X48343718Y27679023D01*
X48259159Y27508524D01*
X48213225Y27323825D01*
X48210328Y27281097D01*
X48210328Y26751223D01*
X48190643Y26684184D01*
X48137839Y26638429D01*
X48068681Y26628485D01*
X48005125Y26657510D01*
X47967351Y26716288D01*
X47967112Y26717111D01*
X47913909Y26903049D01*
X47819698Y27083407D01*
X47765801Y27149507D01*
X47691109Y27241110D01*
X47546686Y27358870D01*
X47533407Y27369698D01*
X47353049Y27463909D01*
X47353048Y27463910D01*
X47353045Y27463911D01*
X47235829Y27497450D01*
X47157418Y27519886D01*
X47157415Y27519887D01*
X47157413Y27519887D01*
X47091102Y27525783D01*
X47038037Y27530500D01*
X47038032Y27530500D01*
X46021971Y27530500D01*
X46021965Y27530500D01*
X46021964Y27530499D01*
X46010316Y27529464D01*
X45902584Y27519887D01*
X45706954Y27463911D01*
X45526587Y27369695D01*
X45451413Y27308398D01*
X45387017Y27281289D01*
X45373053Y27280500D01*
X42704500Y27280500D01*
X42637461Y27300185D01*
X42591706Y27352989D01*
X42580500Y27404500D01*
X42580500Y28306611D01*
X42553403Y28477695D01*
X42553402Y28477696D01*
X42553402Y28477701D01*
X42542532Y28511155D01*
X42499873Y28642446D01*
X42421232Y28796788D01*
X42319414Y28936928D01*
X42176928Y29079414D01*
X40916928Y30339414D01*
X40776788Y30441232D01*
X40622445Y30519873D01*
X40619417Y30520857D01*
X40618414Y30521543D01*
X40617952Y30521734D01*
X40617992Y30521832D01*
X40608693Y30528191D01*
X40596058Y30531216D01*
X40580406Y30547535D01*
X40561744Y30560297D01*
X40556687Y30572265D01*
X40547694Y30581641D01*
X40543349Y30603831D01*
X40534549Y30624657D01*
X40536764Y30637458D01*
X40534268Y30650208D01*
X40542609Y30671225D01*
X40546466Y30693503D01*
X40555845Y30704571D01*
X40560044Y30715149D01*
X40576237Y30728634D01*
X40585516Y30739581D01*
X40592599Y30744657D01*
X40603407Y30750302D01*
X40624641Y30767617D01*
X40627775Y30769862D01*
X40657260Y30780165D01*
X40686034Y30792278D01*
X40689965Y30791593D01*
X40693734Y30792909D01*
X40724109Y30785635D01*
X40754864Y30780269D01*
X40759822Y30777083D01*
X40761683Y30776637D01*
X40763558Y30774682D01*
X40778359Y30765170D01*
X40796593Y30750302D01*
X40976951Y30656091D01*
X41172582Y30600114D01*
X41291963Y30589500D01*
X42108036Y30589501D01*
X42227418Y30600114D01*
X42423049Y30656091D01*
X42603407Y30750302D01*
X42761109Y30878891D01*
X42773315Y30893862D01*
X42830937Y30933378D01*
X42869417Y30939500D01*
X43597547Y30939500D01*
X43664586Y30919815D01*
X43693913Y30893536D01*
X43759743Y30812243D01*
X43836230Y30750305D01*
X43906853Y30693115D01*
X43990371Y30650562D01*
X44075512Y30607180D01*
X44258355Y30558188D01*
X44336979Y30552000D01*
X44763020Y30552001D01*
X44841645Y30558188D01*
X45024488Y30607180D01*
X45153646Y30672989D01*
X45193146Y30693115D01*
X45193147Y30693117D01*
X45193149Y30693117D01*
X45340257Y30812243D01*
X45459383Y30959351D01*
X45531512Y31100915D01*
X45579485Y31151708D01*
X45647305Y31168504D01*
X45713441Y31145967D01*
X45748728Y31107739D01*
X45782314Y31050948D01*
X45782321Y31050939D01*
X45898438Y30934822D01*
X45898447Y30934815D01*
X46039801Y30851219D01*
X46197514Y30805400D01*
X46197511Y30805400D01*
X46199998Y30805205D01*
X46200000Y30805205D01*
X46700000Y30805205D01*
X46700001Y30805205D01*
X46702486Y30805400D01*
X46860198Y30851219D01*
X47001552Y30934815D01*
X47001561Y30934822D01*
X47117678Y31050939D01*
X47117685Y31050948D01*
X47201282Y31192304D01*
X47201283Y31192307D01*
X47247099Y31350005D01*
X47247100Y31350011D01*
X47249999Y31386851D01*
X47250000Y31386866D01*
X47250000Y31790000D01*
X46700000Y31790000D01*
X46700000Y30805205D01*
X46200000Y30805205D01*
X46200000Y31916000D01*
X46219685Y31983039D01*
X46272489Y32028794D01*
X46324000Y32040000D01*
X46450000Y32040000D01*
X46450000Y32166000D01*
X46469685Y32233039D01*
X46522489Y32278794D01*
X46574000Y32290000D01*
X47250000Y32290000D01*
X47250000Y32693135D01*
X47249999Y32693150D01*
X47247100Y32729990D01*
X47247099Y32729996D01*
X47201283Y32887694D01*
X47201282Y32887697D01*
X47117685Y33029053D01*
X47117678Y33029062D01*
X47001561Y33145179D01*
X47001552Y33145186D01*
X46860196Y33228783D01*
X46860193Y33228784D01*
X46702495Y33274600D01*
X46702490Y33274601D01*
X46664769Y33277569D01*
X46660923Y33279035D01*
X46656852Y33278449D01*
X46628556Y33291372D01*
X46599481Y33302453D01*
X46597038Y33305765D01*
X46593296Y33307474D01*
X46576474Y33333650D01*
X46558011Y33358685D01*
X46557110Y33363781D01*
X46555522Y33366252D01*
X46550499Y33401183D01*
X46550499Y33444223D01*
X49109828Y33444223D01*
X49109828Y32315792D01*
X49109829Y32315777D01*
X49120232Y32183587D01*
X49120233Y32183580D01*
X49175230Y31965322D01*
X49175231Y31965319D01*
X49268319Y31760378D01*
X49268325Y31760368D01*
X49396502Y31575355D01*
X49396506Y31575350D01*
X49396509Y31575346D01*
X49555674Y31416181D01*
X49555678Y31416178D01*
X49555682Y31416175D01*
X49651193Y31350005D01*
X49740702Y31287993D01*
X49945645Y31194904D01*
X49945649Y31194903D01*
X50163907Y31139906D01*
X50163909Y31139906D01*
X50163916Y31139904D01*
X50296111Y31129500D01*
X50535828Y31129501D01*
X50602867Y31109817D01*
X50648622Y31057013D01*
X50659828Y31005501D01*
X50659828Y28122561D01*
X50651183Y28093122D01*
X50644660Y28063134D01*
X50640905Y28058119D01*
X50640143Y28055522D01*
X50623509Y28034879D01*
X50513240Y27924611D01*
X50451917Y27891127D01*
X50382225Y27896111D01*
X50347873Y27915645D01*
X50309352Y27946609D01*
X50309350Y27946610D01*
X50138851Y28031169D01*
X49954152Y28077103D01*
X49911425Y28080000D01*
X49710328Y28080000D01*
X49710328Y25080000D01*
X49911425Y25080000D01*
X49954152Y25082898D01*
X50138851Y25128832D01*
X50309352Y25213392D01*
X50347869Y25244354D01*
X50412452Y25271014D01*
X50481197Y25258526D01*
X50513240Y25235390D01*
X50665470Y25083160D01*
X50665479Y25083152D01*
X50777979Y25007011D01*
X50843480Y24962679D01*
X50843481Y24962679D01*
X50843482Y24962678D01*
X50854885Y24957795D01*
X51041069Y24878066D01*
X51251102Y24832376D01*
X51299380Y24829500D01*
X51299392Y24829500D01*
X52221264Y24829500D01*
X52221276Y24829500D01*
X52269554Y24832376D01*
X52479587Y24878066D01*
X52677176Y24962679D01*
X52840827Y25073441D01*
X52907378Y25094714D01*
X52974866Y25076630D01*
X52979809Y25073454D01*
X53143480Y24962679D01*
X53143482Y24962678D01*
X53143484Y24962677D01*
X53201454Y24937853D01*
X53341069Y24878066D01*
X53551102Y24832376D01*
X53599380Y24829500D01*
X53599392Y24829500D01*
X54521264Y24829500D01*
X54521276Y24829500D01*
X54569554Y24832376D01*
X54779587Y24878066D01*
X54977176Y24962679D01*
X55140826Y25073440D01*
X55155176Y25083152D01*
X55155177Y25083154D01*
X55155183Y25083157D01*
X55307171Y25235145D01*
X55307531Y25235676D01*
X55395393Y25365494D01*
X55427649Y25413152D01*
X55427653Y25413164D01*
X55428618Y25414928D01*
X55429338Y25415649D01*
X55430959Y25418043D01*
X55431420Y25417731D01*
X55438142Y25424452D01*
X55443737Y25436703D01*
X55462365Y25448675D01*
X55478024Y25464333D01*
X55492466Y25468019D01*
X55502515Y25474477D01*
X55537450Y25479500D01*
X55775500Y25479500D01*
X55842539Y25459815D01*
X55888294Y25407011D01*
X55899500Y25355500D01*
X55899500Y24163390D01*
X55910759Y24092299D01*
X55926598Y23992299D01*
X55980127Y23827555D01*
X56058768Y23673212D01*
X56160586Y23533072D01*
X56160588Y23533070D01*
X57783181Y21910477D01*
X57797884Y21883550D01*
X57814477Y21857731D01*
X57815368Y21851531D01*
X57816666Y21849154D01*
X57819500Y21822796D01*
X57819500Y21625955D01*
X57799815Y21558916D01*
X57770987Y21527580D01*
X57588148Y21387282D01*
X57402718Y21201852D01*
X57243075Y20993804D01*
X57111958Y20766701D01*
X57111953Y20766691D01*
X57011605Y20524429D01*
X57011602Y20524419D01*
X56946684Y20282138D01*
X56943730Y20271115D01*
X56909500Y20011128D01*
X56909500Y19748873D01*
X56935261Y19553212D01*
X56943730Y19488884D01*
X57010764Y19238708D01*
X57011602Y19235582D01*
X57011605Y19235572D01*
X57111953Y18993310D01*
X57111958Y18993300D01*
X57243075Y18766197D01*
X57402718Y18558149D01*
X57402726Y18558140D01*
X57588140Y18372726D01*
X57588148Y18372719D01*
X57588149Y18372718D01*
X57626642Y18343181D01*
X57796196Y18213076D01*
X58023299Y18081959D01*
X58023309Y18081954D01*
X58265571Y17981606D01*
X58265581Y17981602D01*
X58518884Y17913730D01*
X58778880Y17879500D01*
X58778887Y17879500D01*
X59041113Y17879500D01*
X59041120Y17879500D01*
X59301116Y17913730D01*
X59554419Y17981602D01*
X59796697Y18081957D01*
X60023803Y18213076D01*
X60231851Y18372718D01*
X60231855Y18372723D01*
X60231860Y18372726D01*
X60417274Y18558140D01*
X60417277Y18558145D01*
X60417282Y18558149D01*
X60576924Y18766197D01*
X60708043Y18993303D01*
X60709864Y18997698D01*
X60778885Y19164331D01*
X60808398Y19235581D01*
X60876270Y19488884D01*
X60910500Y19748880D01*
X60910500Y20011120D01*
X60876270Y20271116D01*
X60808398Y20524419D01*
X60787493Y20574888D01*
X60708046Y20766691D01*
X60708041Y20766701D01*
X60576924Y20993804D01*
X60434806Y21179013D01*
X60417282Y21201851D01*
X60417277Y21201856D01*
X60417274Y21201860D01*
X60231860Y21387274D01*
X60231851Y21387282D01*
X60069013Y21512234D01*
X60027810Y21568662D01*
X60020500Y21610609D01*
X60020500Y22416612D01*
X60010903Y22477201D01*
X59993402Y22587701D01*
X59939873Y22752445D01*
X59861232Y22906788D01*
X59759414Y23046928D01*
X59636928Y23169414D01*
X58136819Y24669523D01*
X58103334Y24730846D01*
X58100500Y24757204D01*
X58100500Y25397803D01*
X58107437Y25421430D01*
X58110208Y25445901D01*
X58118841Y25460266D01*
X58120185Y25464842D01*
X58128389Y25476152D01*
X58128784Y25476638D01*
X58130869Y25479194D01*
X58188484Y25518717D01*
X58258322Y25520817D01*
X58292076Y25506383D01*
X58431080Y25420644D01*
X58431085Y25420642D01*
X58597507Y25365495D01*
X58597514Y25365494D01*
X58700224Y25355001D01*
X58837704Y25355001D01*
X58837705Y25355002D01*
X58837705Y27805000D01*
X58700232Y27805000D01*
X58700217Y27804999D01*
X58597507Y27794506D01*
X58431085Y27739359D01*
X58431076Y27739355D01*
X58292075Y27653618D01*
X58224683Y27635178D01*
X58158019Y27656101D01*
X58130877Y27680797D01*
X58061316Y27766108D01*
X57903612Y27894698D01*
X57900907Y27896111D01*
X57834568Y27930764D01*
X57784262Y27979249D01*
X57768155Y28047236D01*
X57791361Y28113140D01*
X57804300Y28128352D01*
X57805152Y28129205D01*
X57805156Y28129207D01*
X57983293Y28307344D01*
X58131370Y28511155D01*
X58227591Y28699999D01*
X61965204Y28699999D01*
X61965399Y28697514D01*
X62011218Y28539802D01*
X62094814Y28398448D01*
X62094821Y28398439D01*
X62210938Y28282322D01*
X62210947Y28282315D01*
X62352303Y28198718D01*
X62352306Y28198717D01*
X62510004Y28152901D01*
X62510010Y28152900D01*
X62546850Y28150001D01*
X62546866Y28150000D01*
X62950000Y28150000D01*
X62950000Y28700000D01*
X61965205Y28700000D01*
X61965204Y28699999D01*
X58227591Y28699999D01*
X58245741Y28735621D01*
X58323590Y28975215D01*
X58363000Y29224038D01*
X58363000Y29475962D01*
X58323590Y29724785D01*
X58245741Y29964379D01*
X58245739Y29964382D01*
X58245739Y29964384D01*
X58143557Y30164926D01*
X58131370Y30188845D01*
X58021977Y30339412D01*
X57983298Y30392650D01*
X57983294Y30392655D01*
X57899319Y30476630D01*
X57865834Y30537953D01*
X57863000Y30564311D01*
X57863000Y31764537D01*
X57882685Y31831576D01*
X57935489Y31877331D01*
X58004647Y31887275D01*
X58052097Y31870075D01*
X58180869Y31790647D01*
X58180880Y31790642D01*
X58347302Y31735495D01*
X58347309Y31735494D01*
X58450019Y31725001D01*
X58587499Y31725001D01*
X58587500Y31725002D01*
X58587500Y34175000D01*
X58450027Y34175000D01*
X58450012Y34174999D01*
X58347302Y34164506D01*
X58180880Y34109359D01*
X58180871Y34109355D01*
X58041870Y34023618D01*
X57974478Y34005178D01*
X57907814Y34026101D01*
X57880672Y34050797D01*
X57811111Y34136108D01*
X57695805Y34230127D01*
X57653407Y34264698D01*
X57473049Y34358909D01*
X57473048Y34358910D01*
X57473045Y34358911D01*
X57355829Y34392450D01*
X57277418Y34414886D01*
X57277415Y34414887D01*
X57277413Y34414887D01*
X57211102Y34420783D01*
X57158037Y34425500D01*
X57158032Y34425500D01*
X56366971Y34425500D01*
X56366965Y34425500D01*
X56366964Y34425499D01*
X56355316Y34424464D01*
X56247584Y34414887D01*
X56051954Y34358911D01*
X55986712Y34324831D01*
X55871593Y34264698D01*
X55871591Y34264697D01*
X55871590Y34264696D01*
X55713893Y34136112D01*
X55692079Y34109359D01*
X55626721Y34029202D01*
X55624223Y34026139D01*
X55566602Y33986622D01*
X55528121Y33980500D01*
X54330529Y33980500D01*
X54263490Y34000185D01*
X54228601Y34033884D01*
X54124153Y34184646D01*
X54124150Y34184650D01*
X54124147Y34184654D01*
X53964982Y34343819D01*
X53964978Y34343822D01*
X53964973Y34343826D01*
X53779960Y34472003D01*
X53779958Y34472005D01*
X53779954Y34472007D01*
X53759382Y34481351D01*
X53575009Y34565097D01*
X53575006Y34565098D01*
X53356748Y34620095D01*
X53356741Y34620096D01*
X53224550Y34630500D01*
X53224545Y34630500D01*
X52984828Y34630500D01*
X52917789Y34650185D01*
X52872034Y34702989D01*
X52860828Y34754500D01*
X52860828Y35756017D01*
X52880513Y35823056D01*
X52897147Y35843698D01*
X52970793Y35917344D01*
X53118870Y36121155D01*
X53233241Y36345621D01*
X53311090Y36585215D01*
X53350500Y36834038D01*
X53350500Y37085962D01*
X53311090Y37334785D01*
X53233241Y37574379D01*
X53233239Y37574382D01*
X53233239Y37574384D01*
X53156457Y37725076D01*
X53118870Y37798845D01*
X53061396Y37877952D01*
X52970798Y38002650D01*
X52970794Y38002655D01*
X52792654Y38180795D01*
X52792649Y38180799D01*
X52588848Y38328868D01*
X52588847Y38328869D01*
X52588845Y38328870D01*
X52492473Y38377974D01*
X52364383Y38443240D01*
X52124785Y38521090D01*
X51875962Y38560500D01*
X51624038Y38560500D01*
X51499626Y38540795D01*
X51375214Y38521090D01*
X51135616Y38443240D01*
X50911151Y38328868D01*
X50707350Y38180799D01*
X50707345Y38180795D01*
X50529205Y38002655D01*
X50529201Y38002650D01*
X50381132Y37798849D01*
X50266760Y37574384D01*
X50188910Y37334786D01*
X50176556Y37256788D01*
X50149500Y37085962D01*
X50149500Y36834038D01*
X50177988Y36654174D01*
X50188910Y36585215D01*
X50266760Y36345617D01*
X50381132Y36121152D01*
X50529201Y35917351D01*
X50529205Y35917346D01*
X50613181Y35833370D01*
X50626010Y35809875D01*
X50641932Y35788346D01*
X50643937Y35777045D01*
X50646666Y35772047D01*
X50649233Y35753815D01*
X50649500Y35749750D01*
X50649500Y35663389D01*
X50659188Y35602216D01*
X50659561Y35596551D01*
X50659285Y35595319D01*
X50659828Y35588425D01*
X50659828Y34754500D01*
X50640143Y34687461D01*
X50587339Y34641706D01*
X50535829Y34630500D01*
X50296119Y34630500D01*
X50296104Y34630499D01*
X50163914Y34620096D01*
X50163907Y34620095D01*
X49945649Y34565098D01*
X49945646Y34565097D01*
X49740705Y34472009D01*
X49740695Y34472003D01*
X49555682Y34343826D01*
X49555670Y34343816D01*
X49396512Y34184658D01*
X49396502Y34184646D01*
X49268325Y33999633D01*
X49268319Y33999623D01*
X49175231Y33794682D01*
X49175230Y33794679D01*
X49120233Y33576421D01*
X49120232Y33576414D01*
X49109828Y33444223D01*
X46550499Y33444223D01*
X46550499Y33567176D01*
X46556569Y33605495D01*
X46573400Y33657294D01*
X46573402Y33657299D01*
X46600500Y33828389D01*
X46600500Y37356400D01*
X46620185Y37423439D01*
X46636819Y37444081D01*
X46682655Y37489917D01*
X46826106Y37687361D01*
X46936904Y37904815D01*
X47012321Y38136924D01*
X47050500Y38377973D01*
X47050500Y38622027D01*
X47029264Y38756103D01*
X47038218Y38825395D01*
X47083214Y38878847D01*
X47149966Y38899487D01*
X47151737Y38899500D01*
X54703241Y38899500D01*
X54770280Y38879815D01*
G37*
%TD.AperFunction*%
%TA.AperFunction,Conductor*%
G36*
X69460735Y49141575D02*
G01*
X69488457Y49136777D01*
X69493812Y49131863D01*
X69500784Y49129815D01*
X69519201Y49108561D01*
X69539933Y49089533D01*
X69541781Y49082503D01*
X69546539Y49077011D01*
X69550542Y49049168D01*
X69557694Y49021959D01*
X69555924Y49011735D01*
X69556483Y49007853D01*
X69551676Y48987181D01*
X69498910Y48824786D01*
X69468858Y48635048D01*
X69459500Y48575962D01*
X69459500Y47524038D01*
X69498910Y47275215D01*
X69576760Y47035617D01*
X69691132Y46811152D01*
X69839201Y46607351D01*
X69839205Y46607346D01*
X70017345Y46429206D01*
X70017350Y46429202D01*
X70065981Y46393870D01*
X70221155Y46281130D01*
X70333466Y46223905D01*
X70445616Y46166761D01*
X70445618Y46166761D01*
X70445621Y46166759D01*
X70685215Y46088910D01*
X70934038Y46049500D01*
X70934039Y46049500D01*
X71185961Y46049500D01*
X71185962Y46049500D01*
X71434785Y46088910D01*
X71674379Y46166759D01*
X71898845Y46281130D01*
X72102656Y46429207D01*
X72211642Y46538194D01*
X72237318Y46552214D01*
X72261545Y46568616D01*
X72267623Y46568762D01*
X72272961Y46571676D01*
X72302144Y46569589D01*
X72331395Y46570290D01*
X72339158Y46566942D01*
X72342653Y46566692D01*
X72363842Y46556401D01*
X72364126Y46556228D01*
X72430666Y46515186D01*
X72432456Y46514593D01*
X72440022Y46509983D01*
X72459076Y46489029D01*
X72480337Y46470313D01*
X72482317Y46463471D01*
X72487028Y46458290D01*
X72491493Y46431761D01*
X72499500Y46404092D01*
X72499500Y45985909D01*
X72479815Y45918870D01*
X72435731Y45880359D01*
X72436813Y45878605D01*
X72430667Y45874815D01*
X72430666Y45874814D01*
X72332419Y45814216D01*
X72281342Y45782711D01*
X72157289Y45658658D01*
X72065187Y45509337D01*
X72065186Y45509334D01*
X72010001Y45342797D01*
X72010001Y45342796D01*
X72010000Y45342796D01*
X71999500Y45240017D01*
X71999500Y43439999D01*
X71999501Y43439982D01*
X72010000Y43337204D01*
X72010001Y43337201D01*
X72065185Y43170669D01*
X72065187Y43170664D01*
X72077368Y43150916D01*
X72115190Y43089596D01*
X72133630Y43022204D01*
X72112707Y42955541D01*
X72059065Y42910771D01*
X72009651Y42900500D01*
X57494311Y42900500D01*
X57427272Y42920185D01*
X57406630Y42936819D01*
X57322654Y43020795D01*
X57322649Y43020799D01*
X57118848Y43168868D01*
X57118847Y43168869D01*
X57118845Y43168870D01*
X57043473Y43207274D01*
X56894383Y43283240D01*
X56654785Y43361090D01*
X56405962Y43400500D01*
X56154038Y43400500D01*
X56029626Y43380795D01*
X55905214Y43361090D01*
X55665616Y43283240D01*
X55441151Y43168868D01*
X55237350Y43020799D01*
X55237345Y43020795D01*
X55153370Y42936819D01*
X55092047Y42903334D01*
X55065689Y42900500D01*
X53460280Y42900500D01*
X53393241Y42920185D01*
X53347486Y42972989D01*
X53337542Y43042147D01*
X53337807Y43043898D01*
X53350500Y43124039D01*
X53350500Y43375962D01*
X53311090Y43624785D01*
X53233241Y43864379D01*
X53233239Y43864382D01*
X53233239Y43864384D01*
X53171876Y43984815D01*
X53118870Y44088845D01*
X53044482Y44191232D01*
X52970798Y44292650D01*
X52970794Y44292655D01*
X52792654Y44470795D01*
X52792649Y44470799D01*
X52588848Y44618868D01*
X52588847Y44618869D01*
X52588845Y44618870D01*
X52518747Y44654587D01*
X52364383Y44733240D01*
X52124785Y44811090D01*
X51875962Y44850500D01*
X51624038Y44850500D01*
X51499626Y44830795D01*
X51375214Y44811090D01*
X51135616Y44733240D01*
X50911151Y44618868D01*
X50707350Y44470799D01*
X50707345Y44470795D01*
X50623370Y44386819D01*
X50562047Y44353334D01*
X50535689Y44350500D01*
X46336611Y44350500D01*
X46163389Y44350500D01*
X46077844Y44336951D01*
X45992298Y44323402D01*
X45827549Y44269872D01*
X45673208Y44191230D01*
X45533078Y44089420D01*
X45533069Y44089412D01*
X45530469Y44086812D01*
X45469143Y44053332D01*
X45442795Y44050500D01*
X44649998Y44050500D01*
X44649980Y44050499D01*
X44547203Y44040000D01*
X44547200Y44039999D01*
X44380668Y43984815D01*
X44380663Y43984813D01*
X44231342Y43892711D01*
X44107289Y43768658D01*
X44075784Y43717581D01*
X44018549Y43624785D01*
X44011395Y43613187D01*
X44009600Y43614294D01*
X44005014Y43609084D01*
X43997805Y43593297D01*
X43982406Y43583402D01*
X43970313Y43569663D01*
X43953425Y43564776D01*
X43939027Y43555523D01*
X43904092Y43550500D01*
X43707204Y43550500D01*
X43640165Y43570185D01*
X43619523Y43586819D01*
X42316930Y44889412D01*
X42316928Y44889414D01*
X42176788Y44991232D01*
X42022445Y45069873D01*
X41857701Y45123402D01*
X41857699Y45123403D01*
X41857698Y45123403D01*
X41726271Y45144219D01*
X41686611Y45150500D01*
X41686610Y45150500D01*
X39604500Y45150500D01*
X39537461Y45170185D01*
X39491706Y45222989D01*
X39480500Y45274500D01*
X39480500Y46229092D01*
X39500185Y46296131D01*
X39544271Y46334637D01*
X39543187Y46336395D01*
X39549332Y46340186D01*
X39549334Y46340186D01*
X39698656Y46432288D01*
X39788409Y46522041D01*
X39849732Y46555526D01*
X39919424Y46550542D01*
X39963771Y46522041D01*
X40040535Y46445277D01*
X40040540Y46445273D01*
X40212442Y46320380D01*
X40401782Y46223905D01*
X40603871Y46158243D01*
X40670000Y46147769D01*
X40670000Y47441988D01*
X40727007Y47409075D01*
X40854174Y47375000D01*
X40985826Y47375000D01*
X41112993Y47409075D01*
X41170000Y47441988D01*
X41170000Y46147770D01*
X41236126Y46158243D01*
X41236129Y46158243D01*
X41438217Y46223905D01*
X41627557Y46320380D01*
X41799458Y46445272D01*
X41946055Y46591869D01*
X42007379Y46625354D01*
X42077070Y46620370D01*
X42133004Y46578499D01*
X42134055Y46577073D01*
X42239201Y46432351D01*
X42239205Y46432346D01*
X42417345Y46254206D01*
X42417350Y46254202D01*
X42459051Y46223905D01*
X42621155Y46106130D01*
X42732298Y46049500D01*
X42845616Y45991761D01*
X42845618Y45991761D01*
X42845621Y45991759D01*
X43085215Y45913910D01*
X43334038Y45874500D01*
X43334039Y45874500D01*
X43585961Y45874500D01*
X43585962Y45874500D01*
X43834785Y45913910D01*
X44074379Y45991759D01*
X44298845Y46106130D01*
X44502656Y46254207D01*
X44642319Y46393870D01*
X44703642Y46427355D01*
X44773334Y46422371D01*
X44817681Y46393870D01*
X44957345Y46254206D01*
X44957350Y46254202D01*
X44999051Y46223905D01*
X45161155Y46106130D01*
X45272298Y46049500D01*
X45385616Y45991761D01*
X45385618Y45991761D01*
X45385621Y45991759D01*
X45625215Y45913910D01*
X45874038Y45874500D01*
X45874039Y45874500D01*
X46125961Y45874500D01*
X46125962Y45874500D01*
X46374785Y45913910D01*
X46614379Y45991759D01*
X46838845Y46106130D01*
X47042656Y46254207D01*
X47182319Y46393870D01*
X47243642Y46427355D01*
X47313334Y46422371D01*
X47357681Y46393870D01*
X47497345Y46254206D01*
X47497350Y46254202D01*
X47539051Y46223905D01*
X47701155Y46106130D01*
X47812298Y46049500D01*
X47925616Y45991761D01*
X47925618Y45991761D01*
X47925621Y45991759D01*
X48165215Y45913910D01*
X48414038Y45874500D01*
X48414039Y45874500D01*
X48665961Y45874500D01*
X48665962Y45874500D01*
X48914785Y45913910D01*
X49154379Y45991759D01*
X49378845Y46106130D01*
X49582656Y46254207D01*
X49722319Y46393870D01*
X49783642Y46427355D01*
X49853334Y46422371D01*
X49897681Y46393870D01*
X50037345Y46254206D01*
X50037350Y46254202D01*
X50079051Y46223905D01*
X50241155Y46106130D01*
X50352298Y46049500D01*
X50465616Y45991761D01*
X50465618Y45991761D01*
X50465621Y45991759D01*
X50705215Y45913910D01*
X50954038Y45874500D01*
X50954039Y45874500D01*
X51205961Y45874500D01*
X51205962Y45874500D01*
X51454785Y45913910D01*
X51694379Y45991759D01*
X51918845Y46106130D01*
X52122656Y46254207D01*
X52262319Y46393870D01*
X52323642Y46427355D01*
X52393334Y46422371D01*
X52437681Y46393870D01*
X52577345Y46254206D01*
X52577350Y46254202D01*
X52619051Y46223905D01*
X52781155Y46106130D01*
X52892298Y46049500D01*
X53005616Y45991761D01*
X53005618Y45991761D01*
X53005621Y45991759D01*
X53245215Y45913910D01*
X53494038Y45874500D01*
X53494039Y45874500D01*
X53745961Y45874500D01*
X53745962Y45874500D01*
X53994785Y45913910D01*
X54234379Y45991759D01*
X54458845Y46106130D01*
X54662656Y46254207D01*
X54802319Y46393870D01*
X54863642Y46427355D01*
X54933334Y46422371D01*
X54977681Y46393870D01*
X55117345Y46254206D01*
X55117350Y46254202D01*
X55159051Y46223905D01*
X55321155Y46106130D01*
X55432298Y46049500D01*
X55545616Y45991761D01*
X55545618Y45991761D01*
X55545621Y45991759D01*
X55785215Y45913910D01*
X56034038Y45874500D01*
X56034039Y45874500D01*
X56285961Y45874500D01*
X56285962Y45874500D01*
X56534785Y45913910D01*
X56774379Y45991759D01*
X56998845Y46106130D01*
X57202656Y46254207D01*
X57380793Y46432344D01*
X57528870Y46636155D01*
X57643241Y46860621D01*
X57721090Y47100215D01*
X57760500Y47349038D01*
X57760500Y48400962D01*
X57721090Y48649785D01*
X57643241Y48889379D01*
X57612349Y48950008D01*
X57602568Y48969205D01*
X57589672Y49037875D01*
X57615949Y49102615D01*
X57673055Y49142872D01*
X57713053Y49149500D01*
X69433745Y49149500D01*
X69460735Y49141575D01*
G37*
%TD.AperFunction*%
%TA.AperFunction,Conductor*%
G36*
X75442539Y51979815D02*
G01*
X75488294Y51927011D01*
X75499500Y51875500D01*
X75499500Y14624500D01*
X75479815Y14557461D01*
X75427011Y14511706D01*
X75375500Y14500500D01*
X14624500Y14500500D01*
X14557461Y14520185D01*
X14511706Y14572989D01*
X14500500Y14624500D01*
X14500500Y16818034D01*
X14949500Y16818034D01*
X14949500Y15801972D01*
X14949501Y15801966D01*
X14960113Y15682585D01*
X15016089Y15486955D01*
X15016090Y15486952D01*
X15016091Y15486951D01*
X15110302Y15306593D01*
X15143908Y15265378D01*
X15238890Y15148891D01*
X15297204Y15101343D01*
X15396593Y15020302D01*
X15576951Y14926091D01*
X15772582Y14870114D01*
X15891963Y14859500D01*
X16708036Y14859501D01*
X16827418Y14870114D01*
X17023049Y14926091D01*
X17203407Y15020302D01*
X17221639Y15035169D01*
X17286034Y15062278D01*
X17354864Y15050269D01*
X17378359Y15035170D01*
X17396593Y15020302D01*
X17576951Y14926091D01*
X17772582Y14870114D01*
X17891963Y14859500D01*
X18708036Y14859501D01*
X18827418Y14870114D01*
X19023049Y14926091D01*
X19203407Y15020302D01*
X19361109Y15148891D01*
X19489698Y15306593D01*
X19583909Y15486951D01*
X19639886Y15682582D01*
X19650500Y15801963D01*
X19650499Y16575009D01*
X19670183Y16642047D01*
X19722987Y16687802D01*
X19792146Y16697746D01*
X19812816Y16692939D01*
X19825215Y16688910D01*
X20074038Y16649500D01*
X20074039Y16649500D01*
X20325961Y16649500D01*
X20325962Y16649500D01*
X20574785Y16688910D01*
X20674683Y16721370D01*
X20744522Y16723365D01*
X20804355Y16687285D01*
X20835184Y16624584D01*
X20837000Y16603438D01*
X20837000Y15776972D01*
X20837001Y15776966D01*
X20847613Y15657585D01*
X20903589Y15461955D01*
X20903590Y15461952D01*
X20903591Y15461951D01*
X20997802Y15281593D01*
X20997804Y15281591D01*
X21126390Y15123891D01*
X21192483Y15070000D01*
X21284093Y14995302D01*
X21464451Y14901091D01*
X21660082Y14845114D01*
X21779463Y14834500D01*
X22570536Y14834501D01*
X22689918Y14845114D01*
X22885549Y14901091D01*
X23065907Y14995302D01*
X23223609Y15123891D01*
X23293174Y15209207D01*
X23350792Y15248722D01*
X23420630Y15250814D01*
X23454371Y15236383D01*
X23593375Y15150644D01*
X23593380Y15150642D01*
X23759802Y15095495D01*
X23759809Y15095494D01*
X23862519Y15085001D01*
X23999999Y15085001D01*
X24500000Y15085001D01*
X24637472Y15085001D01*
X24637486Y15085002D01*
X24740197Y15095495D01*
X24906619Y15150642D01*
X24906624Y15150644D01*
X25055845Y15242685D01*
X25179815Y15366655D01*
X25271856Y15515876D01*
X25271858Y15515881D01*
X25327005Y15682303D01*
X25327006Y15682310D01*
X25337499Y15785014D01*
X27412501Y15785014D01*
X27422994Y15682303D01*
X27478141Y15515881D01*
X27478143Y15515876D01*
X27570184Y15366655D01*
X27694154Y15242685D01*
X27843375Y15150644D01*
X27843380Y15150642D01*
X28009802Y15095495D01*
X28009809Y15095494D01*
X28112519Y15085001D01*
X28249999Y15085001D01*
X28250000Y15085002D01*
X28250000Y16060000D01*
X27412501Y16060000D01*
X27412501Y15785014D01*
X25337499Y15785014D01*
X25337500Y15785027D01*
X25337500Y16060000D01*
X24500000Y16060000D01*
X24500000Y15085001D01*
X23999999Y15085001D01*
X24000000Y15085002D01*
X24000000Y16560000D01*
X24500000Y16560000D01*
X25337499Y16560000D01*
X25337499Y16834971D01*
X25337498Y16834987D01*
X27412500Y16834987D01*
X27412500Y16560000D01*
X28250000Y16560000D01*
X28250000Y17535000D01*
X28112527Y17535000D01*
X28112512Y17534999D01*
X28009802Y17524506D01*
X27843380Y17469359D01*
X27843375Y17469357D01*
X27694154Y17377316D01*
X27570184Y17253346D01*
X27478143Y17104125D01*
X27478141Y17104120D01*
X27422994Y16937698D01*
X27422993Y16937691D01*
X27412500Y16834987D01*
X25337498Y16834987D01*
X25337498Y16834988D01*
X25327005Y16937698D01*
X25271858Y17104120D01*
X25271856Y17104125D01*
X25179815Y17253346D01*
X25055845Y17377316D01*
X24906624Y17469357D01*
X24906619Y17469359D01*
X24740197Y17524506D01*
X24740190Y17524507D01*
X24637486Y17535000D01*
X24500000Y17535000D01*
X24500000Y16560000D01*
X24000000Y16560000D01*
X24000000Y17535000D01*
X23862527Y17535000D01*
X23862512Y17534999D01*
X23759802Y17524506D01*
X23593380Y17469359D01*
X23593375Y17469357D01*
X23464597Y17389925D01*
X23397204Y17371485D01*
X23330541Y17392408D01*
X23285771Y17446050D01*
X23275500Y17495464D01*
X23275500Y18321000D01*
X23295185Y18388039D01*
X23347989Y18433794D01*
X23399500Y18445000D01*
X23880000Y18445000D01*
X23880000Y19469999D01*
X23940402Y19444979D01*
X24065981Y19420000D01*
X24194019Y19420000D01*
X24319598Y19444979D01*
X24380000Y19469999D01*
X24380000Y18445000D01*
X25302828Y18445000D01*
X25302844Y18445001D01*
X25362372Y18451402D01*
X25362379Y18451404D01*
X25497086Y18501646D01*
X25497093Y18501650D01*
X25612187Y18587810D01*
X25612190Y18587813D01*
X25698350Y18702907D01*
X25698354Y18702914D01*
X25748596Y18837621D01*
X25748598Y18837628D01*
X25754999Y18897156D01*
X25755000Y18897173D01*
X25755000Y19820000D01*
X24730001Y19820000D01*
X24755021Y19880402D01*
X24780000Y20005981D01*
X24780000Y20134019D01*
X24755021Y20259598D01*
X24730001Y20320000D01*
X25755000Y20320000D01*
X25755000Y21242828D01*
X25754999Y21242845D01*
X25748598Y21302373D01*
X25748596Y21302380D01*
X25698354Y21437087D01*
X25698350Y21437094D01*
X25612190Y21552188D01*
X25612187Y21552191D01*
X25497093Y21638351D01*
X25497086Y21638355D01*
X25362379Y21688597D01*
X25362372Y21688599D01*
X25302844Y21695000D01*
X24380000Y21695000D01*
X24380000Y20670002D01*
X24319598Y20695021D01*
X24194019Y20720000D01*
X24065981Y20720000D01*
X23940402Y20695021D01*
X23880000Y20670002D01*
X23880000Y21695000D01*
X22957155Y21695000D01*
X22897627Y21688599D01*
X22897620Y21688597D01*
X22762913Y21638355D01*
X22762906Y21638351D01*
X22647812Y21552191D01*
X22647809Y21552188D01*
X22561649Y21437094D01*
X22561645Y21437087D01*
X22511403Y21302380D01*
X22511401Y21302373D01*
X22505000Y21242845D01*
X22505000Y20250704D01*
X22485315Y20183665D01*
X22432511Y20137910D01*
X22363353Y20127966D01*
X22299797Y20156991D01*
X22293319Y20163023D01*
X21546930Y20909412D01*
X21546928Y20909414D01*
X21406788Y21011232D01*
X21252445Y21089873D01*
X21087701Y21143402D01*
X21087699Y21143403D01*
X21087698Y21143403D01*
X20956271Y21164219D01*
X20916611Y21170500D01*
X20916610Y21170500D01*
X19210723Y21170500D01*
X19143684Y21190185D01*
X19112348Y21219013D01*
X19049888Y21300411D01*
X19043101Y21309256D01*
X19043100Y21309257D01*
X19043093Y21309265D01*
X18869261Y21483097D01*
X18869254Y21483103D01*
X18674212Y21632764D01*
X18674211Y21632765D01*
X18674208Y21632767D01*
X18461292Y21755694D01*
X18461278Y21755700D01*
X18234162Y21849775D01*
X18234155Y21849777D01*
X18234153Y21849778D01*
X17996677Y21913409D01*
X17955939Y21918773D01*
X17752934Y21945500D01*
X17752927Y21945500D01*
X17634500Y21945500D01*
X17567461Y21965185D01*
X17521706Y22017989D01*
X17510500Y22069500D01*
X17510500Y23399731D01*
X20615000Y23399731D01*
X20630418Y23282632D01*
X20630419Y23282627D01*
X20690773Y23136917D01*
X20690774Y23136914D01*
X20786787Y23011789D01*
X20786788Y23011788D01*
X20911913Y22915775D01*
X20911916Y22915774D01*
X21057626Y22855420D01*
X21057631Y22855419D01*
X21174730Y22840001D01*
X21174745Y22840000D01*
X21315000Y22840000D01*
X21315000Y23940000D01*
X20615000Y23940000D01*
X20615000Y23399731D01*
X17510500Y23399731D01*
X17510500Y24365501D01*
X17530185Y24432540D01*
X17582989Y24478295D01*
X17634500Y24489501D01*
X19104863Y24489501D01*
X19104863Y24489502D01*
X19146359Y24492314D01*
X19325674Y24536907D01*
X19491211Y24619006D01*
X19635229Y24734771D01*
X19750994Y24878789D01*
X19801324Y24980270D01*
X20615000Y24980270D01*
X20615000Y24440000D01*
X21315000Y24440000D01*
X21315000Y25540000D01*
X21174730Y25540000D01*
X21057631Y25524582D01*
X21057626Y25524581D01*
X20911916Y25464227D01*
X20911913Y25464226D01*
X20786788Y25368213D01*
X20786787Y25368212D01*
X20690774Y25243087D01*
X20690773Y25243084D01*
X20630419Y25097374D01*
X20630418Y25097369D01*
X20615000Y24980270D01*
X19801324Y24980270D01*
X19823240Y25024459D01*
X19830658Y25039416D01*
X19830659Y25039418D01*
X19833091Y25044322D01*
X19833093Y25044326D01*
X19877686Y25223641D01*
X19880500Y25265137D01*
X19880499Y26114862D01*
X19877686Y26156359D01*
X19843189Y26295076D01*
X19843189Y26354926D01*
X19877685Y26493637D01*
X19877684Y26493637D01*
X19877686Y26493641D01*
X19880500Y26535137D01*
X19880499Y27384862D01*
X19877686Y27426359D01*
X19843189Y27565076D01*
X19843189Y27624926D01*
X19850325Y27653618D01*
X19877686Y27763641D01*
X19880500Y27805137D01*
X19880499Y28654862D01*
X19877686Y28696359D01*
X19843189Y28835076D01*
X19843189Y28894926D01*
X19853635Y28936928D01*
X19877686Y29033641D01*
X19880500Y29075137D01*
X19880499Y29924862D01*
X19877686Y29966359D01*
X19843189Y30105076D01*
X19843189Y30164926D01*
X19849138Y30188845D01*
X19877686Y30303641D01*
X19880500Y30345137D01*
X19880499Y31194862D01*
X19877686Y31236359D01*
X19843189Y31375076D01*
X19843189Y31434926D01*
X19851035Y31466473D01*
X19877686Y31573641D01*
X19880500Y31615137D01*
X19880499Y32464862D01*
X19877686Y32506359D01*
X19843189Y32645076D01*
X19843189Y32704926D01*
X19852448Y32742156D01*
X24080000Y32742156D01*
X24086401Y32682628D01*
X24086403Y32682621D01*
X24136645Y32547914D01*
X24136649Y32547907D01*
X24222809Y32432813D01*
X24222812Y32432810D01*
X24337906Y32346650D01*
X24337913Y32346646D01*
X24472620Y32296404D01*
X24472627Y32296402D01*
X24532155Y32290001D01*
X24532172Y32290000D01*
X26330000Y32290000D01*
X26830000Y32290000D01*
X28627828Y32290000D01*
X28627844Y32290001D01*
X28687372Y32296402D01*
X28687379Y32296404D01*
X28822086Y32346646D01*
X28822093Y32346650D01*
X28937187Y32432810D01*
X28937190Y32432813D01*
X29023350Y32547907D01*
X29023354Y32547914D01*
X29073596Y32682621D01*
X29073598Y32682628D01*
X29079999Y32742156D01*
X29080000Y32742173D01*
X29080000Y34540000D01*
X26830000Y34540000D01*
X26830000Y32290000D01*
X26330000Y32290000D01*
X26330000Y34540000D01*
X24080000Y34540000D01*
X24080000Y32742156D01*
X19852448Y32742156D01*
X19877685Y32843637D01*
X19877684Y32843637D01*
X19877686Y32843641D01*
X19880500Y32885137D01*
X19880499Y33734862D01*
X19877686Y33776359D01*
X19843189Y33915076D01*
X19843189Y33974926D01*
X19849334Y33999633D01*
X19877686Y34113641D01*
X19880500Y34155137D01*
X19880499Y35004862D01*
X19877686Y35046359D01*
X19843189Y35185076D01*
X19843189Y35244926D01*
X19869196Y35349500D01*
X19877686Y35383641D01*
X19880500Y35425137D01*
X19880499Y36274862D01*
X19877686Y36316359D01*
X19843189Y36455076D01*
X19843189Y36514926D01*
X19846194Y36527007D01*
X19877686Y36653641D01*
X19880500Y36695137D01*
X19880500Y36837845D01*
X24080000Y36837845D01*
X24080000Y35040000D01*
X26330000Y35040000D01*
X26830000Y35040000D01*
X29080000Y35040000D01*
X29080000Y36837828D01*
X29079999Y36837845D01*
X29073598Y36897373D01*
X29073596Y36897380D01*
X29023354Y37032087D01*
X29023350Y37032094D01*
X28937190Y37147188D01*
X28937187Y37147191D01*
X28822093Y37233351D01*
X28822086Y37233355D01*
X28687379Y37283597D01*
X28687372Y37283599D01*
X28627844Y37290000D01*
X26830000Y37290000D01*
X26830000Y35040000D01*
X26330000Y35040000D01*
X26330000Y37290000D01*
X24532155Y37290000D01*
X24472627Y37283599D01*
X24472620Y37283597D01*
X24337913Y37233355D01*
X24337906Y37233351D01*
X24222812Y37147191D01*
X24222809Y37147188D01*
X24136649Y37032094D01*
X24136645Y37032087D01*
X24086403Y36897380D01*
X24086401Y36897373D01*
X24080000Y36837845D01*
X19880500Y36837845D01*
X19880499Y37120099D01*
X19880499Y37544862D01*
X19880499Y37544863D01*
X19877686Y37586359D01*
X19843189Y37725076D01*
X19843189Y37784926D01*
X19860653Y37855148D01*
X19877686Y37923641D01*
X19880500Y37965137D01*
X19880499Y38814862D01*
X19877686Y38856359D01*
X19843189Y38995076D01*
X19843189Y39054926D01*
X19877685Y39193637D01*
X19877684Y39193637D01*
X19877686Y39193641D01*
X19880500Y39235137D01*
X19880499Y40084862D01*
X19877686Y40126359D01*
X19843189Y40265076D01*
X19843189Y40324926D01*
X19846772Y40339331D01*
X19877686Y40463641D01*
X19880500Y40505137D01*
X19880499Y41354862D01*
X19877686Y41396359D01*
X19833093Y41575674D01*
X19750994Y41741211D01*
X19663830Y41849649D01*
X19663826Y41849653D01*
X19635229Y41885229D01*
X19491211Y42000994D01*
X19420086Y42036269D01*
X19325675Y42083093D01*
X19146361Y42127686D01*
X19146362Y42127686D01*
X19121461Y42129375D01*
X19104863Y42130500D01*
X19104861Y42130500D01*
X18404000Y42130500D01*
X18395314Y42133051D01*
X18386353Y42131762D01*
X18362312Y42142741D01*
X18336961Y42150185D01*
X18331033Y42157026D01*
X18322797Y42160787D01*
X18308507Y42183022D01*
X18291206Y42202989D01*
X18288918Y42213504D01*
X18285023Y42219565D01*
X18280000Y42254500D01*
X18280000Y42326000D01*
X18299685Y42393039D01*
X18352489Y42438794D01*
X18404000Y42450000D01*
X19630000Y42450000D01*
X19630000Y42590256D01*
X19629999Y42590270D01*
X19614582Y42707368D01*
X19576463Y42799398D01*
X19568995Y42868868D01*
X19600271Y42931347D01*
X19660360Y42966999D01*
X19691025Y42970850D01*
X34868975Y42970850D01*
X34936014Y42951165D01*
X34981769Y42898361D01*
X34991713Y42829203D01*
X34983537Y42799398D01*
X34945417Y42707368D01*
X34930000Y42590270D01*
X34930000Y42450000D01*
X36030000Y42450000D01*
X36530000Y42450000D01*
X37630000Y42450000D01*
X37630000Y42590256D01*
X37629999Y42590270D01*
X37614581Y42707369D01*
X37614580Y42707374D01*
X37554226Y42853084D01*
X37554225Y42853087D01*
X37458212Y42978212D01*
X37458211Y42978213D01*
X37333086Y43074226D01*
X37333083Y43074227D01*
X37187373Y43134581D01*
X37187368Y43134582D01*
X37070269Y43150000D01*
X36530000Y43150000D01*
X36530000Y42450000D01*
X36030000Y42450000D01*
X36030000Y42846850D01*
X36049685Y42913889D01*
X36102489Y42959644D01*
X36154000Y42970850D01*
X36280000Y42970850D01*
X36280000Y48335686D01*
X36299685Y48402725D01*
X36352489Y48448480D01*
X36421647Y48458424D01*
X36485203Y48429399D01*
X36491681Y48423367D01*
X36743181Y48171867D01*
X36776666Y48110544D01*
X36779500Y48084186D01*
X36779500Y46974999D01*
X36779501Y46974982D01*
X36790000Y46872204D01*
X36790001Y46872201D01*
X36793840Y46860617D01*
X36845186Y46705666D01*
X36937288Y46556344D01*
X37061344Y46432288D01*
X37210666Y46340186D01*
X37210667Y46340186D01*
X37216813Y46336395D01*
X37215706Y46334601D01*
X37260337Y46295313D01*
X37279500Y46229092D01*
X37279500Y45156611D01*
X37279500Y44983389D01*
X37297973Y44866756D01*
X37299500Y44847358D01*
X37299500Y44536611D01*
X37299500Y44363389D01*
X37326598Y44192299D01*
X37380127Y44027555D01*
X37458768Y43873212D01*
X37560586Y43733072D01*
X38083072Y43210586D01*
X38083076Y43210583D01*
X38085447Y43208558D01*
X38086099Y43207559D01*
X38086517Y43207141D01*
X38086429Y43207054D01*
X38123640Y43150051D01*
X38124138Y43080183D01*
X38115400Y43057973D01*
X38016760Y42864384D01*
X37938910Y42624786D01*
X37899500Y42375962D01*
X37899500Y42154500D01*
X37879815Y42087461D01*
X37827011Y42041706D01*
X37775500Y42030500D01*
X37460778Y42030500D01*
X37405683Y42043412D01*
X37325675Y42083093D01*
X37146361Y42127686D01*
X37146362Y42127686D01*
X37121461Y42129375D01*
X37104863Y42130500D01*
X37104861Y42130500D01*
X35455138Y42130500D01*
X35455134Y42130499D01*
X35413644Y42127687D01*
X35413642Y42127687D01*
X35234324Y42083093D01*
X35068792Y42000996D01*
X35068790Y42000995D01*
X35068789Y42000994D01*
X34924771Y41885229D01*
X34896175Y41849656D01*
X34896169Y41849649D01*
X34809005Y41741211D01*
X34726907Y41575676D01*
X34682314Y41396362D01*
X34679500Y41354861D01*
X34679500Y40505139D01*
X34679501Y40505135D01*
X34682313Y40463644D01*
X34716810Y40324926D01*
X34716810Y40265076D01*
X34682315Y40126365D01*
X34682314Y40126363D01*
X34679500Y40084861D01*
X34679500Y39235139D01*
X34679501Y39235135D01*
X34682313Y39193644D01*
X34716810Y39054926D01*
X34716810Y38995076D01*
X34682315Y38856365D01*
X34682314Y38856363D01*
X34679500Y38814861D01*
X34679500Y37965139D01*
X34679501Y37965135D01*
X34682313Y37923644D01*
X34716810Y37784926D01*
X34716810Y37725076D01*
X34682315Y37586365D01*
X34682314Y37586363D01*
X34679500Y37544861D01*
X34679500Y36695139D01*
X34679501Y36695135D01*
X34682313Y36653644D01*
X34716810Y36514926D01*
X34716810Y36455076D01*
X34682315Y36316365D01*
X34682314Y36316363D01*
X34679500Y36274861D01*
X34679500Y35425139D01*
X34679501Y35425135D01*
X34682313Y35383644D01*
X34716810Y35244926D01*
X34716810Y35185076D01*
X34682315Y35046365D01*
X34682314Y35046363D01*
X34679500Y35004861D01*
X34679500Y34155139D01*
X34679501Y34155135D01*
X34682313Y34113644D01*
X34716810Y33974926D01*
X34716810Y33915076D01*
X34682315Y33776365D01*
X34682314Y33776363D01*
X34679500Y33734861D01*
X34679500Y32885139D01*
X34679501Y32885135D01*
X34682313Y32843644D01*
X34716810Y32704926D01*
X34716810Y32645076D01*
X34682315Y32506365D01*
X34682314Y32506363D01*
X34679500Y32464861D01*
X34679500Y31615139D01*
X34679501Y31615135D01*
X34682313Y31573644D01*
X34716810Y31434926D01*
X34716810Y31375076D01*
X34682315Y31236365D01*
X34682314Y31236363D01*
X34679500Y31194861D01*
X34679500Y30345139D01*
X34679501Y30345135D01*
X34682313Y30303644D01*
X34716810Y30164926D01*
X34716810Y30105076D01*
X34682315Y29966365D01*
X34682314Y29966363D01*
X34679500Y29924861D01*
X34679500Y29075139D01*
X34679501Y29075135D01*
X34682313Y29033644D01*
X34716810Y28894926D01*
X34716810Y28835076D01*
X34682315Y28696365D01*
X34682314Y28696363D01*
X34679500Y28654861D01*
X34679500Y27805139D01*
X34679501Y27805135D01*
X34682313Y27763644D01*
X34716810Y27624926D01*
X34716810Y27565076D01*
X34682315Y27426365D01*
X34682314Y27426363D01*
X34679500Y27384861D01*
X34679500Y26535139D01*
X34679501Y26535135D01*
X34682313Y26493644D01*
X34716810Y26354926D01*
X34716810Y26295076D01*
X34682315Y26156365D01*
X34682314Y26156363D01*
X34679500Y26114861D01*
X34679500Y25265139D01*
X34679501Y25265135D01*
X34682313Y25223645D01*
X34682313Y25223643D01*
X34726907Y25044325D01*
X34809005Y24878790D01*
X34848626Y24829500D01*
X34924771Y24734771D01*
X35068789Y24619006D01*
X35110596Y24598272D01*
X35161907Y24550853D01*
X35179500Y24487185D01*
X35179500Y23287205D01*
X35159815Y23220166D01*
X35143181Y23199524D01*
X34930477Y22986819D01*
X34869154Y22953334D01*
X34842796Y22950500D01*
X34251875Y22950500D01*
X34184836Y22970185D01*
X34139081Y23022989D01*
X34129137Y23092147D01*
X34140787Y23129594D01*
X34144418Y23136917D01*
X34148093Y23144326D01*
X34192686Y23323641D01*
X34195500Y23365137D01*
X34195499Y25014862D01*
X34192686Y25056359D01*
X34148093Y25235674D01*
X34065994Y25401211D01*
X33950229Y25545229D01*
X33872684Y25607562D01*
X33806210Y25660995D01*
X33640675Y25743093D01*
X33461361Y25787686D01*
X33461362Y25787686D01*
X33440611Y25789093D01*
X33419863Y25790500D01*
X33419860Y25790500D01*
X32570138Y25790500D01*
X32570134Y25790499D01*
X32528642Y25787687D01*
X32389925Y25753190D01*
X32330075Y25753190D01*
X32191364Y25787685D01*
X32191362Y25787686D01*
X32170611Y25789093D01*
X32149863Y25790500D01*
X32149860Y25790500D01*
X31300138Y25790500D01*
X31300134Y25790499D01*
X31258642Y25787687D01*
X31119925Y25753190D01*
X31060075Y25753190D01*
X30921364Y25787685D01*
X30921362Y25787686D01*
X30900611Y25789093D01*
X30879863Y25790500D01*
X30879860Y25790500D01*
X30030138Y25790500D01*
X30030134Y25790499D01*
X29988642Y25787687D01*
X29849925Y25753190D01*
X29790075Y25753190D01*
X29651364Y25787685D01*
X29651362Y25787686D01*
X29630611Y25789093D01*
X29609863Y25790500D01*
X29609860Y25790500D01*
X28760138Y25790500D01*
X28760134Y25790499D01*
X28718642Y25787687D01*
X28579925Y25753190D01*
X28520075Y25753190D01*
X28381364Y25787685D01*
X28381362Y25787686D01*
X28360611Y25789093D01*
X28339863Y25790500D01*
X28339860Y25790500D01*
X27490138Y25790500D01*
X27490134Y25790499D01*
X27448642Y25787687D01*
X27309925Y25753190D01*
X27250075Y25753190D01*
X27111364Y25787685D01*
X27111362Y25787686D01*
X27090611Y25789093D01*
X27069863Y25790500D01*
X27069860Y25790500D01*
X26220138Y25790500D01*
X26220134Y25790499D01*
X26178642Y25787687D01*
X26039925Y25753190D01*
X25980075Y25753190D01*
X25841364Y25787685D01*
X25841362Y25787686D01*
X25820611Y25789093D01*
X25799863Y25790500D01*
X25799860Y25790500D01*
X24950138Y25790500D01*
X24950134Y25790499D01*
X24908642Y25787687D01*
X24769925Y25753190D01*
X24710075Y25753190D01*
X24571364Y25787685D01*
X24571362Y25787686D01*
X24550611Y25789093D01*
X24529863Y25790500D01*
X24529860Y25790500D01*
X23680138Y25790500D01*
X23680134Y25790499D01*
X23638642Y25787687D01*
X23499925Y25753190D01*
X23440075Y25753190D01*
X23301364Y25787685D01*
X23301362Y25787686D01*
X23280611Y25789093D01*
X23259863Y25790500D01*
X23259860Y25790500D01*
X22410138Y25790500D01*
X22410134Y25790499D01*
X22368644Y25787687D01*
X22368642Y25787687D01*
X22189324Y25743093D01*
X22023789Y25660995D01*
X21915351Y25573830D01*
X21915347Y25573827D01*
X21879771Y25545229D01*
X21785708Y25428211D01*
X21785687Y25428186D01*
X21764009Y25401216D01*
X21764005Y25401211D01*
X21681907Y25235676D01*
X21637314Y25056362D01*
X21636238Y25040499D01*
X21634500Y25014863D01*
X21634500Y24207203D01*
X21634501Y24190000D01*
X21634501Y23365135D01*
X21637313Y23323645D01*
X21637313Y23323643D01*
X21681907Y23144325D01*
X21730211Y23046930D01*
X21764006Y22978789D01*
X21879771Y22834771D01*
X21915347Y22806174D01*
X21915351Y22806170D01*
X22023789Y22719006D01*
X22189326Y22636907D01*
X22368641Y22592314D01*
X22410137Y22589500D01*
X23259862Y22589501D01*
X23301359Y22592314D01*
X23440075Y22626811D01*
X23499925Y22626811D01*
X23638637Y22592315D01*
X23638638Y22592315D01*
X23638641Y22592314D01*
X23680137Y22589500D01*
X24529862Y22589501D01*
X24571359Y22592314D01*
X24710075Y22626811D01*
X24769925Y22626811D01*
X24908637Y22592315D01*
X24908638Y22592315D01*
X24908641Y22592314D01*
X24950137Y22589500D01*
X25799862Y22589501D01*
X25841359Y22592314D01*
X25980075Y22626811D01*
X26039925Y22626811D01*
X26178637Y22592315D01*
X26178638Y22592315D01*
X26178641Y22592314D01*
X26220137Y22589500D01*
X27069862Y22589501D01*
X27111359Y22592314D01*
X27250075Y22626811D01*
X27309925Y22626811D01*
X27448637Y22592315D01*
X27448638Y22592315D01*
X27448641Y22592314D01*
X27490137Y22589500D01*
X28339862Y22589501D01*
X28381359Y22592314D01*
X28520075Y22626811D01*
X28579925Y22626811D01*
X28718637Y22592315D01*
X28718638Y22592315D01*
X28718641Y22592314D01*
X28760137Y22589500D01*
X29609862Y22589501D01*
X29651359Y22592314D01*
X29769804Y22621770D01*
X29839611Y22618846D01*
X29896757Y22578646D01*
X29923098Y22513931D01*
X29910269Y22445249D01*
X29887410Y22413754D01*
X29389970Y21916314D01*
X29334384Y21884220D01*
X29331884Y21883550D01*
X29205847Y21849778D01*
X29205845Y21849778D01*
X29205844Y21849777D01*
X28978719Y21755700D01*
X28978705Y21755693D01*
X28765787Y21632764D01*
X28570745Y21483103D01*
X28570738Y21483097D01*
X28396903Y21309262D01*
X28396897Y21309255D01*
X28247236Y21114213D01*
X28124307Y20901295D01*
X28124303Y20901286D01*
X28030225Y20674163D01*
X28030222Y20674153D01*
X27966680Y20437007D01*
X27966592Y20436680D01*
X27966590Y20436669D01*
X27934500Y20192935D01*
X27934500Y19947066D01*
X27954352Y19796285D01*
X27966591Y19703323D01*
X28030222Y19465848D01*
X28030225Y19465838D01*
X28124303Y19238715D01*
X28124307Y19238706D01*
X28146804Y19199740D01*
X28247233Y19025792D01*
X28247235Y19025789D01*
X28247236Y19025788D01*
X28396897Y18830746D01*
X28396903Y18830739D01*
X28570738Y18656904D01*
X28570745Y18656898D01*
X28660986Y18587654D01*
X28702189Y18531226D01*
X28709500Y18489278D01*
X28709500Y18363389D01*
X28715519Y18325389D01*
X28732219Y18219943D01*
X28736598Y18192299D01*
X28785562Y18041603D01*
X28790128Y18027553D01*
X28813541Y17981602D01*
X28868768Y17873212D01*
X28950658Y17760500D01*
X28971448Y17731886D01*
X28994928Y17666079D01*
X28979103Y17598025D01*
X28928997Y17549330D01*
X28871130Y17535000D01*
X28750000Y17535000D01*
X28750000Y15085001D01*
X28887472Y15085001D01*
X28887486Y15085002D01*
X28990197Y15095495D01*
X29156619Y15150642D01*
X29156626Y15150645D01*
X29295626Y15236382D01*
X29363019Y15254823D01*
X29429682Y15233901D01*
X29456826Y15209205D01*
X29526390Y15123891D01*
X29592483Y15070000D01*
X29684093Y14995302D01*
X29864451Y14901091D01*
X30060082Y14845114D01*
X30179463Y14834500D01*
X30970536Y14834501D01*
X31089918Y14845114D01*
X31285549Y14901091D01*
X31465907Y14995302D01*
X31623609Y15123891D01*
X31632366Y15134630D01*
X31656200Y15163860D01*
X31713820Y15203378D01*
X31752302Y15209500D01*
X33130583Y15209500D01*
X33197622Y15189815D01*
X33226683Y15163863D01*
X33238891Y15148891D01*
X33396593Y15020302D01*
X33576951Y14926091D01*
X33772582Y14870114D01*
X33891963Y14859500D01*
X34708036Y14859501D01*
X34827418Y14870114D01*
X35023049Y14926091D01*
X35203407Y15020302D01*
X35221639Y15035169D01*
X35286034Y15062278D01*
X35354864Y15050269D01*
X35378359Y15035170D01*
X35396593Y15020302D01*
X35576951Y14926091D01*
X35772582Y14870114D01*
X35891963Y14859500D01*
X36708036Y14859501D01*
X36827418Y14870114D01*
X37023049Y14926091D01*
X37203407Y15020302D01*
X37361109Y15148891D01*
X37373315Y15163862D01*
X37430937Y15203378D01*
X37469417Y15209500D01*
X38113389Y15209500D01*
X38286611Y15209500D01*
X64401370Y15209500D01*
X64468409Y15189815D01*
X64506907Y15150599D01*
X64537288Y15101344D01*
X64661344Y14977288D01*
X64810666Y14885186D01*
X64977203Y14830001D01*
X65079991Y14819500D01*
X66880008Y14819501D01*
X66982797Y14830001D01*
X67149334Y14885186D01*
X67298656Y14977288D01*
X67422712Y15101344D01*
X67422715Y15101350D01*
X67427495Y15106129D01*
X67488818Y15139614D01*
X67558510Y15134630D01*
X67588058Y15118769D01*
X67681155Y15051130D01*
X67787206Y14997095D01*
X67905616Y14936761D01*
X67905618Y14936761D01*
X67905621Y14936759D01*
X68145215Y14858910D01*
X68394038Y14819500D01*
X68394039Y14819500D01*
X68645961Y14819500D01*
X68645962Y14819500D01*
X68894785Y14858910D01*
X69134379Y14936759D01*
X69358845Y15051130D01*
X69562656Y15199207D01*
X69702319Y15338870D01*
X69763642Y15372355D01*
X69833334Y15367371D01*
X69877681Y15338870D01*
X70017345Y15199206D01*
X70017350Y15199202D01*
X70160093Y15095494D01*
X70221155Y15051130D01*
X70330718Y14995305D01*
X70445616Y14936761D01*
X70445618Y14936761D01*
X70445621Y14936759D01*
X70685215Y14858910D01*
X70934038Y14819500D01*
X70934039Y14819500D01*
X71185961Y14819500D01*
X71185962Y14819500D01*
X71434785Y14858910D01*
X71674379Y14936759D01*
X71898845Y15051130D01*
X72102656Y15199207D01*
X72280793Y15377344D01*
X72428870Y15581155D01*
X72445769Y15614323D01*
X72450416Y15621068D01*
X72454899Y15624709D01*
X72464854Y15638410D01*
X73117037Y16290592D01*
X73134075Y16227007D01*
X73199901Y16112993D01*
X73292993Y16019901D01*
X73407007Y15954075D01*
X73470590Y15937038D01*
X72838282Y15304731D01*
X72838282Y15304730D01*
X72892449Y15265376D01*
X73081782Y15168905D01*
X73283870Y15103243D01*
X73493754Y15070000D01*
X73706246Y15070000D01*
X73916127Y15103243D01*
X73916130Y15103243D01*
X74118217Y15168905D01*
X74307554Y15265378D01*
X74361716Y15304730D01*
X74361717Y15304730D01*
X73729408Y15937038D01*
X73792993Y15954075D01*
X73907007Y16019901D01*
X74000099Y16112993D01*
X74065925Y16227007D01*
X74082962Y16290592D01*
X74715270Y15658283D01*
X74715270Y15658284D01*
X74754622Y15712446D01*
X74851095Y15901783D01*
X74916757Y16103870D01*
X74916757Y16103873D01*
X74950000Y16313754D01*
X74950000Y16526247D01*
X74916757Y16736128D01*
X74916757Y16736131D01*
X74851095Y16938218D01*
X74754624Y17127551D01*
X74715270Y17181718D01*
X74715269Y17181718D01*
X74082962Y16549410D01*
X74065925Y16612993D01*
X74000099Y16727007D01*
X73907007Y16820099D01*
X73792993Y16885925D01*
X73729409Y16902963D01*
X74361716Y17535272D01*
X74307550Y17574625D01*
X74118217Y17671096D01*
X73916129Y17736758D01*
X73706246Y17770000D01*
X73493754Y17770000D01*
X73283872Y17736758D01*
X73283869Y17736758D01*
X73081782Y17671096D01*
X72892439Y17574620D01*
X72838282Y17535273D01*
X72838282Y17535272D01*
X73470591Y16902963D01*
X73407007Y16885925D01*
X73292993Y16820099D01*
X73199901Y16727007D01*
X73134075Y16612993D01*
X73117037Y16549409D01*
X72464852Y17201594D01*
X72450414Y17218936D01*
X72445767Y17225683D01*
X72428870Y17258845D01*
X72314433Y17416355D01*
X72314414Y17416382D01*
X72280798Y17462650D01*
X72280794Y17462655D01*
X72102654Y17640795D01*
X72102649Y17640799D01*
X71898848Y17788868D01*
X71898847Y17788869D01*
X71898845Y17788870D01*
X71805148Y17836611D01*
X71674383Y17903240D01*
X71434785Y17981090D01*
X71335868Y17996757D01*
X71185962Y18020500D01*
X70934038Y18020500D01*
X70855565Y18008071D01*
X70685214Y17981090D01*
X70445616Y17903240D01*
X70221151Y17788868D01*
X70017350Y17640799D01*
X70017345Y17640795D01*
X69877681Y17501130D01*
X69869735Y17496792D01*
X69864310Y17489544D01*
X69839550Y17480310D01*
X69816358Y17467645D01*
X69807328Y17468291D01*
X69798846Y17465127D01*
X69773025Y17470744D01*
X69746666Y17472629D01*
X69737612Y17478448D01*
X69730573Y17479979D01*
X69702319Y17501130D01*
X69636819Y17566630D01*
X69603334Y17627953D01*
X69600500Y17654311D01*
X69600500Y17833926D01*
X69620185Y17900965D01*
X69672989Y17946720D01*
X69686183Y17951857D01*
X69824373Y17996757D01*
X69824379Y17996759D01*
X69870973Y18020500D01*
X70048845Y18111130D01*
X70252656Y18259207D01*
X70336630Y18343181D01*
X70397953Y18376666D01*
X70424311Y18379500D01*
X71176610Y18379500D01*
X71176611Y18379500D01*
X71347701Y18406598D01*
X71512445Y18460127D01*
X71666788Y18538768D01*
X71806928Y18640586D01*
X72579414Y19413072D01*
X72681232Y19553212D01*
X72684339Y19559311D01*
X72707144Y19590700D01*
X73117037Y20000592D01*
X73134075Y19937007D01*
X73199901Y19822993D01*
X73292993Y19729901D01*
X73407007Y19664075D01*
X73470590Y19647038D01*
X72838282Y19014731D01*
X72838282Y19014730D01*
X72892449Y18975376D01*
X73081782Y18878905D01*
X73283870Y18813243D01*
X73493754Y18780000D01*
X73706246Y18780000D01*
X73916127Y18813243D01*
X73916130Y18813243D01*
X74118217Y18878905D01*
X74307554Y18975378D01*
X74361716Y19014730D01*
X74361717Y19014730D01*
X73729408Y19647038D01*
X73792993Y19664075D01*
X73907007Y19729901D01*
X74000099Y19822993D01*
X74065925Y19937007D01*
X74082962Y20000592D01*
X74715270Y19368283D01*
X74715270Y19368284D01*
X74754622Y19422446D01*
X74851095Y19611783D01*
X74916757Y19813870D01*
X74916757Y19813873D01*
X74950000Y20023754D01*
X74950000Y20236247D01*
X74916757Y20446128D01*
X74916757Y20446131D01*
X74851095Y20648218D01*
X74754624Y20837551D01*
X74715270Y20891718D01*
X74715269Y20891718D01*
X74082962Y20259410D01*
X74065925Y20322993D01*
X74000099Y20437007D01*
X73907007Y20530099D01*
X73792993Y20595925D01*
X73729408Y20612963D01*
X74381590Y21265146D01*
X74412976Y21287950D01*
X74438845Y21301130D01*
X74598228Y21416928D01*
X74642650Y21449202D01*
X74642652Y21449205D01*
X74642656Y21449207D01*
X74820793Y21627344D01*
X74968870Y21831155D01*
X75083241Y22055621D01*
X75161090Y22295215D01*
X75200500Y22544038D01*
X75200500Y22795962D01*
X75161090Y23044785D01*
X75083241Y23284379D01*
X75083239Y23284382D01*
X75083239Y23284384D01*
X74972930Y23500876D01*
X74968870Y23508845D01*
X74901233Y23601940D01*
X74877754Y23667743D01*
X74893579Y23735797D01*
X74913871Y23762505D01*
X74918650Y23767285D01*
X74918656Y23767288D01*
X75042712Y23891344D01*
X75134814Y24040666D01*
X75189999Y24207203D01*
X75200500Y24309991D01*
X75200499Y26110008D01*
X75189999Y26212797D01*
X75134814Y26379334D01*
X75042712Y26528656D01*
X74918656Y26652712D01*
X74769334Y26744814D01*
X74602797Y26799999D01*
X74602795Y26800000D01*
X74500010Y26810500D01*
X72699998Y26810500D01*
X72699981Y26810499D01*
X72597203Y26800000D01*
X72597200Y26799999D01*
X72430668Y26744815D01*
X72430663Y26744813D01*
X72281342Y26652711D01*
X72157289Y26528658D01*
X72065186Y26379334D01*
X72037391Y26295456D01*
X71997617Y26238011D01*
X71975980Y26223976D01*
X71833211Y26151232D01*
X71776487Y26110019D01*
X71693072Y26049414D01*
X71693070Y26049412D01*
X71693069Y26049412D01*
X71632181Y25988523D01*
X71570858Y25955038D01*
X71501166Y25960022D01*
X71445233Y26001894D01*
X71420816Y26067358D01*
X71420500Y26076204D01*
X71420500Y36766610D01*
X71419784Y36771133D01*
X71407213Y36850500D01*
X71393403Y36937697D01*
X71393402Y36937698D01*
X71393402Y36937701D01*
X71339873Y37102445D01*
X71261232Y37256788D01*
X71159414Y37396928D01*
X71036928Y37519414D01*
X70608523Y37947819D01*
X70575038Y38009142D01*
X70580022Y38078834D01*
X70621894Y38134767D01*
X70687358Y38159184D01*
X70696204Y38159500D01*
X72385689Y38159500D01*
X72452728Y38139815D01*
X72473370Y38123181D01*
X72557345Y38039206D01*
X72557350Y38039202D01*
X72683129Y37947819D01*
X72761155Y37891130D01*
X72787020Y37877951D01*
X72818406Y37855148D01*
X73470591Y37202963D01*
X73407007Y37185925D01*
X73292993Y37120099D01*
X73199901Y37027007D01*
X73134075Y36912993D01*
X73117037Y36849409D01*
X72484728Y37481718D01*
X72484727Y37481718D01*
X72445380Y37427561D01*
X72348904Y37238218D01*
X72283242Y37036131D01*
X72283242Y37036128D01*
X72250000Y36826247D01*
X72250000Y36613754D01*
X72283242Y36403873D01*
X72283242Y36403870D01*
X72348904Y36201783D01*
X72445375Y36012450D01*
X72484728Y35958284D01*
X73117037Y36590592D01*
X73134075Y36527007D01*
X73199901Y36412993D01*
X73292993Y36319901D01*
X73407007Y36254075D01*
X73470590Y36237038D01*
X72838282Y35604731D01*
X72838282Y35604730D01*
X72892449Y35565376D01*
X73081782Y35468905D01*
X73283870Y35403243D01*
X73493754Y35370000D01*
X73706246Y35370000D01*
X73916127Y35403243D01*
X73916130Y35403243D01*
X74118217Y35468905D01*
X74307554Y35565378D01*
X74361716Y35604730D01*
X74361717Y35604730D01*
X73729408Y36237038D01*
X73792993Y36254075D01*
X73907007Y36319901D01*
X74000099Y36412993D01*
X74065925Y36527007D01*
X74082962Y36590592D01*
X74715270Y35958283D01*
X74715270Y35958284D01*
X74754622Y36012446D01*
X74851095Y36201783D01*
X74916757Y36403870D01*
X74916757Y36403873D01*
X74950000Y36613754D01*
X74950000Y36826247D01*
X74916757Y37036128D01*
X74916757Y37036131D01*
X74851095Y37238218D01*
X74754624Y37427551D01*
X74715270Y37481718D01*
X74715269Y37481718D01*
X74082962Y36849410D01*
X74065925Y36912993D01*
X74000099Y37027007D01*
X73907007Y37120099D01*
X73792993Y37185925D01*
X73729409Y37202963D01*
X74381590Y37855146D01*
X74412976Y37877950D01*
X74438845Y37891130D01*
X74567366Y37984506D01*
X74642650Y38039202D01*
X74642652Y38039205D01*
X74642656Y38039207D01*
X74820793Y38217344D01*
X74968870Y38421155D01*
X75083241Y38645621D01*
X75161090Y38885215D01*
X75200500Y39134038D01*
X75200500Y39385962D01*
X75161090Y39634785D01*
X75083241Y39874379D01*
X75083239Y39874382D01*
X75083239Y39874384D01*
X75041747Y39955816D01*
X74968870Y40098845D01*
X74906881Y40184166D01*
X74820798Y40302650D01*
X74820794Y40302655D01*
X74681130Y40442319D01*
X74647645Y40503642D01*
X74652629Y40573334D01*
X74681130Y40617681D01*
X74743264Y40679815D01*
X74820793Y40757344D01*
X74968870Y40961155D01*
X75083241Y41185621D01*
X75161090Y41425215D01*
X75200500Y41674038D01*
X75200500Y41925962D01*
X75161090Y42174785D01*
X75083241Y42414379D01*
X75083239Y42414382D01*
X75083239Y42414384D01*
X74993620Y42590270D01*
X74968870Y42638845D01*
X74901233Y42731940D01*
X74877754Y42797743D01*
X74893579Y42865797D01*
X74913871Y42892505D01*
X74918650Y42897285D01*
X74918656Y42897288D01*
X75042712Y43021344D01*
X75134814Y43170666D01*
X75189999Y43337203D01*
X75200500Y43439991D01*
X75200499Y45240008D01*
X75189999Y45342797D01*
X75134814Y45509334D01*
X75042712Y45658656D01*
X74918656Y45782712D01*
X74769334Y45874814D01*
X74769332Y45874815D01*
X74763187Y45878605D01*
X74764290Y45880395D01*
X74719649Y45919710D01*
X74700500Y45985909D01*
X74700500Y46404092D01*
X74720185Y46471131D01*
X74764271Y46509637D01*
X74763187Y46511395D01*
X74769332Y46515186D01*
X74769334Y46515186D01*
X74918656Y46607288D01*
X75042712Y46731344D01*
X75134814Y46880666D01*
X75189999Y47047203D01*
X75200500Y47149991D01*
X75200499Y48950008D01*
X75189999Y49052797D01*
X75134814Y49219334D01*
X75042712Y49368656D01*
X74918656Y49492712D01*
X74769334Y49584814D01*
X74630282Y49630892D01*
X74572839Y49670664D01*
X74558803Y49692303D01*
X74541233Y49726787D01*
X74518772Y49757701D01*
X74439414Y49866928D01*
X74316928Y49989414D01*
X73216928Y51089414D01*
X73076788Y51191232D01*
X72922445Y51269873D01*
X72757701Y51323402D01*
X72757699Y51323403D01*
X72757698Y51323403D01*
X72626271Y51344219D01*
X72586611Y51350500D01*
X40841611Y51350500D01*
X40668389Y51350500D01*
X40582844Y51336951D01*
X40497298Y51323402D01*
X40332549Y51269872D01*
X40178211Y51191232D01*
X40098256Y51133141D01*
X40038072Y51089414D01*
X40038070Y51089412D01*
X40038069Y51089412D01*
X38575876Y49627218D01*
X38514553Y49593733D01*
X38444861Y49598717D01*
X38400514Y49627218D01*
X36938320Y51089412D01*
X36938318Y51089414D01*
X36798178Y51191232D01*
X36643835Y51269873D01*
X36479091Y51323402D01*
X36479089Y51323403D01*
X36479088Y51323403D01*
X36347661Y51344219D01*
X36308001Y51350500D01*
X17086611Y51350500D01*
X16913389Y51350500D01*
X16827844Y51336951D01*
X16742298Y51323402D01*
X16577549Y51269872D01*
X16423211Y51191232D01*
X16343256Y51133141D01*
X16283072Y51089414D01*
X16283070Y51089412D01*
X16283069Y51089412D01*
X15410588Y50216931D01*
X15410588Y50216930D01*
X15410586Y50216928D01*
X15366859Y50156744D01*
X15308768Y50076789D01*
X15230128Y49922448D01*
X15176597Y49757698D01*
X15149500Y49586611D01*
X15149500Y41488390D01*
X15170648Y41354862D01*
X15176598Y41317299D01*
X15230127Y41152555D01*
X15308768Y40998212D01*
X15410586Y40858072D01*
X15410588Y40858070D01*
X15953477Y40315181D01*
X15986962Y40253858D01*
X15981978Y40184166D01*
X15953477Y40139819D01*
X15570588Y39756931D01*
X15570588Y39756930D01*
X15570586Y39756928D01*
X15526859Y39696744D01*
X15468768Y39616789D01*
X15390128Y39462448D01*
X15336597Y39297698D01*
X15320116Y39193637D01*
X15309500Y39126611D01*
X15309500Y21376611D01*
X15309500Y21203389D01*
X15336598Y21032299D01*
X15374927Y20914334D01*
X15390128Y20867553D01*
X15450725Y20748623D01*
X15468768Y20713212D01*
X15570586Y20573072D01*
X15570588Y20573070D01*
X15734089Y20409569D01*
X15767574Y20348246D01*
X15769347Y20305703D01*
X15754501Y20192938D01*
X15754500Y20192921D01*
X15754500Y19947066D01*
X15769347Y19834300D01*
X15768759Y19830534D01*
X15770092Y19826961D01*
X15763419Y19796285D01*
X15758582Y19765264D01*
X15755815Y19761330D01*
X15755241Y19758688D01*
X15734089Y19730433D01*
X15583072Y19579414D01*
X15583071Y19579414D01*
X15583070Y19579413D01*
X15460588Y19456931D01*
X15460588Y19456930D01*
X15460586Y19456928D01*
X15433756Y19420000D01*
X15358768Y19316789D01*
X15280128Y19162448D01*
X15280127Y19162446D01*
X15280127Y19162445D01*
X15253362Y19080073D01*
X15226597Y18997698D01*
X15199500Y18826611D01*
X15199500Y17466947D01*
X15179815Y17399908D01*
X15171602Y17388587D01*
X15110305Y17313413D01*
X15016089Y17133046D01*
X14960114Y16937417D01*
X14960113Y16937414D01*
X14958565Y16920000D01*
X14949684Y16820099D01*
X14949500Y16818034D01*
X14500500Y16818034D01*
X14500500Y51875500D01*
X14520185Y51942539D01*
X14572989Y51988294D01*
X14624500Y51999500D01*
X75375500Y51999500D01*
X75442539Y51979815D01*
G37*
%TD.AperFunction*%
%TD*%
M02*
